<?xml version="1.0" standalone="no"?>
<!DOCTYPE svg PUBLIC "-//W3C//DTD SVG 20010904//EN"
 "http://www.w3.org/TR/2001/REC-SVG-20010904/DTD/svg10.dtd">
<svg version="1.0" xmlns="http://www.w3.org/2000/svg"
 width="300.000000pt" height="300.000000pt" viewBox="0 0 300.000000 300.000000"
 preserveAspectRatio="xMidYMid meet">
<metadata>
Created by potrace 1.10, written by Peter Selinger 2001-2011
</metadata>
<g transform="translate(0.000000,300.000000) scale(0.100000,-0.100000)"
fill="#000000" stroke="none">
<path d="M1365 2966 c-63 -29 -138 -111 -159 -173 -21 -60 -20 -156 0 -217 21
-62 101 -149 159 -173 l45 -18 0 -323 0 -323 -61 32 c-114 61 -164 145 -179
301 -17 178 -92 294 -239 366 l-75 37 -428 3 c-422 3 -428 3 -428 -17 0 -20 8
-20 423 -23 l422 -3 66 -32 c79 -39 150 -111 185 -186 16 -36 27 -86 34 -153
8 -76 17 -113 40 -160 36 -74 118 -154 183 -179 l48 -18 24 23 25 23 0 312 c0
347 2 338 -71 376 -94 48 -149 139 -149 250 0 117 63 201 192 258 l77 33 67
-28 c135 -57 194 -131 202 -251 7 -102 -38 -196 -118 -243 -23 -14 -55 -36
-71 -48 l-29 -24 0 -317 0 -318 25 -23 c24 -23 25 -23 70 -6 66 26 149 106
185 179 23 48 32 84 39 159 12 126 44 199 117 268 30 28 80 63 111 78 l58 27
423 3 c414 3 422 3 422 23 0 20 -6 20 -428 17 l-428 -3 -75 -37 c-147 -72
-222 -188 -239 -366 -15 -156 -65 -240 -179 -301 l-61 -32 0 323 0 323 45 18
c58 24 138 111 159 173 20 61 21 157 0 217 -21 62 -96 144 -159 173 -71 34
-199 34 -270 0z"/>
<path d="M1425 2846 c-57 -26 -105 -102 -105 -163 1 -48 36 -110 81 -142 86
-63 203 -32 257 69 39 74 17 162 -54 216 -43 33 -130 43 -179 20z m151 -45
c34 -21 64 -75 64 -116 0 -41 -30 -95 -64 -116 -18 -11 -50 -19 -76 -19 -26 0
-58 8 -76 19 -34 21 -64 75 -64 116 0 41 30 95 64 116 40 25 112 25 152 0z"/>
<path d="M172 2327 c-12 -13 -22 -31 -22 -40 0 -36 44 -109 89 -147 66 -57
113 -70 252 -70 65 0 124 -3 133 -6 22 -8 22 -80 0 -88 -9 -3 -71 -6 -138 -6
-106 0 -125 -2 -139 -18 -22 -25 -21 -54 3 -102 27 -54 78 -102 136 -131 48
-23 57 -24 325 -27 l276 -3 29 25 29 24 -42 84 c-46 89 -59 135 -68 241 -9 89
-54 178 -113 224 -76 58 -112 63 -437 63 l-292 0 -21 -23z m683 -44 c52 -28
100 -78 120 -126 8 -21 20 -79 24 -130 11 -107 39 -190 87 -252 l34 -45 -260
0 c-146 0 -281 5 -309 11 -83 18 -168 95 -186 169 l-6 25 166 -3 165 -3 0 90
0 89 -172 4 c-189 3 -203 7 -266 69 -33 32 -72 97 -72 119 0 8 93 10 318 8
303 -3 319 -4 357 -25z"/>
<path d="M2178 2336 c-129 -35 -218 -162 -218 -311 0 -58 -16 -109 -63 -203
l-42 -84 29 -25 29 -24 276 3 c263 3 278 4 322 26 81 40 159 135 159 195 0 48
-25 57 -166 57 -140 0 -154 5 -154 50 0 45 15 50 151 50 142 0 187 11 251 61
45 37 86 96 95 140 4 23 0 36 -17 54 l-23 25 -291 -1 c-201 0 -306 -4 -338
-13z m642 -36 c0 -22 -40 -87 -72 -119 -63 -62 -77 -66 -265 -69 l-173 -4 0
-89 0 -90 165 3 166 3 -6 -25 c-18 -74 -103 -151 -186 -169 -28 -6 -163 -11
-310 -11 l-260 0 30 38 c48 59 82 155 92 259 4 51 16 109 24 130 27 65 93 122
165 144 40 12 630 11 630 -1z"/>
<path d="M13 2277 c7 -73 55 -163 117 -221 45 -42 47 -47 52 -108 7 -83 40
-166 90 -229 42 -53 136 -120 197 -141 26 -9 167 -13 489 -16 l452 -3 0 -92 0
-92 -273 0 c-265 0 -273 -1 -325 -24 -96 -43 -152 -131 -152 -241 0 -109 52
-189 155 -236 49 -23 58 -24 323 -24 l272 0 0 -90 0 -90 -87 0 c-107 0 -170
-25 -226 -90 -97 -113 -86 -268 27 -367 56 -49 101 -63 205 -63 l81 0 0 -75
c0 -68 2 -75 20 -75 18 0 20 7 20 69 0 102 -12 113 -131 121 -129 10 -170 30
-215 106 -53 91 -40 191 35 265 53 54 95 69 192 69 52 0 72 5 93 21 25 19 26
25 26 109 0 84 -1 90 -26 109 -25 20 -39 21 -289 21 l-263 0 -53 28 c-74 38
-111 93 -117 171 -5 71 10 121 51 167 59 68 62 68 375 74 341 6 322 -2 322
140 0 135 43 124 -489 130 -438 5 -447 5 -503 28 -127 51 -221 179 -236 319
-8 67 -10 74 -61 128 -52 57 -97 135 -120 207 -20 62 -35 59 -28 -5z"/>
<path d="M2974 2319 c-6 -8 -19 -38 -29 -67 -16 -52 -85 -165 -109 -179 -31
-20 -56 -68 -56 -107 0 -136 -105 -284 -238 -338 -56 -23 -66 -23 -503 -28
-532 -6 -489 5 -489 -130 0 -142 -15 -135 297 -137 142 -2 282 -3 311 -3 l53
0 -3 -42 -3 -43 -305 -3 c-369 -3 -350 4 -350 -129 0 -76 2 -86 25 -108 l24
-25 221 0 c240 0 267 -5 323 -58 68 -64 89 -180 47 -261 -24 -48 -83 -98 -130
-111 -19 -6 -130 -10 -246 -10 -199 0 -213 -1 -238 -21 -25 -19 -26 -25 -26
-108 0 -128 2 -130 200 -133 l155 -3 0 -40 0 -40 -158 -5 c-152 -5 -160 -6
-178 -29 -15 -18 -19 -39 -19 -92 0 -62 2 -69 20 -69 18 0 20 7 20 76 l0 75
180 -3 180 -3 0 88 0 87 -180 0 -180 0 0 90 0 90 233 0 c203 0 237 3 272 19
101 46 159 134 158 241 -1 108 -54 193 -148 236 -48 23 -60 24 -282 24 l-233
0 0 90 0 90 335 0 335 0 0 91 0 90 -335 -3 -335 -3 0 93 0 92 434 0 c404 0
438 1 497 20 168 52 282 194 297 369 5 59 8 66 49 104 50 46 86 102 109 170
18 52 16 120 -2 96z"/>
<path d="M880 1233 c-24 -9 -61 -45 -77 -77 -18 -35 -12 -76 18 -118 39 -54
64 -58 334 -58 l246 0 24 25 c23 22 25 32 25 108 0 74 -3 86 -23 105 -23 21
-30 22 -278 21 -140 0 -261 -3 -269 -6z m530 -123 l0 -90 -250 0 c-204 0 -256
3 -280 15 -58 30 -67 90 -21 136 l29 29 261 0 261 0 0 -90z"/>
<path d="M1577 870 c-26 -20 -27 -26 -27 -110 0 -84 1 -90 26 -109 25 -20 39
-21 233 -21 188 0 209 2 239 20 80 49 92 134 28 199 l-36 36 -218 3 c-209 3
-219 2 -245 -18z m474 -49 c36 -37 38 -79 5 -118 l-24 -28 -221 -3 -221 -3 0
90 0 91 216 0 216 0 29 -29z"/>
<path d="M1243 524 c-68 -34 -92 -116 -52 -181 29 -47 66 -63 147 -63 59 0 72
3 90 23 19 20 22 35 22 109 0 82 -2 88 -26 107 -33 26 -133 29 -181 5z m167
-114 l0 -90 -65 0 c-69 0 -118 17 -129 45 -10 27 -6 79 7 96 22 29 52 38 120
39 l67 0 0 -90z"/>
</g>
</svg>
