<?xml version="1.0" encoding="UTF-8"?>
<svg version="1.1" xmlns="http://www.w3.org/2000/svg" width="512" height="512">
<path d="M0 0 C0.94278809 0.16097168 1.88557617 0.32194336 2.85693359 0.48779297 C50.86127265 9.07266103 98.17254166 32.47171974 132 68 C132.78375 68.78375 133.5675 69.5675 134.375 70.375 C135.24125 71.24125 136.1075 72.1075 137 73 C137.95132813 73.89912109 137.95132813 73.89912109 138.921875 74.81640625 C145.69440041 81.33676316 151.36462093 88.50504701 157 96 C157.4242627 96.55816406 157.84852539 97.11632812 158.28564453 97.69140625 C198.58498623 150.98291555 213.2185726 219.36510589 204.21875 284.99609375 C199.7320924 314.53472086 191.57426377 347.39184381 166.37353516 366.21484375 C159.07489103 371.37604254 151.39065615 375.86932994 143 379 C141.98808594 379.391875 140.97617187 379.78375 139.93359375 380.1875 C119.50167317 386.88191767 95.82670884 384.57486325 76.6875 375.25 C60.12655643 366.69218229 48.43179425 354.92969008 39 339 C39 338.34 39 337.68 39 337 C38.22398437 337.6290625 37.44796875 338.258125 36.6484375 338.90625 C8.06181868 361.70481712 -24.72972428 370.42217818 -61.00488281 366.69091797 C-66.47005867 365.90516095 -71.73238357 364.64292618 -77 363 C-78.03568115 362.67854004 -78.03568115 362.67854004 -79.09228516 362.35058594 C-110.99519943 352.07765315 -135.42740947 329.91063483 -150.89453125 300.44458008 C-165.09871956 272.2984249 -166.8599678 238.77514191 -157.17993164 208.92431641 C-151.07168787 191.29004385 -141.94851526 176.47345506 -129 163 C-128.195625 162.1440625 -127.39125 161.288125 -126.5625 160.40625 C-108.61239627 141.78301738 -80.84308592 128.12460366 -54.72705078 126.83886719 C-23.12454877 126.46311506 -23.12454877 126.46311506 -11 130 C-10.33468262 130.19335938 -9.66936523 130.38671875 -8.98388672 130.5859375 C4.608545 134.65707027 17.31428429 140.96720631 29 149 C29.13535156 148.3709375 29.27070313 147.741875 29.41015625 147.09375 C31.46843232 138.90994576 35.26997912 132.97566732 42.5625 128.5 C48.9456411 125.71281948 56.77591171 125.91516191 63.43359375 127.625 C69.3978334 130.22926839 74.26763017 135.40093462 77.07376862 141.23079586 C78.14598676 144.43646451 78.25618672 147.0255028 78.26501465 150.40492249 C78.27328781 151.69864777 78.28156097 152.99237305 78.29008484 154.32530212 C78.28926029 155.75210582 78.28826267 157.17890942 78.28710938 158.60571289 C78.29313637 160.11405811 78.30006133 161.62239997 78.30781555 163.1307373 C78.32269211 166.37624661 78.33145081 169.62169452 78.33552551 172.86723518 C78.3422528 178.00834892 78.3640263 183.14933208 78.38806152 188.29039001 C78.43701366 199.214396 78.46930532 210.13842979 78.5 221.0625 C78.53312668 232.8331037 78.56924212 244.60365624 78.62413073 256.37418169 C78.64735428 261.47473324 78.66118928 266.57519464 78.66762543 271.67579377 C78.67360691 274.86454927 78.68774076 278.05323276 78.70396996 281.24195099 C78.70979597 282.70916993 78.7123287 284.17640668 78.71113014 285.6436367 C78.70306405 299.46814346 78.94538262 312.06355545 88.5 322.8125 C89.7375 323.8953125 89.7375 323.8953125 91 325 C91.721875 325.680625 92.44375 326.36125 93.1875 327.0625 C101.51994279 332.80262726 110.56133117 334.81258214 120.5 333.375 C129.15849976 331.54897561 136.6429037 327.12976077 142 320 C161.90188957 285.9658885 160.53770155 234.94683598 151 198 C142.9945206 169.58033166 130.79167284 142.2253686 111 120 C110.21496094 119.10667969 109.42992187 118.21335937 108.62109375 117.29296875 C104.86575013 113.06743383 101.04854763 108.94733394 97 105 C96.43796875 104.39285156 95.8759375 103.78570312 95.296875 103.16015625 C61.87550173 67.88912682 10.73410122 49.62508994 -37 48 C-82.23149425 47.35846964 -128.49503328 61.51237618 -164 90 C-165.53914063 91.23169922 -165.53914063 91.23169922 -167.109375 92.48828125 C-203.04085102 121.79456411 -227.69220825 162.54334264 -237 208 C-237.16371094 208.77085937 -237.32742187 209.54171875 -237.49609375 210.3359375 C-242.37866722 234.30493455 -242.22901636 262.11471773 -237 286 C-236.80132324 286.91458984 -236.60264648 287.82917969 -236.39794922 288.77148438 C-229.85625615 317.87834344 -217.36884641 345.42207775 -199 369 C-198.55333984 369.57363281 -198.10667969 370.14726562 -197.64648438 370.73828125 C-165.16754363 411.83015592 -116.94672807 438.12006188 -65.07910156 444.625 C-57.51332373 445.39906104 -49.90954135 445.34692483 -42.3125 445.3125 C-41.47583801 445.31067719 -40.63917603 445.30885437 -39.77716064 445.30697632 C-27.28916881 445.26120163 -15.2217675 444.762362 -3 442 C-2.19578613 441.82839355 -1.39157227 441.65678711 -0.56298828 441.47998047 C20.98062352 436.82336436 42.47692232 429.04698521 61.1171875 417.12890625 C66.98550321 413.61035181 74.41435809 414.41911261 81 415 C88.01459718 417.11128523 92.36540822 421.80271299 96 428 C98.98382626 434.23890945 99.02225381 441.64409342 96.875 448.1875 C93.44975011 455.81339276 87.94882483 460.15247536 80.6875 463.9375 C79.89698242 464.3607959 79.10646484 464.7840918 78.29199219 465.22021484 C75.87214679 466.50241489 73.43982501 467.75629532 71 469 C70.29375488 469.36270996 69.58750977 469.72541992 68.85986328 470.09912109 C22.40708431 493.68625498 -35.69020245 502.97681313 -87 492 C-88.08410156 491.76893555 -89.16820312 491.53787109 -90.28515625 491.29980469 C-134.26225196 481.62046053 -176.49057503 462.13916787 -209.203125 430.6796875 C-211.70076779 428.28669455 -214.25634837 426.00836735 -216.875 423.75 C-220.97485225 420.11806567 -224.48572624 416.19146647 -228 412 C-228.81082031 411.07703125 -229.62164062 410.1540625 -230.45703125 409.203125 C-264.05640297 370.76975152 -284.88478188 321.73582621 -290 271 C-290.11085938 269.95199219 -290.22171875 268.90398437 -290.3359375 267.82421875 C-296.33954527 200.08080673 -273.98067202 134.65437806 -230.69116211 82.77709961 C-221.08769637 71.42726568 -210.74921592 61.13279389 -199 52 C-197.52660156 50.81857422 -197.52660156 50.81857422 -196.0234375 49.61328125 C-141.46933995 6.2051058 -68.5786581 -11.72274804 0 0 Z M-94.6875 198.3125 C-108.59792527 212.66452607 -113.43355881 230.66321749 -113.43823242 250.11010742 C-113.27462627 259.14880669 -111.4723597 266.70278691 -108 275 C-107.61585938 275.93972656 -107.23171875 276.87945312 -106.8359375 277.84765625 C-103.88661539 284.33817124 -99.69449039 289.67503359 -95 295 C-94.32066406 295.77472656 -93.64132813 296.54945313 -92.94140625 297.34765625 C-79.8346853 311.36824031 -61.94148602 317.95062075 -43.07128906 318.95703125 C-23.58015099 319.36137358 -6.28788985 311.37014365 7.71875 298.25 C21.92646332 284.23691289 29.17307998 267.64367452 29.3125 247.625 C29.34370263 226.52162437 21.70170552 210.05843744 7.25 194.875 C-22.50008112 166.01831471 -66.01316218 171.14477993 -94.6875 198.3125 Z " fill="#000000" transform="translate(298,9)"/>
</svg>
