<?xml version="1.0" encoding="UTF-8"?>
<svg version="1.1" xmlns="http://www.w3.org/2000/svg" width="512" height="512">
<path d="M0 0 C9.86870047 6.50763384 18.11049723 15.87218233 26.45703125 24.19140625 C27.0484107 24.77995832 27.63979015 25.3685104 28.24909019 25.97489738 C31.36982351 29.08077324 34.48777587 32.18940763 37.60327148 35.30053711 C40.80169931 38.49345392 44.00932751 41.6769602 47.21913624 44.85842991 C49.70787157 47.32848098 52.18981474 49.80527367 54.66998863 52.28391838 C55.84954623 53.46046956 57.03158018 54.63454393 58.21622658 55.80597115 C74.73452228 72.15279341 74.73452228 72.15279341 75 85.125 C75.03738281 85.79080078 75.07476563 86.45660156 75.11328125 87.14257812 C75.26064092 95.73037207 71.11832417 102.24388734 65.38223362 108.33209515 C62.44660062 111.34035564 59.45290998 114.28649714 56.44921875 117.2265625 C55.15489626 118.51154309 53.86168545 119.79764432 52.5695343 121.08480835 C49.18902811 124.44635343 45.79377457 127.79260039 42.39508057 131.13574219 C38.92025674 134.55913769 35.45979398 137.99698448 31.99804688 141.43359375 C25.22090368 148.15734169 18.42807135 154.8649943 11.625 161.5625 C12.6589016 163.64339056 13.70380086 165.70765947 14.8125 167.75 C16.02243184 171.93822561 15.90797772 175.38929774 14.625 179.5625 C12.69718226 182.64700838 10.21483668 185.02542739 7.625 187.5625 C6.63683498 188.59267135 5.65133996 189.62540789 4.66796875 190.66015625 C3.61331878 191.75389749 2.55732565 192.84634514 1.5 193.9375 C0.99750732 194.46190674 0.49501465 194.98631348 -0.02270508 195.52661133 C-3.57338672 199.10531085 -6.4867414 201.26693314 -11.55078125 201.78515625 C-17.44948921 201.34302275 -20.46281596 199.37924106 -24.6484375 195.25390625 C-26.46908903 193.36542597 -26.46908903 193.36542597 -29.375 191.5625 C-29.94576547 192.13879622 -30.51653093 192.71509245 -31.10459232 193.3088522 C-44.99288985 207.32964931 -58.89776416 221.33381544 -72.82127476 235.31964779 C-79.55418534 242.08349771 -86.28136933 248.85286428 -92.99536133 255.63549805 C-98.84722102 261.54715668 -104.70954771 267.44819628 -110.58468956 273.33672053 C-113.69526769 276.45512143 -116.80034575 279.57858744 -119.89294624 282.71482658 C-122.80447684 285.66710534 -125.72980674 288.60497097 -128.66628456 291.53243065 C-129.74098484 292.60878054 -130.81055962 293.69027663 -131.87451553 294.77724838 C-133.32989603 296.26254992 -134.80271711 297.72810341 -136.28126526 299.19029236 C-137.10073922 300.01529708 -137.92021318 300.8403018 -138.76451969 301.69030666 C-142.00417146 304.01373137 -144.43052541 304.34457107 -148.375 304.5625 C-151.02316011 303.77520916 -152.00384529 303.03969891 -153.6875 300.875 C-154.73058002 297.3664581 -154.26933094 295.11783202 -153.375 291.5625 C-151.46400059 288.94306044 -149.19599624 286.81259244 -146.8125 284.625 C-146.19697266 284.03654297 -145.58144531 283.44808594 -144.94726562 282.84179688 C-143.43648106 281.40128136 -141.90749445 279.97989751 -140.375 278.5625 C-144.55277765 273.57657125 -148.90627277 268.89545716 -153.5234375 264.31640625 C-154.18082916 263.66042953 -154.83822083 263.00445282 -155.51553345 262.32859802 C-157.59132862 260.25834732 -159.67059427 258.19162349 -161.75 256.125 C-163.1682008 254.71182138 -164.58617176 253.29841206 -166.00390625 251.88476562 C-169.45828777 248.44133935 -172.9157837 245.00106901 -176.375 241.5625 C-180.2498746 243.14711488 -182.88356596 245.77726978 -185.7913208 248.69120789 C-186.59274006 249.48265543 -186.59274006 249.48265543 -187.41034961 250.29009181 C-189.19925706 252.059315 -190.9809525 253.83562433 -192.76269531 255.61206055 C-194.04368027 256.8821501 -195.32505179 258.15184988 -196.60678101 259.42118835 C-200.08685202 262.87075636 -203.56016428 266.32704993 -207.03135777 269.78554893 C-209.19950377 271.94561102 -211.36869322 274.10462012 -213.53816986 276.26334572 C-220.32402865 283.01649171 -227.10547215 289.77402981 -233.88108945 296.53745145 C-241.70594326 304.34803777 -249.54539728 312.14357349 -257.39770055 319.92656106 C-263.46524525 325.94238032 -269.51933394 331.97152724 -275.56339717 338.01093704 C-279.17444519 341.6185825 -282.7910287 345.22023677 -286.42179108 348.80805016 C-289.83529387 352.18187536 -293.23182511 355.57189676 -296.61598587 358.97514534 C-297.86120898 360.22163716 -299.1124487 361.46215148 -300.37002945 362.69617462 C-302.08553612 364.3813615 -303.77809039 366.08671262 -305.46661377 367.7988739 C-305.96970857 368.28294305 -306.47280337 368.7670122 -306.99114347 369.26575011 C-309.64174323 372.00563455 -310.36308563 373.4471134 -310.76007462 377.2918148 C-310.33980567 380.86142797 -309.87150189 381.92764778 -307.34570312 384.38647461 C-306.68501831 385.04663071 -306.0243335 385.7067868 -305.34362793 386.38694763 C-304.62179321 387.07265335 -303.8999585 387.75835907 -303.15625 388.46484375 C-302.42378052 389.1874086 -301.69131104 389.90997345 -300.93664551 390.6544342 C-298.59870347 392.95326424 -296.23759284 395.22653894 -293.875 397.5 C-292.28356535 399.05631757 -290.69370151 400.61424314 -289.10546875 402.17382812 C-285.21333154 405.98888228 -281.30189557 409.78325042 -277.375 413.5625 C-274.00655592 412.10273995 -271.82861073 410.25149745 -269.2585907 407.64622498 C-268.44703522 406.82874786 -267.63547974 406.01127075 -266.79933167 405.16902161 C-265.91768845 404.27076157 -265.03604523 403.37250153 -264.12768555 402.44702148 C-263.18327792 401.49222346 -262.23838005 400.53791013 -261.29302979 399.58404541 C-259.26002771 397.53118208 -257.22998693 395.47544989 -255.20203209 393.41760063 C-251.9935228 390.16291817 -248.77522026 386.91804137 -245.55488586 383.67506409 C-236.39942355 374.45277175 -227.25228293 365.22234046 -218.1262207 355.97094727 C-213.08433975 350.85999029 -208.03178719 345.75983992 -202.96713477 340.67144448 C-199.76395724 337.45208192 -196.57435937 334.22002337 -193.3941139 330.97801387 C-191.4105118 328.96235495 -189.41439871 326.95945967 -187.41452026 324.95996094 C-186.05189554 323.59019833 -184.70430917 322.20552678 -183.35725403 320.82044983 C-176.64217671 314.14924628 -176.64217671 314.14924628 -172.41731262 313.457901 C-169.34240563 313.56362064 -167.79454245 313.68063365 -165.375 315.5625 C-163.41340107 318.08455576 -163.37456185 319.53562078 -163.42703724 322.75483894 C-164.69554447 327.85002388 -167.17139169 330.19390117 -170.85490417 333.7975769 C-171.54008458 334.49141169 -172.22526498 335.18524647 -172.93120843 335.90010655 C-175.23067302 338.22115934 -177.55097799 340.52016781 -179.87182617 342.81982422 C-181.52536897 344.47986048 -183.17762581 346.14117851 -184.82868958 347.80368042 C-189.31966656 352.31776463 -193.82936899 356.8127002 -198.34329772 361.30381918 C-202.59124427 365.53476789 -206.8268342 369.77804117 -211.0631359 374.02064146 C-219.9749939 382.94443773 -228.9047579 391.85013879 -237.84101019 400.74949767 C-245.48773015 408.36540038 -253.12017438 415.99536011 -260.74194336 423.63623047 C-269.60577645 432.52225238 -278.47764679 441.40011453 -287.36282903 450.26479352 C-292.06085432 454.95213069 -296.75565847 459.64259337 -301.44203758 464.34157944 C-305.85717696 468.76733744 -310.28463434 473.18040642 -314.72154045 477.58433914 C-316.34059731 479.19524551 -317.95551626 480.81032412 -319.56576157 482.43003845 C-335.70604063 498.65471293 -351.21676487 510.74692123 -375 510.8125 C-382.87316852 510.79780171 -390.03613741 510.70134382 -397.375 507.5625 C-398.50035156 507.08683594 -399.62570312 506.61117188 -400.78515625 506.12109375 C-408.81023752 502.51520038 -415.22748267 497.89250393 -421.375 491.5625 C-421.93574219 491.02238281 -422.49648438 490.48226563 -423.07421875 489.92578125 C-434.47554023 478.04566412 -437.89038645 461.67698654 -437.79492188 445.83251953 C-437.11188867 420.04801616 -420.35437046 404.36204357 -403.28417969 387.17651367 C-402.07955289 385.96018346 -400.87945259 384.73935594 -399.68359375 383.5144043 C-397.92629612 381.71464497 -396.15630121 379.92832048 -394.3828125 378.14453125 C-393.85253448 377.59674515 -393.32225647 377.04895905 -392.77590942 376.48457336 C-389.78461876 373.51062291 -387.66036892 371.77233404 -383.375 371.5625 C-380.04932093 372.35432835 -378.69641972 373.17679634 -376.5 375.8125 C-375.01959287 379.43127299 -375.20858902 380.80981987 -376.375 384.5625 C-378.55785394 387.38844908 -381.11003392 389.78316965 -383.69921875 392.234375 C-384.43823929 392.95683411 -385.17725983 393.67929321 -385.93867493 394.42364502 C-388.30166655 396.73225293 -390.68017977 399.02385434 -393.0625 401.3125 C-395.42622584 403.5875529 -397.78565317 405.86631377 -400.13276672 408.1585083 C-401.59098565 409.5823831 -403.05853273 410.99679333 -404.53703308 412.39959717 C-413.87855381 421.51427234 -420.33238989 432.95640344 -420.84790039 446.14453125 C-421.00928035 460.17150253 -417.22074611 471.21110289 -407.49609375 481.5625 C-396.98551754 491.41483811 -384.80679648 494.18570049 -370.828125 493.875 C-354.48477879 493.05027269 -342.95933799 481.73161434 -332.1484375 470.7265625 C-330.90807766 469.47872713 -329.66682044 468.23178319 -328.42471313 466.98568726 C-325.18379148 463.72961261 -321.95507252 460.46170228 -318.72888184 457.19104004 C-315.42430042 453.84528131 -312.10813294 450.51104839 -308.79296875 447.17578125 C-302.30902457 440.64914896 -295.83793358 434.1099339 -289.375 427.5625 C-293.19001039 422.98314257 -297.15177254 418.68243686 -301.4375 414.54296875 C-302.57596804 413.42688829 -303.71397474 412.31033707 -304.8515625 411.19335938 C-306.6109402 409.47094133 -308.37311513 407.75182165 -310.14355469 406.04077148 C-326.65916496 390.05132632 -326.65916496 390.05132632 -328.375 380.5 C-328.375 368.0066678 -322.53921579 361.53566877 -313.99065852 352.92787266 C-312.46774013 351.406452 -310.94024489 349.88971816 -309.41259766 348.37304688 C-308.30784838 347.2688627 -307.2035412 346.16423604 -306.09963989 345.0592041 C-303.12107918 342.08007274 -300.1364202 339.1071212 -297.15057802 336.13529015 C-294.02398004 333.02124779 -290.90309578 329.90148956 -287.78158569 326.78234863 C-281.8784094 320.88537295 -275.97015631 314.99351141 -270.06003511 309.10349703 C-263.32812448 302.39398966 -256.60193441 295.67875988 -249.87620473 288.96305752 C-236.04879887 275.15652151 -222.21427115 261.35714205 -208.375 247.5625 C-220.21060453 245.61614113 -234.35360728 243.59084526 -244.83917946 250.67738611 C-252.46239399 256.46036995 -258.98210552 263.55731848 -265.47226548 270.54948497 C-268.52047851 273.79798705 -271.65991995 276.95601781 -274.78996277 280.12538147 C-280.68050616 286.11665861 -286.48808542 292.18182367 -292.26812238 298.27957398 C-298.85601231 305.221961 -305.53081782 312.07806232 -312.2149483 318.9276427 C-320.36246365 327.27745009 -328.49824198 335.63772323 -336.56245422 344.06809998 C-337.12943193 344.66051582 -337.69640963 345.25293165 -338.28056848 345.86329949 C-340.93643792 348.63950914 -343.58883849 351.41891221 -346.2359314 354.20349121 C-347.16229134 355.17384657 -348.08871454 356.14414154 -349.01521301 357.11436462 C-349.81378125 357.95411803 -350.61234949 358.79387144 -351.43511677 359.65907192 C-353.82117681 362.00029206 -354.86393941 362.49435859 -358.1875 362.9375 C-361.375 362.5625 -361.375 362.5625 -364.25 360.4375 C-366.375 357.5625 -366.375 357.5625 -367.125 354.75 C-365.1600623 346.39901476 -355.27370387 339.32224724 -349.38392639 333.45117188 C-348.38359494 332.45040358 -347.38348359 331.44941524 -346.38357157 330.44822788 C-343.65384504 327.71627868 -340.92103294 324.98743489 -338.18768013 322.2591145 C-335.23367339 319.30944425 -332.28257575 316.35686594 -329.33111572 313.40464783 C-324.22326779 308.29627668 -319.11359865 303.18973315 -314.0026722 298.08444214 C-306.6132201 290.70313252 -299.22654551 283.31904848 -291.84053617 275.9342941 C-279.85585231 263.95179645 -267.86893908 251.9715316 -255.88061523 239.99267578 C-244.23816461 228.35941044 -232.5967694 216.7250906 -220.95678711 205.08935547 C-219.8797468 204.01270925 -219.8797468 204.01270925 -218.78094811 202.9143126 C-215.17866416 199.31333373 -211.5764009 195.71233416 -207.97414792 192.11132431 C-178.11097177 162.25850734 -148.2441738 132.40931595 -118.375 102.5625 C-119.33649984 101.43426499 -120.29891469 100.30680973 -121.26171875 99.1796875 C-121.79756592 98.55175293 -122.33341309 97.92381836 -122.88549805 97.27685547 C-123.95175457 96.04963808 -125.05758868 94.85637378 -126.1875 93.6875 C-128.11567019 90.23709018 -128.66729415 86.48940841 -128.375 82.5625 C-126.19292999 76.38583407 -121.56516513 72.30826229 -117 67.8125 C-116.24460937 67.04550781 -115.48921875 66.27851562 -114.7109375 65.48828125 C-113.97359375 64.75480469 -113.23625 64.02132812 -112.4765625 63.265625 C-111.80963379 62.60208008 -111.14270508 61.93853516 -110.45556641 61.25488281 C-107.54975028 58.89122201 -104.817659 57.6135891 -101.05859375 57.48046875 C-93.55681818 58.38068182 -93.55681818 58.38068182 -90.375 61.5625 C-87.13404935 60.14329247 -85.01664495 58.42941752 -82.5546875 55.90234375 C-81.50474609 54.8359668 -81.50474609 54.8359668 -80.43359375 53.74804688 C-79.35271484 52.63526367 -79.35271484 52.63526367 -78.25 51.5 C-76.81212439 50.02776807 -75.37212292 48.55760844 -73.9296875 47.08984375 C-73.29530762 46.43749756 -72.66092773 45.78515137 -72.00732422 45.11303711 C-69.5597497 42.78809757 -68.45168608 42.56960056 -65 42.25 C-61.375 42.5625 -61.375 42.5625 -58.9375 44.0625 C-56.77930781 47.51560751 -56.60701506 50.64534552 -57.375 54.5625 C-58.94010713 57.18972608 -60.98651512 59.13566575 -63.2109375 61.21484375 C-63.80548737 61.80044571 -64.40003723 62.38604767 -65.01260376 62.98939514 C-66.90706253 64.84587285 -68.82774488 66.67236491 -70.75 68.5 C-72.03562271 69.75404886 -73.31949798 71.00989181 -74.6015625 72.26757812 C-84.9156078 82.32492453 -84.9156078 82.32492453 -89.0625 83 C-93.75756937 82.3798965 -96.09810305 79.82000703 -99.375 76.5625 C-102.34310069 77.89169292 -104.38063789 79.34112143 -106.625 81.6875 C-107.5325 82.63625 -108.44 83.585 -109.375 84.5625 C-107.92758883 87.88101886 -106.12197666 90.06284862 -103.56588745 92.61212158 C-102.77220764 93.40855072 -101.97852783 94.20497986 -101.16079712 95.02554321 C-100.28901825 95.89013153 -99.41723938 96.75471985 -98.51904297 97.64550781 C-97.60191528 98.56292755 -96.6847876 99.48034729 -95.73986816 100.42556763 C-93.2279964 102.93801297 -90.71000797 105.44424606 -88.19087744 107.94941044 C-85.5580938 110.56968777 -82.93097647 113.19563362 -80.30325317 115.82098389 C-75.32783319 120.79018882 -70.34733713 125.75427369 -65.36499798 130.7165401 C-59.69243327 136.36674663 -54.02554957 142.02263628 -48.35913634 147.67901087 C-36.70406793 159.3131767 -25.04188468 170.94018345 -13.375 182.5625 C-10.4340231 181.15571502 -8.38551716 179.80076794 -6.125 177.4375 C-5.2175 176.48875 -4.31 175.54 -3.375 174.5625 C-4.50639863 172.01685308 -5.62151888 170.2869789 -7.5 168.1875 C-9.375 165.5625 -9.375 165.5625 -10.0625 162.75 C-8.17987515 154.0214666 2.821458 146.24855496 9.0453434 140.06699181 C10.96016219 138.16506936 12.8717229 136.25992403 14.78251648 134.35395813 C18.83135699 130.31646875 22.88414519 126.28295664 26.9375 122.25 C31.65457524 117.55655113 36.37000468 112.86147262 41.08125877 108.16217995 C42.96378415 106.28613157 44.84929587 104.41312023 46.73493958 102.54020691 C47.88504499 101.39373278 49.03501094 100.24711871 50.18481445 99.1003418 C50.70896942 98.58135315 51.23312439 98.0623645 51.77316284 97.52764893 C56.6300008 92.69818376 56.6300008 92.69818376 58 86.25 C58.02835937 85.51136719 58.05671875 84.77273437 58.0859375 84.01171875 C56.96704717 78.06642862 52.06324543 73.70972645 47.91015625 69.58886719 C47.35029022 69.02549652 46.79042419 68.46212585 46.21359253 67.88168335 C44.37653274 66.0358785 42.5323229 64.19741841 40.6875 62.359375 C39.40213273 61.07265938 38.11706238 59.78564709 36.83227539 58.49835205 C34.14565372 55.80878923 31.45546657 53.12285858 28.76269531 50.43945312 C25.31255733 47.00073201 21.87150674 43.55307898 18.43305969 40.10267258 C15.78412662 37.4465133 13.13044957 34.79513491 10.47531128 32.14517975 C9.20438855 30.87559021 7.93494715 29.60451597 6.66702271 28.33193207 C4.89609152 26.55592073 3.11887378 24.78644838 1.33984375 23.01855469 C0.8181662 22.49282867 0.29648865 21.96710266 -0.24099731 21.42544556 C-4.00522589 17.70474217 -7.1622868 15.31816807 -12.5 14.875 C-18.19481927 14.98739775 -21.11727911 18.26166305 -25.0078125 22.09765625 C-25.78898437 22.91105469 -26.57015625 23.72445313 -27.375 24.5625 C-28.70710389 25.89706165 -30.04028282 27.23055195 -31.375 28.5625 C-31.91125 29.119375 -32.4475 29.67625 -33 30.25 C-35.28503624 32.43117096 -36.52051103 32.57597324 -39.75 32.875 C-43.375 32.5625 -43.375 32.5625 -45.8125 31 C-48.07659958 27.46800465 -48.1337407 25.70108566 -47.375 21.5625 C-45.4036091 18.53298235 -42.92571145 16.10864846 -40.375 13.5625 C-39.60285156 12.71945312 -38.83070313 11.87640625 -38.03515625 11.0078125 C-28.10894966 0.43867626 -14.52105377 -6.37509678 0 0 Z M-110.93702698 117.99754333 C-111.65497205 118.71314843 -111.65497205 118.71314843 -112.38742107 119.44321018 C-114.00360156 121.05537625 -115.61615378 122.67112424 -117.22875977 124.28686523 C-118.38139402 125.43814565 -119.53424117 126.58921296 -120.68728638 127.74008179 C-123.82791086 130.87612993 -126.9653428 134.01535426 -130.10209775 137.15527225 C-133.37711487 140.43281194 -136.65456067 143.70792152 -139.93162537 146.9834137 C-145.4356301 152.48559643 -150.93751678 157.98989052 -156.43823242 163.49536133 C-162.80803998 169.87061157 -169.1814422 176.24225115 -175.55672413 182.61202663 C-181.01925989 188.07003212 -186.47985402 193.52997442 -191.93881458 198.99155575 C-195.20405411 202.25835853 -198.46997551 205.52447192 -201.73764229 208.78884697 C-204.80879463 211.85712184 -207.8775118 214.92781117 -210.94432449 218.00042343 C-212.07385326 219.13128046 -213.20424497 220.26127628 -214.33553505 221.39037132 C-215.87265538 222.92478274 -217.40669981 224.4622025 -218.93995667 226.00047302 C-219.80145608 226.86234946 -220.66295549 227.7242259 -221.55056095 228.61221981 C-223.48885897 230.23911035 -223.48885897 230.23911035 -223.375 231.5625 C-212.96956138 234.80710908 -201.51765171 236.34598308 -191.375 231.5625 C-180.32406357 223.96809199 -171.25662807 213.4342458 -162.28027344 203.56542969 C-161.81942667 203.06067612 -161.3585799 202.55592255 -160.88376808 202.03587341 C-158.68828459 199.62529839 -156.52384653 197.19670241 -154.39889526 194.72351074 C-148.86083925 188.45612357 -143.66656957 184.55656126 -135.26309204 183.2288208 C-127.23304168 182.81468859 -121.71292276 185.98180495 -115.95703125 191.13500977 C-109.95480501 196.77798778 -104.18095425 202.65660165 -98.375 208.5 C-97.01455682 209.86546745 -95.65388169 211.23070386 -94.29296875 212.59570312 C-90.9842969 215.91530886 -87.67878678 219.23803273 -84.375 222.5625 C-78.82060076 217.93758621 -73.68974331 213.00889036 -68.59765625 207.8828125 C-67.38063271 206.66366653 -67.38063271 206.66366653 -66.13902283 205.41989136 C-63.5694741 202.84478262 -61.00344032 200.2662038 -58.4375 197.6875 C-56.68708071 195.93206054 -54.936432 194.17684983 -53.18554688 192.421875 C-48.91270698 188.13805918 -44.64274101 183.85139528 -40.375 179.5625 C-44.22404827 174.96304977 -48.20804404 170.58379157 -52.45629883 166.35180664 C-53.03102936 165.77532379 -53.60575989 165.19884094 -54.19790649 164.60488892 C-56.073463 162.72497703 -57.95259815 160.8486919 -59.83203125 158.97265625 C-61.14400087 157.66001233 -62.45582207 156.34722006 -63.76750183 155.0342865 C-66.50345509 152.29686532 -69.24119328 149.56124549 -71.98022461 146.8269043 C-75.49888618 143.31397345 -79.01299387 139.79652662 -82.52580738 136.27774906 C-85.22705628 133.57289888 -87.93066711 130.87041972 -90.63501549 128.16866875 C-91.93279199 126.87156097 -93.22982155 125.57370543 -94.52610207 124.27510262 C-96.32855896 122.47012267 -98.13416117 120.66835108 -99.94067383 118.86743164 C-100.47934586 118.32673538 -101.01801788 117.78603912 -101.57301331 117.22895813 C-106.33118061 112.49822107 -106.26682373 113.32938306 -110.93702698 117.99754333 Z M-139.03125 201.28515625 C-139.70800781 201.93371582 -140.38476562 202.58227539 -141.08203125 203.25048828 C-142.21705078 204.39493408 -142.21705078 204.39493408 -143.375 205.5625 C-144.26574219 206.43503418 -145.15648437 207.30756836 -146.07421875 208.20654297 C-149.03290067 211.11298542 -151.95501059 214.05477259 -154.875 217 C-155.89820139 218.0282298 -156.92163733 219.05622626 -157.9453125 220.08398438 C-160.42457999 222.57414338 -162.90067538 225.06742833 -165.375 227.5625 C-163.98419475 230.69988154 -162.36477796 232.81725281 -159.93505859 235.22949219 C-159.23448334 235.92991638 -158.53390808 236.63034058 -157.81210327 237.35198975 C-157.05684357 238.09692688 -156.30158386 238.84186401 -155.5234375 239.609375 C-154.74940582 240.38057678 -153.97537415 241.15177856 -153.17788696 241.9463501 C-150.70658077 244.40646856 -148.22840817 246.85953848 -145.75 249.3125 C-144.07245948 250.98000894 -142.39537055 252.64797232 -140.71875 254.31640625 C-136.60939081 258.4037237 -132.49437353 262.48527696 -128.375 266.5625 C-123.70625463 262.66273279 -119.28372191 258.61035356 -115.00390625 254.2890625 C-114.43671371 253.72045502 -113.86952118 253.15184753 -113.28514099 252.56600952 C-111.50020087 250.77553764 -109.71879744 248.98159516 -107.9375 247.1875 C-106.71703061 245.96200677 -105.49632947 244.73674428 -104.27539062 243.51171875 C-101.30591244 240.53130226 -98.33959743 237.54777106 -95.375 234.5625 C-101.08199932 227.75442899 -107.21223194 221.43463597 -113.4609375 215.12646484 C-114.74236078 213.82836999 -116.01837891 212.5249182 -117.2890625 211.21630859 C-119.13902004 209.31163266 -121.00485552 207.42389611 -122.875 205.5390625 C-123.43767578 204.95371735 -124.00035156 204.36837219 -124.58007812 203.76528931 C-127.2264262 201.13288858 -128.94923622 199.70233867 -132.55273438 198.51879883 C-135.86859364 198.57014302 -136.6975654 198.99673139 -139.03125 201.28515625 Z " fill="white" transform="translate(437.375,1.4375)"/>
<path d="M0 0 C2.4375 1.5625 2.4375 1.5625 4 4 C4.6875 7.25 4.6875 7.25 4 11 C-1.26357043 18.69291062 -8.99285064 25.31687628 -15.53369141 31.9387207 C-16.85084366 33.27762379 -18.16168462 34.6227634 -19.46630859 35.97387695 C-21.36942041 37.94388574 -23.29149431 39.89348344 -25.21875 41.83984375 C-25.79500122 42.44392563 -26.37125244 43.04800751 -26.96496582 43.6703949 C-30.77945117 47.46589603 -33.40343507 48.8748494 -39 49 C-41.64816011 48.21270916 -42.62884529 47.47719891 -44.3125 45.3125 C-45.31026065 41.95639601 -45.17443608 39.25296709 -44 36 C-41.74827912 32.91548623 -39.06209979 30.33968034 -36.31640625 27.6953125 C-35.54570297 26.93072723 -34.77499969 26.16614197 -33.98094177 25.37838745 C-31.52185481 22.94619148 -29.0424257 20.53592535 -26.5625 18.125 C-24.89647092 16.48049836 -23.23174159 14.83467884 -21.56835938 13.1875 C-18.52778039 10.18903781 -15.48572292 7.19228871 -12.42407227 4.21533203 C-11.80975845 3.61689484 -11.19544464 3.01845764 -10.56251526 2.40188599 C-7.24774694 -0.57211841 -4.33749364 -0.37392187 0 0 Z " fill="white" transform="translate(264,266)"/>
<path d="M0 0 C3.21142855 2.37366458 4.71584605 3.93442268 5.75 7.8125 C3.84013592 15.92942236 -5.56758155 22.72067406 -11.3125 28.4375 C-12.12267578 29.25154297 -12.93285156 30.06558594 -13.76757812 30.90429688 C-14.54166016 31.67708984 -15.31574219 32.44988281 -16.11328125 33.24609375 C-16.81235596 33.94404053 -17.51143066 34.6419873 -18.23168945 35.36108398 C-20.52543301 37.48698492 -21.68521749 37.958029 -24.8125 38.375 C-28 38 -28 38 -30.875 35.875 C-33 33 -33 33 -33.75 30.1875 C-31.84013592 22.07057764 -22.43241845 15.27932594 -16.6875 9.5625 C-15.87732422 8.74845703 -15.06714844 7.93441406 -14.23242188 7.09570312 C-13.45833984 6.32291016 -12.68425781 5.55011719 -11.88671875 4.75390625 C-11.18764404 4.05595947 -10.48856934 3.3580127 -9.76831055 2.63891602 C-6.60879945 -0.2894007 -4.24666455 -0.49960759 0 0 Z " fill="white" transform="translate(439,112)"/>
<path d="M0 0 C3.21142855 2.37366458 4.71584605 3.93442268 5.75 7.8125 C3.84013592 15.92942236 -5.56758155 22.72067406 -11.3125 28.4375 C-12.12267578 29.25154297 -12.93285156 30.06558594 -13.76757812 30.90429688 C-14.54166016 31.67708984 -15.31574219 32.44988281 -16.11328125 33.24609375 C-16.81235596 33.94404053 -17.51143066 34.6419873 -18.23168945 35.36108398 C-20.52543301 37.48698492 -21.68521749 37.958029 -24.8125 38.375 C-28 38 -28 38 -30.875 35.875 C-33 33 -33 33 -33.75 30.1875 C-31.84013592 22.07057764 -22.43241845 15.27932594 -16.6875 9.5625 C-15.87732422 8.74845703 -15.06714844 7.93441406 -14.23242188 7.09570312 C-13.45833984 6.32291016 -12.68425781 5.55011719 -11.88671875 4.75390625 C-11.18764404 4.05595947 -10.48856934 3.3580127 -9.76831055 2.63891602 C-6.60879945 -0.2894007 -4.24666455 -0.49960759 0 0 Z " fill="white" transform="translate(417,90)"/>
<path d="M0 0 C3.21142855 2.37366458 4.71584605 3.93442268 5.75 7.8125 C3.84013592 15.92942236 -5.56758155 22.72067406 -11.3125 28.4375 C-12.12267578 29.25154297 -12.93285156 30.06558594 -13.76757812 30.90429688 C-14.54166016 31.67708984 -15.31574219 32.44988281 -16.11328125 33.24609375 C-16.81235596 33.94404053 -17.51143066 34.6419873 -18.23168945 35.36108398 C-20.52543301 37.48698492 -21.68521749 37.958029 -24.8125 38.375 C-28 38 -28 38 -30.875 35.875 C-33 33 -33 33 -33.75 30.1875 C-31.84013592 22.07057764 -22.43241845 15.27932594 -16.6875 9.5625 C-15.87732422 8.74845703 -15.06714844 7.93441406 -14.23242188 7.09570312 C-13.45833984 6.32291016 -12.68425781 5.55011719 -11.88671875 4.75390625 C-11.18764404 4.05595947 -10.48856934 3.3580127 -9.76831055 2.63891602 C-6.60879945 -0.2894007 -4.24666455 -0.49960759 0 0 Z " fill="white" transform="translate(395,68)"/>
<path d="M0 0 C2.4375 1.5625 2.4375 1.5625 4 4 C4.6875 7.25 4.6875 7.25 4 11 C1.99071745 14.00210451 -0.4522449 16.4522449 -3 19 C-3.58652344 19.66902344 -4.17304688 20.33804687 -4.77734375 21.02734375 C-7.70936388 24.27849532 -9.39247368 25.82495004 -13.6875 27.0625 C-16.92227866 27.00146644 -18.46983813 26.96790367 -21 25 C-22.9685995 22.46894351 -23.00029553 21.01737299 -22.9453125 17.78515625 C-21.69381321 12.77398759 -19.27396724 10.5546339 -15.5625 7.125 C-14.96373047 6.54492188 -14.36496094 5.96484375 -13.74804688 5.3671875 C-9.10938073 0.92071693 -6.75678352 -0.58248134 0 0 Z " fill="white" transform="translate(170,360)"/>
<path d="M0 0 C2.81972931 2.36493426 2.97850831 3.8280665 3.4375 7.5 C3 11 3 11 1.5 13.4375 C-1.53037069 15.33148168 -3.55830934 15.64334247 -7.08984375 15.4453125 C-9 15 -9 15 -11.5625 12.9375 C-13.43625505 9.10852228 -13.12962701 7.06665724 -12 3 C-8.52941144 -1.52685464 -5.36496865 -1.22358934 0 0 Z " fill="white" transform="translate(90,404)"/>
<path d="M0 0 C2.59191186 1.69814915 2.96408796 2.8820033 3.875 5.875 C4.02405268 9.60131711 3.25133987 11.08159647 1 14 C-2.09173752 15.54586876 -4.59429552 15.29359521 -8 15 C-10.4375 13.5 -10.4375 13.5 -12 11 C-12.63282293 7.4259887 -12.7960262 4.1750863 -10.6875 1.0625 C-6.89137087 -1.32765538 -4.22097926 -1.05524482 0 0 Z " fill="white" transform="translate(74,435)"/>
</svg>
