<?xml version="1.0" encoding="UTF-8"?>
<svg version="1.1" xmlns="http://www.w3.org/2000/svg" width="512" height="512">
<path d="M0 0 C2 2.25 2 2.25 3 5 C2.5892159 9.50419109 1.32299118 12.73036079 -0.88671875 16.6484375 C-1.48838867 17.72416016 -2.09005859 18.79988281 -2.70996094 19.90820312 C-3.36254883 21.05224609 -4.01513672 22.19628906 -4.6875 23.375 C-5.36678388 24.57975526 -6.04548651 25.78483842 -6.72363281 26.99023438 C-11.16603878 34.86492734 -15.69361737 42.69078854 -20.25 50.5 C-20.81944336 51.47606201 -21.38888672 52.45212402 -21.97558594 53.45776367 C-24.73527863 58.17388985 -27.52140365 62.87113104 -30.35546875 67.54296875 C-30.87657227 68.41308594 -31.39767578 69.28320312 -31.93457031 70.1796875 C-32.90739037 71.80295061 -33.89172482 73.4193915 -34.88964844 75.02734375 C-35.53015137 76.10242188 -35.53015137 76.10242188 -36.18359375 77.19921875 C-36.56056396 77.81627686 -36.93753418 78.43333496 -37.32592773 79.0690918 C-38.57621192 82.65058315 -37.30419323 85.36075506 -35.73168945 88.6652832 C-35.19761475 89.61749756 -34.66354004 90.56971191 -34.11328125 91.55078125 C-33.51153076 92.62980713 -32.90978027 93.70883301 -32.28979492 94.82055664 C-31.63096312 95.98468863 -30.97185799 97.14866596 -30.3125 98.3125 C-29.63415378 99.52119671 -28.95618035 100.7301027 -28.27856445 101.93920898 C-23.82771563 109.85997785 -19.27788293 117.72179174 -14.6875 125.5625 C-13.82838013 127.03360229 -13.82838013 127.03360229 -12.9519043 128.53442383 C-9.70081002 134.10342789 -9.70081002 134.10342789 -6.42138672 139.65576172 C-4.97348012 142.09500263 -3.54716495 144.54568923 -2.125 147 C-1.70178467 147.69939697 -1.27856934 148.39879395 -0.8425293 149.11938477 C1.75465995 153.65990609 3.2749657 157.75133484 2 163 C0.11797233 167.36145132 -2.22461028 171.40585411 -4.625 175.5 C-5.31190493 176.69953494 -5.99734806 177.89990803 -6.68139648 179.10107422 C-8.43108777 182.16270873 -10.20128759 185.211828 -11.98077393 188.25622559 C-13.53209777 190.9103559 -15.07563789 193.56901219 -16.62109375 196.2265625 C-18.33350468 199.16584733 -20.04944174 202.1028218 -21.77539062 205.03417969 C-24.86632628 210.29157706 -27.89735363 215.57647052 -30.84765625 220.9140625 C-31.47986084 222.05601074 -32.11206543 223.19795898 -32.76342773 224.37451172 C-33.9760603 226.57331274 -35.18290537 228.77531866 -36.38305664 230.98095703 C-36.92953857 231.97208496 -37.47602051 232.96321289 -38.0390625 233.984375 C-38.51553223 234.85803711 -38.99200195 235.73169922 -39.48291016 236.63183594 C-41.19469922 239.30392379 -42.47830636 241.04027873 -45 243 C-47.90721692 243.40278405 -50.4409518 243.56441834 -53.34863281 243.54589844 C-54.18802399 243.55623611 -55.02741516 243.56657379 -55.89224243 243.57722473 C-58.66273161 243.6066886 -61.43249136 243.60815265 -64.203125 243.609375 C-66.12556352 243.62435424 -68.04798916 243.64108085 -69.97039795 243.65948486 C-75.02726833 243.70319935 -80.08396511 243.72316657 -85.14099121 243.73822021 C-90.30243208 243.7577765 -95.46368505 243.79974818 -100.625 243.83984375 C-110.7499421 243.91519027 -120.87484224 243.96545487 -131 244 C-131.38711655 244.69382782 -131.77423309 245.38765564 -132.17308044 246.10250854 C-133.967102 249.31637807 -135.76284054 252.52928524 -137.55859375 255.7421875 C-138.1671521 256.83297607 -138.77571045 257.92376465 -139.40270996 259.04760742 C-144.13166454 267.50434856 -148.98453405 275.88283482 -153.89027405 284.2379303 C-158.65448399 292.3523238 -163.27704312 300.5430686 -167.82641602 308.77978516 C-168.33100342 309.68390137 -168.83559082 310.58801758 -169.35546875 311.51953125 C-169.79528076 312.31464111 -170.23509277 313.10975098 -170.68823242 313.92895508 C-172.98273373 317.55155969 -172.98273373 317.55155969 -175 319 C-177.84967638 319.28061299 -180.47818223 319.37885291 -183.3269043 319.34057617 C-184.17590302 319.34101425 -185.02490173 319.34145233 -185.89962769 319.34190369 C-188.70805801 319.33981235 -191.51589261 319.31646514 -194.32421875 319.29296875 C-196.27048924 319.28737402 -198.21676394 319.28310334 -200.16304016 319.28010559 C-205.2874415 319.26864713 -210.41158805 319.23917129 -215.53588867 319.20599365 C-220.76412509 319.17531437 -225.99240265 319.16160483 -231.22070312 319.14648438 C-241.48058074 319.1143026 -251.74026919 319.0630941 -262 319 C-262.29640381 319.7636235 -262.59280762 320.52724701 -262.89819336 321.31401062 C-264.19842155 324.48371298 -265.82785429 327.31471998 -267.5625 330.26953125 C-267.91006851 330.86311935 -268.25763702 331.45670746 -268.61573792 332.06828308 C-269.74001687 333.98528977 -270.86968861 335.89904493 -272 337.8125 C-272.77728673 339.13344921 -273.55454901 340.4544128 -274.33178711 341.77539062 C-279.0584469 349.79288529 -283.84741924 357.76326 -288.8671875 365.6015625 C-290.36748628 367.95334545 -291.77193416 370.3383792 -293.1328125 372.7734375 C-293.48013428 373.38058594 -293.82745605 373.98773438 -294.18530273 374.61328125 C-295.11149272 376.24139013 -296.01574778 377.88192486 -296.91796875 379.5234375 C-299.65823771 382.78296943 -301.85312643 383.31352431 -306 384 C-310.05030837 382.54800266 -311.60038861 381.59941709 -314 378 C-313.924464 370.99025953 -311.43348371 366.73727801 -307.625 361 C-306.44971795 359.16884894 -305.27809277 357.33534762 -304.109375 355.5 C-303.46162109 354.48550781 -302.81386719 353.47101563 -302.14648438 352.42578125 C-297.90597839 345.70958122 -293.91429406 338.83819169 -289.875 332 C-289.03740962 330.58455405 -288.19968448 329.16918784 -287.36181641 327.75390625 C-286.20873386 325.80598153 -285.05592763 323.85789928 -283.90460205 321.90893555 C-282.38488302 319.33644975 -280.86573234 316.80201762 -279.18798828 314.328125 C-277.82118714 312.14128069 -277.82118714 312.14128069 -278.13208008 310.02832031 C-279.24067324 307.43754901 -280.51332167 305.00900366 -281.88671875 302.546875 C-282.48846924 301.46462646 -283.09021973 300.38237793 -283.71020508 299.26733398 C-284.36905958 298.0947523 -285.02816414 296.92231109 -285.6875 295.75 C-286.36562336 294.53662065 -287.04359995 293.32315927 -287.72143555 292.10961914 C-292.1675258 284.16942872 -296.71217994 276.28942881 -301.3125 268.4375 C-301.88524658 267.4568457 -302.45799316 266.47619141 -303.0480957 265.46582031 C-306.29912188 259.89665436 -306.29912188 259.89665436 -309.57861328 254.34423828 C-311.02651988 251.90499737 -312.45283505 249.45431077 -313.875 247 C-314.29821533 246.30060303 -314.72143066 245.60120605 -315.1574707 244.88061523 C-317.75465995 240.34009391 -319.2749657 236.24866516 -318 231 C-316.11797875 226.63856357 -313.77549615 222.594069 -311.375 218.5 C-310.69031078 217.30484941 -310.00706388 216.10887147 -309.32519531 214.91210938 C-307.57613853 211.85279426 -305.80650492 208.80600022 -304.02893066 205.76318359 C-302.43625984 203.03397047 -300.85590902 200.29763597 -299.2734375 197.5625 C-294.78367725 189.82839086 -290.28289277 182.10317609 -285.64453125 174.45703125 C-284.86287598 173.15185547 -284.86287598 173.15185547 -284.06542969 171.8203125 C-283.09260963 170.19704939 -282.10827518 168.5806085 -281.11035156 166.97265625 C-280.68334961 166.2559375 -280.25634766 165.53921875 -279.81640625 164.80078125 C-279.25095093 163.87519409 -279.25095093 163.87519409 -278.67407227 162.9309082 C-277.42378808 159.34941685 -278.69580677 156.63924494 -280.26831055 153.3347168 C-281.06942261 151.90639526 -281.06942261 151.90639526 -281.88671875 150.44921875 C-282.48871094 149.36970947 -283.09070313 148.2902002 -283.7109375 147.17797852 C-284.3694946 146.01431751 -285.02835609 144.85082872 -285.6875 143.6875 C-286.36363315 142.48318904 -287.03940972 141.27867781 -287.71484375 140.07397461 C-293.29616068 130.14484789 -299.00959764 120.29223295 -304.78125 110.47265625 C-305.55855469 109.14838623 -305.55855469 109.14838623 -306.3515625 107.79736328 C-307.54856583 105.76607416 -308.75262636 103.73893855 -309.9609375 101.71435547 C-310.60289062 100.6317041 -311.24484375 99.54905273 -311.90625 98.43359375 C-312.79280273 96.9475061 -312.79280273 96.9475061 -313.69726562 95.43139648 C-315 93 -315 93 -315 91 C-316.17057953 91.01332367 -316.17057953 91.01332367 -317.36480713 91.0269165 C-324.7215982 91.10708675 -332.07817729 91.16797631 -339.43529129 91.20724869 C-343.21762995 91.22811795 -346.99960747 91.25642248 -350.78173828 91.30175781 C-354.43220312 91.34524074 -358.08232076 91.36914209 -361.7330246 91.37950897 C-363.12531754 91.3868961 -364.51759162 91.40132175 -365.90973663 91.42292023 C-367.86053411 91.45198041 -369.81168146 91.45363412 -371.76269531 91.45410156 C-373.42815399 91.46742523 -373.42815399 91.46742523 -375.1272583 91.48101807 C-378.65925174 90.88961347 -379.81972626 89.78160012 -382 87 C-382.53125 85 -382.53125 85 -382.5 83 C-382.51546875 82.01 -382.51546875 82.01 -382.53125 81 C-381.74900152 78.05506454 -380.35546262 76.90243976 -378 75 C-375.1272583 74.51898193 -375.1272583 74.51898193 -371.76269531 74.54589844 C-370.50169006 74.54620056 -369.24068481 74.54650269 -367.94146729 74.54681396 C-366.57034674 74.56723895 -365.19923267 74.58810291 -363.828125 74.609375 C-362.42137456 74.61683883 -361.01461369 74.6225311 -359.60784912 74.62652588 C-355.91191718 74.6417714 -352.21661773 74.68104269 -348.52093506 74.7253418 C-344.74711665 74.76631857 -340.97319568 74.78454196 -337.19921875 74.8046875 C-329.79919136 74.84753901 -322.39968443 74.91577595 -315 75 C-314.54491058 73.83927727 -314.54491058 73.83927727 -314.08062744 72.65510559 C-312.97181092 69.93073932 -311.67256459 67.45161709 -310.234375 64.88671875 C-309.40450073 63.40389404 -309.40450073 63.40389404 -308.55786133 61.89111328 C-307.96126709 60.8339209 -307.36467285 59.77672852 -306.75 58.6875 C-306.12955811 57.58390137 -305.50911621 56.48030273 -304.86987305 55.34326172 C-299.45629154 45.74475168 -293.92322781 36.21775025 -288.34375 26.71484375 C-286.13361188 22.94878375 -283.94629469 19.17106734 -281.78125 15.37890625 C-281.27875732 14.50089355 -280.77626465 13.62288086 -280.25854492 12.71826172 C-279.32255565 11.08016198 -278.39018267 9.4399884 -277.4621582 7.79736328 C-277.04796631 7.07403809 -276.63377441 6.35071289 -276.20703125 5.60546875 C-275.8510083 4.97793701 -275.49498535 4.35040527 -275.12817383 3.70385742 C-273.88507371 1.82642922 -272.72322829 0.45626454 -271 -1 C-267.90431435 -1.30690064 -265.00838646 -1.43023184 -261.91040039 -1.41992188 C-260.51486687 -1.43262619 -260.51486687 -1.43262619 -259.09114075 -1.44558716 C-256.00984093 -1.46902308 -252.92903852 -1.46997774 -249.84765625 -1.46875 C-247.70918069 -1.47584759 -245.57070705 -1.48354599 -243.43223572 -1.49182129 C-238.94736438 -1.50528127 -234.46266911 -1.50682803 -229.9777832 -1.50097656 C-224.22606186 -1.49507913 -218.47518423 -1.52566728 -212.72362614 -1.56609344 C-208.30642635 -1.59192339 -203.88943097 -1.59485212 -199.47216606 -1.59120178 C-197.35143348 -1.59289744 -195.2306919 -1.6025826 -193.11003304 -1.62034607 C-190.14577651 -1.64244252 -187.18324397 -1.6328811 -184.21899414 -1.61523438 C-182.90112915 -1.63512924 -182.90112915 -1.63512924 -181.55664062 -1.65542603 C-175.59745197 -1.57285272 -175.59745197 -1.57285272 -172.52812195 1.37010193 C-171.77170158 2.67190147 -171.77170158 2.67190147 -171 4 C-170.44924805 4.88888916 -169.89849609 5.77777832 -169.33105469 6.69360352 C-168.78352539 7.66225342 -168.23599609 8.63090332 -167.671875 9.62890625 C-166.73118164 11.2847876 -166.73118164 11.2847876 -165.77148438 12.97412109 C-165.09761263 14.17022282 -164.42378565 15.36634977 -163.75 16.5625 C-163.0453821 17.80576225 -162.34029583 19.04875915 -161.63476562 20.29150391 C-160.16421202 22.88260942 -158.69569481 25.4748535 -157.22851562 28.06787109 C-154.00749047 33.75641274 -150.75984612 39.42972527 -147.51330566 45.10372925 C-145.91404027 47.8992648 -144.31646573 50.69576607 -142.71875 53.4921875 C-141.47917619 55.66146378 -140.23959224 57.83073426 -139 60 C-138.29561306 61.23267587 -137.59122667 62.46535207 -136.88684082 63.69802856 C-136.53788757 64.30869675 -136.18893433 64.91936493 -135.82940674 65.54853821 C-134.21960449 68.36569214 -132.60980225 71.18284607 -131 74 C-121.33497684 74.55924973 -111.67559812 74.98391763 -101.99786186 75.24349213 C-97.50167219 75.36818729 -93.01662266 75.53663262 -88.52685547 75.81054688 C-69.42514078 77.75071204 -69.42514078 77.75071204 -52.06066895 71.76831055 C-47.26099237 66.13813481 -44.51021832 59.789608 -42.04840088 52.8684082 C-40.73783143 49.28271093 -39.0434475 46.28831938 -37.0625 43.03125 C-36.04039742 41.18820332 -35.01951739 39.34447799 -34 37.5 C-32.26406096 34.39549275 -30.52466292 31.29293906 -28.78515625 28.19042969 C-27.55985666 26.00057533 -26.3387192 23.80838849 -25.12109375 21.61425781 C-23.26325747 18.27530257 -21.38405633 14.94921452 -19.5 11.625 C-18.93667969 10.60212891 -18.37335938 9.57925781 -17.79296875 8.52539062 C-13.3713356 0.79544724 -9.30922713 -4.21549908 0 0 Z M-264.85375977 19.20117188 C-265.61984639 20.77714072 -266.34064571 22.37647962 -267 24 C-267.60585938 25.02939697 -268.21171875 26.05879395 -268.8359375 27.11938477 C-269.34382813 28.05065186 -269.85171875 28.98191895 -270.375 29.94140625 C-270.96112061 31.00842773 -271.54724121 32.07544922 -272.15112305 33.17480469 C-272.76125244 34.29274414 -273.37138184 35.41068359 -274 36.5625 C-275.31538521 38.95643546 -276.6351773 41.34791216 -277.95703125 43.73828125 C-278.29031937 44.34102875 -278.62360748 44.94377625 -278.96699524 45.56478882 C-283.53215249 53.79450296 -288.3057242 61.90252198 -293.07421875 70.015625 C-293.82517822 71.30823242 -293.82517822 71.30823242 -294.59130859 72.62695312 C-295.47756159 74.11991311 -296.39350634 75.59602335 -297.35009766 77.04492188 C-298.67961898 79.02034979 -298.67961898 79.02034979 -300 82 C-298.8441949 85.76644513 -296.92333124 89.11580561 -295.015625 92.55078125 C-294.41685547 93.63029053 -293.81808594 94.7097998 -293.20117188 95.82202148 C-292.2353418 97.54980835 -292.2353418 97.54980835 -291.25 99.3125 C-290.92008057 99.90459259 -290.59016113 100.49668518 -290.25024414 101.10671997 C-283.86736175 112.55975193 -277.30119574 123.90263512 -270.64453125 135.19873047 C-268.21114529 139.34372311 -265.80593441 143.505057 -263.40039062 147.66625977 C-262.19947366 149.88135663 -262.19947366 149.88135663 -261 151 C-258.69334851 151.18421204 -256.38099732 151.29721901 -254.06860352 151.38330078 C-252.98057182 151.42448029 -252.98057182 151.42448029 -251.87055969 151.4664917 C-245.15174257 151.70698726 -238.43053992 151.84998766 -231.70848179 151.96293831 C-227.19267817 152.0402892 -222.68284435 152.1497454 -218.17016602 152.33740234 C-199.75596963 153.99368594 -199.75596963 153.99368594 -182.48352051 149.49487305 C-178.73768203 145.69236568 -177.12172929 141.30485458 -175.69735718 136.23895264 C-174.61927058 132.77762048 -172.84846435 130.03877212 -170.9453125 126.953125 C-168.98567708 123.52068893 -167.03127552 120.08532382 -165.08032227 116.64794922 C-164.39097395 115.43446452 -163.70143987 114.22108534 -163.01171875 113.0078125 C-162.67501663 112.41543793 -162.33831451 111.82306335 -161.9914093 111.21273804 C-159.79547042 107.36163806 -157.54809614 103.54488219 -155.26953125 99.7421875 C-154.70411621 98.78795898 -154.13870117 97.83373047 -153.55615234 96.85058594 C-152.50624653 95.08269023 -151.44347693 93.3223468 -150.36572266 91.57128906 C-149.90343262 90.7872168 -149.44114258 90.00314453 -148.96484375 89.1953125 C-148.35564087 88.19008545 -148.35564087 88.19008545 -147.73413086 87.16455078 C-146.37105262 83.14557782 -147.5671038 79.91480252 -149.32836914 76.19287109 C-150.17322876 74.74775146 -150.17322876 74.74775146 -151.03515625 73.2734375 C-151.67219482 72.17225586 -152.3092334 71.07107422 -152.96557617 69.93652344 C-153.66441917 68.74927148 -154.36339714 67.56209896 -155.0625 66.375 C-155.78000235 65.14150241 -156.49653981 63.9074431 -157.2121582 62.67285156 C-158.70784417 60.09392392 -160.20771324 57.51749294 -161.70996094 54.94238281 C-163.97892651 51.04538194 -166.21652185 47.13102401 -168.4453125 43.2109375 C-168.80344528 42.58138153 -169.16157806 41.95182556 -169.53056335 41.30319214 C-170.91996487 38.86011214 -172.30883985 36.41673406 -173.69680786 33.97283936 C-174.65431232 32.28825562 -175.61423012 30.60504433 -176.57421875 28.921875 C-177.11651123 27.96893555 -177.65880371 27.01599609 -178.2175293 26.03417969 C-178.80574463 25.03290039 -179.39395996 24.03162109 -180 23 C-180.24135178 22.30395157 -180.48270355 21.60790314 -180.73136902 20.89076233 C-181.85621915 18.22870905 -182.73932817 16.83034318 -185 15 C-190.61033684 13.73485249 -196.1742505 13.84864061 -201.90234375 13.90234375 C-203.58477435 13.89441049 -205.26719578 13.88425025 -206.94960022 13.8719635 C-210.47308762 13.85567103 -213.99495452 13.86876446 -217.51831055 13.90209961 C-222.02672053 13.94206364 -226.53069782 13.90548671 -231.038764 13.84632015 C-234.51269117 13.80983675 -237.98556688 13.81595152 -241.45959663 13.83459663 C-243.12094422 13.83807624 -244.78237918 13.82799113 -246.44355583 13.80390739 C-256.96332168 13.27920836 -256.96332168 13.27920836 -264.85375977 19.20117188 Z M-136.80638123 96.46432495 C-138.30409638 99.49133416 -139.38918204 102.51224552 -140.30264282 105.76104736 C-141.38072942 109.22237952 -143.15153565 111.96122788 -145.0546875 115.046875 C-147.01432292 118.47931107 -148.96872448 121.91467618 -150.91967773 125.35205078 C-151.60902605 126.56553548 -152.29856013 127.77891466 -152.98828125 128.9921875 C-153.32498337 129.58456207 -153.66168549 130.17693665 -154.0085907 130.78726196 C-156.20452958 134.63836194 -158.45190386 138.45511781 -160.73046875 142.2578125 C-161.29588379 143.21204102 -161.86129883 144.16626953 -162.44384766 145.14941406 C-163.49375347 146.91730977 -164.55652307 148.6776532 -165.63427734 150.42871094 C-166.3277124 151.60481934 -166.3277124 151.60481934 -167.03515625 152.8046875 C-167.4412915 153.47483887 -167.84742676 154.14499023 -168.26586914 154.83544922 C-169.62894738 158.85442218 -168.4328962 162.08519748 -166.67163086 165.80712891 C-165.82677124 167.25224854 -165.82677124 167.25224854 -164.96484375 168.7265625 C-164.32780518 169.82774414 -163.6907666 170.92892578 -163.03442383 172.06347656 C-162.33558083 173.25072852 -161.63660286 174.43790104 -160.9375 175.625 C-160.21999765 176.85849759 -159.50346019 178.0925569 -158.7878418 179.32714844 C-157.29215583 181.90607608 -155.79228676 184.48250706 -154.29003906 187.05761719 C-152.02107349 190.95461806 -149.78347815 194.86897599 -147.5546875 198.7890625 C-147.19655472 199.41861847 -146.83842194 200.04817444 -146.46943665 200.69680786 C-145.08003513 203.13988786 -143.69116015 205.58326594 -142.30319214 208.02716064 C-141.34568768 209.71174438 -140.38576988 211.39495567 -139.42578125 213.078125 C-138.61234253 214.50753418 -138.61234253 214.50753418 -137.7824707 215.96582031 C-137.19425537 216.96709961 -136.60604004 217.96837891 -136 219 C-135.63797234 220.04407265 -135.63797234 220.04407265 -135.26863098 221.10923767 C-134.14378085 223.77129095 -133.26067183 225.16965682 -131 227 C-125.38966316 228.26514751 -119.8257495 228.15135939 -114.09765625 228.09765625 C-112.41522565 228.10558951 -110.73280422 228.11574975 -109.05039978 228.1280365 C-105.52691238 228.14432897 -102.00504548 228.13123554 -98.48168945 228.09790039 C-93.97327947 228.05793636 -89.46930218 228.09451329 -84.961236 228.15367985 C-81.48730883 228.19016325 -78.01443312 228.18404848 -74.54040337 228.16540337 C-72.87905578 228.16192376 -71.21762082 228.17200887 -69.55644417 228.19609261 C-60.58784814 228.61212797 -60.58784814 228.61212797 -52.73361206 225.12754822 C-51.1536008 222.80962629 -50.05361696 220.59430874 -49 218 C-48.39414062 216.97060303 -47.78828125 215.94120605 -47.1640625 214.88061523 C-46.65617187 213.94934814 -46.14828125 213.01808105 -45.625 212.05859375 C-45.03887939 210.99157227 -44.45275879 209.92455078 -43.84887695 208.82519531 C-43.23874756 207.70725586 -42.62861816 206.58931641 -42 205.4375 C-40.68461479 203.04356454 -39.3648227 200.65208784 -38.04296875 198.26171875 C-37.70968063 197.65897125 -37.37639252 197.05622375 -37.03300476 196.43521118 C-32.46784751 188.20549704 -27.6942758 180.09747802 -22.92578125 171.984375 C-22.4251416 171.12263672 -21.92450195 170.26089844 -21.40869141 169.37304688 C-20.52243841 167.88008689 -19.60649366 166.40397665 -18.64990234 164.95507812 C-17.32038102 162.97965021 -17.32038102 162.97965021 -16 160 C-17.1558051 156.23355487 -19.07666876 152.88419439 -20.984375 149.44921875 C-21.58314453 148.36970947 -22.18191406 147.2902002 -22.79882812 146.17797852 C-23.44271484 145.02612061 -24.08660156 143.8742627 -24.75 142.6875 C-25.24487915 141.79936111 -25.24487915 141.79936111 -25.74975586 140.89328003 C-32.13263825 129.44024807 -38.69880426 118.09736488 -45.35546875 106.80126953 C-47.78885471 102.65627689 -50.19406559 98.494943 -52.59960938 94.33374023 C-53.80052634 92.11864337 -53.80052634 92.11864337 -55 91 C-57.30665149 90.81578796 -59.61900268 90.70278099 -61.93139648 90.61669922 C-62.65675095 90.58924622 -63.38210541 90.56179321 -64.12944031 90.5335083 C-70.84825743 90.29301274 -77.56946008 90.15001234 -84.29151821 90.03706169 C-88.80732183 89.9597108 -93.31715565 89.8502546 -97.82983398 89.66259766 C-119.35635043 87.41236264 -119.35635043 87.41236264 -136.80638123 96.46432495 Z M-264.85375977 171.20117188 C-265.61984639 172.77714072 -266.34064571 174.37647962 -267 176 C-267.60585938 177.02939697 -268.21171875 178.05879395 -268.8359375 179.11938477 C-269.34382813 180.05065186 -269.85171875 180.98191895 -270.375 181.94140625 C-270.96112061 183.00842773 -271.54724121 184.07544922 -272.15112305 185.17480469 C-272.76125244 186.29274414 -273.37138184 187.41068359 -274 188.5625 C-275.31538521 190.95643546 -276.6351773 193.34791216 -277.95703125 195.73828125 C-278.29031937 196.34102875 -278.62360748 196.94377625 -278.96699524 197.56478882 C-283.53215249 205.79450296 -288.3057242 213.90252198 -293.07421875 222.015625 C-293.82517822 223.30823242 -293.82517822 223.30823242 -294.59130859 224.62695312 C-295.47756159 226.11991311 -296.39350634 227.59602335 -297.35009766 229.04492188 C-298.67961898 231.02034979 -298.67961898 231.02034979 -300 234 C-298.8441949 237.76644513 -296.92333124 241.11580561 -295.015625 244.55078125 C-294.41685547 245.63029053 -293.81808594 246.7097998 -293.20117188 247.82202148 C-292.2353418 249.54980835 -292.2353418 249.54980835 -291.25 251.3125 C-290.92008057 251.90459259 -290.59016113 252.49668518 -290.25024414 253.10671997 C-283.86736175 264.55975193 -277.30119574 275.90263512 -270.64453125 287.19873047 C-268.21114529 291.34372311 -265.80593441 295.505057 -263.40039062 299.66625977 C-262.19947366 301.88135663 -262.19947366 301.88135663 -261 303 C-258.69334851 303.18421204 -256.38099732 303.29721901 -254.06860352 303.38330078 C-252.98057182 303.42448029 -252.98057182 303.42448029 -251.87055969 303.4664917 C-245.15174257 303.70698726 -238.43053992 303.84998766 -231.70848179 303.96293831 C-227.19267817 304.0402892 -222.68284435 304.1497454 -218.17016602 304.33740234 C-199.75596963 305.99368594 -199.75596963 305.99368594 -182.48352051 301.49487305 C-178.73768203 297.69236568 -177.12172929 293.30485458 -175.69735718 288.23895264 C-174.61927058 284.77762048 -172.84846435 282.03877212 -170.9453125 278.953125 C-168.98567708 275.52068893 -167.03127552 272.08532382 -165.08032227 268.64794922 C-164.39097395 267.43446452 -163.70143987 266.22108534 -163.01171875 265.0078125 C-162.67501663 264.41543793 -162.33831451 263.82306335 -161.9914093 263.21273804 C-159.79547042 259.36163806 -157.54809614 255.54488219 -155.26953125 251.7421875 C-154.70411621 250.78795898 -154.13870117 249.83373047 -153.55615234 248.85058594 C-152.50624653 247.08269023 -151.44347693 245.3223468 -150.36572266 243.57128906 C-149.90343262 242.7872168 -149.44114258 242.00314453 -148.96484375 241.1953125 C-148.35564087 240.19008545 -148.35564087 240.19008545 -147.73413086 239.16455078 C-146.37105262 235.14557782 -147.5671038 231.91480252 -149.32836914 228.19287109 C-150.17322876 226.74775146 -150.17322876 226.74775146 -151.03515625 225.2734375 C-151.67219482 224.17225586 -152.3092334 223.07107422 -152.96557617 221.93652344 C-153.66441917 220.74927148 -154.36339714 219.56209896 -155.0625 218.375 C-155.78000235 217.14150241 -156.49653981 215.9074431 -157.2121582 214.67285156 C-158.70784417 212.09392392 -160.20771324 209.51749294 -161.70996094 206.94238281 C-163.97892651 203.04538194 -166.21652185 199.13102401 -168.4453125 195.2109375 C-168.80344528 194.58138153 -169.16157806 193.95182556 -169.53056335 193.30319214 C-170.91996487 190.86011214 -172.30883985 188.41673406 -173.69680786 185.97283936 C-174.65431232 184.28825562 -175.61423012 182.60504433 -176.57421875 180.921875 C-177.11651123 179.96893555 -177.65880371 179.01599609 -178.2175293 178.03417969 C-178.80574463 177.03290039 -179.39395996 176.03162109 -180 175 C-180.24135178 174.30395157 -180.48270355 173.60790314 -180.73136902 172.89076233 C-181.85621915 170.22870905 -182.73932817 168.83034318 -185 167 C-190.61033684 165.73485249 -196.1742505 165.84864061 -201.90234375 165.90234375 C-203.58477435 165.89441049 -205.26719578 165.88425025 -206.94960022 165.8719635 C-210.47308762 165.85567103 -213.99495452 165.86876446 -217.51831055 165.90209961 C-222.02672053 165.94206364 -226.53069782 165.90548671 -231.038764 165.84632015 C-234.51269117 165.80983675 -237.98556688 165.81595152 -241.45959663 165.83459663 C-243.12094422 165.83807624 -244.78237918 165.82799113 -246.44355583 165.80390739 C-256.96332168 165.27920836 -256.96332168 165.27920836 -264.85375977 171.20117188 Z " fill="#42A5F5" transform="translate(446,65)"/>
<path d="M0 0 C2.9375 2.0625 2.9375 2.0625 5 5 C5.48427994 10.21984592 4.72002969 13.3674903 2.140625 17.88671875 C1.52501709 18.98121338 0.90940918 20.07570801 0.27514648 21.20336914 C-0.39905531 22.36523802 -1.07412196 23.52660542 -1.75 24.6875 C-2.43566169 25.88550182 -3.12046855 27.08399328 -3.80444336 28.28295898 C-5.18883979 30.70234173 -6.58336661 33.11546847 -7.98583984 35.52441406 C-9.8412621 38.71487966 -11.65165681 41.92935589 -13.45703125 45.1484375 C-14.49033294 46.9541875 -15.52537509 48.75894314 -16.5625 50.5625 C-17.0255957 51.39418701 -17.48869141 52.22587402 -17.96582031 53.08276367 C-20.09546667 56.70339345 -21.30227982 58.6410471 -25.10546875 60.59765625 C-29.20040086 61.16685734 -31.46398061 60.04001118 -35 58 C-36.5 56.1875 -36.5 56.1875 -37 54 C-36.53479472 49.4217189 -35.26257872 46.16546298 -33.0078125 42.17578125 C-32.0811377 40.52147095 -32.0811377 40.52147095 -31.13574219 38.83374023 C-30.46590563 37.65975898 -29.79565005 36.48601672 -29.125 35.3125 C-28.44374257 34.1071874 -27.76308291 32.90153675 -27.08300781 31.69555664 C-25.71563456 29.27521107 -24.34236108 26.8583644 -22.96386719 24.44433594 C-21.18583594 21.32592906 -19.42266459 18.19970034 -17.6640625 15.0703125 C-16.69374221 13.35878845 -15.72245956 11.64780946 -14.75 9.9375 C-14.30930176 9.1535083 -13.86860352 8.3695166 -13.41455078 7.56176758 C-13.00446777 6.84915771 -12.59438477 6.13654785 -12.171875 5.40234375 C-11.8222168 4.78866943 -11.47255859 4.17499512 -11.11230469 3.54272461 C-8.11477557 -0.61473512 -4.71487494 -0.56903663 0 0 Z " fill="#90CAF9" transform="translate(201,248)"/>
<path d="M0 0 C1.14799072 -0.01260864 2.29598145 -0.02521729 3.47875977 -0.03820801 C4.71424561 -0.03011108 5.94973145 -0.02201416 7.22265625 -0.01367188 C8.49488037 -0.01749878 9.76710449 -0.02132568 11.07788086 -0.02526855 C13.76829452 -0.02799114 16.45725496 -0.02262001 19.14746094 -0.00390625 C22.5911037 0.01888451 26.03349952 0.00575844 29.47709656 -0.01819611 C32.76732753 -0.0361474 36.057409 -0.02356908 39.34765625 -0.01367188 C40.58314209 -0.0217688 41.81862793 -0.02986572 43.09155273 -0.03820801 C44.81353882 -0.01929504 44.81353882 -0.01929504 46.5703125 0 C47.579729 0.00318237 48.58914551 0.00636475 49.62915039 0.00964355 C52.98738793 0.65187291 54.17565949 1.88370319 56.28515625 4.51757812 C56.81640625 6.51757812 56.81640625 6.51757812 56.78515625 8.51757812 C56.800625 9.50757813 56.800625 9.50757813 56.81640625 10.51757812 C56.03931982 13.44307997 54.60711219 14.61188626 52.28515625 16.51757812 C49.62915039 17.0255127 49.62915039 17.0255127 46.5703125 17.03515625 C44.84832642 17.05406921 44.84832642 17.05406921 43.09155273 17.07336426 C41.85606689 17.06526733 40.62058105 17.05717041 39.34765625 17.04882812 C38.07543213 17.05265503 36.80320801 17.05648193 35.49243164 17.0604248 C32.80201798 17.06314739 30.11305754 17.05777626 27.42285156 17.0390625 C23.9792088 17.01627174 20.53681298 17.02939781 17.09321594 17.05335236 C13.80298497 17.07130365 10.5129035 17.05872533 7.22265625 17.04882812 C5.98717041 17.05692505 4.75168457 17.06502197 3.47875977 17.07336426 C2.33076904 17.06075562 1.18277832 17.04814697 0 17.03515625 C-1.0094165 17.03197388 -2.01883301 17.0287915 -3.05883789 17.0255127 C-6.41707543 16.38328334 -7.60534699 15.15145306 -9.71484375 12.51757812 C-10.24609375 10.51757812 -10.24609375 10.51757812 -10.21484375 8.51757812 C-10.2303125 7.52757812 -10.2303125 7.52757812 -10.24609375 6.51757812 C-8.83259455 1.19616936 -5.02869866 0.01585391 0 0 Z " fill="#90CAF9" transform="translate(329.71484375,259.482421875)"/>
<path d="M0 0 C1.14799072 -0.01260864 2.29598145 -0.02521729 3.47875977 -0.03820801 C4.71424561 -0.03011108 5.94973145 -0.02201416 7.22265625 -0.01367188 C8.49488037 -0.01749878 9.76710449 -0.02132568 11.07788086 -0.02526855 C13.76829452 -0.02799114 16.45725496 -0.02262001 19.14746094 -0.00390625 C22.5911037 0.01888451 26.03349952 0.00575844 29.47709656 -0.01819611 C32.76732753 -0.0361474 36.057409 -0.02356908 39.34765625 -0.01367188 C40.58314209 -0.0217688 41.81862793 -0.02986572 43.09155273 -0.03820801 C44.81353882 -0.01929504 44.81353882 -0.01929504 46.5703125 0 C47.579729 0.00318237 48.58914551 0.00636475 49.62915039 0.00964355 C52.98738793 0.65187291 54.17565949 1.88370319 56.28515625 4.51757812 C56.81640625 6.51757812 56.81640625 6.51757812 56.78515625 8.51757812 C56.800625 9.50757812 56.800625 9.50757812 56.81640625 10.51757812 C56.03931982 13.44307997 54.60711219 14.61188626 52.28515625 16.51757812 C49.62915039 17.0255127 49.62915039 17.0255127 46.5703125 17.03515625 C44.84832642 17.05406921 44.84832642 17.05406921 43.09155273 17.07336426 C41.85606689 17.06526733 40.62058105 17.05717041 39.34765625 17.04882812 C38.07543213 17.05265503 36.80320801 17.05648193 35.49243164 17.0604248 C32.80201798 17.06314739 30.11305754 17.05777626 27.42285156 17.0390625 C23.9792088 17.01627174 20.53681298 17.02939781 17.09321594 17.05335236 C13.80298497 17.07130365 10.5129035 17.05872533 7.22265625 17.04882812 C5.98717041 17.05692505 4.75168457 17.06502197 3.47875977 17.07336426 C2.33076904 17.06075562 1.18277832 17.04814697 0 17.03515625 C-1.0094165 17.03197388 -2.01883301 17.0287915 -3.05883789 17.0255127 C-6.41707543 16.38328334 -7.60534699 15.15145306 -9.71484375 12.51757812 C-10.24609375 10.51757812 -10.24609375 10.51757812 -10.21484375 8.51757812 C-10.2303125 7.52757813 -10.2303125 7.52757813 -10.24609375 6.51757812 C-8.83259455 1.19616936 -5.02869866 0.01585391 0 0 Z " fill="#90CAF9" transform="translate(199.71484375,95.482421875)"/>
</svg>
