<?xml version="1.0" encoding="UTF-8"?>
<svg version="1.1" xmlns="http://www.w3.org/2000/svg" width="512" height="512">
<path d="M0 0 C2.99442466 1.24767694 4.41890772 2.05005836 6.1015625 4.80078125 C7.12629083 7.309138 7.33332588 9.23284935 7.375 11.9375 C7.40335937 12.77152344 7.43171875 13.60554687 7.4609375 14.46484375 C6.44101535 20.07441556 1.91211914 23.00567921 -2.5 26.125 C-25.0842907 42.6554845 -46.50385563 64.82359996 -51.27050781 93.36474609 C-52.55295069 102.7428777 -51.16497257 110.83734358 -49 120 C-48.65749945 121.99845052 -48.32270306 123.9982573 -48 126 C-47.28824018 125.99723462 -46.57648035 125.99446924 -45.84315205 125.99162006 C-28.52512766 125.92536942 -11.20713546 125.87572391 6.11098766 125.84456348 C14.4859033 125.82909404 22.86073435 125.80800307 31.2355957 125.77368164 C38.53505663 125.74378162 45.83445629 125.72442556 53.13397676 125.71773452 C56.99910046 125.71382326 60.8640489 125.70462978 64.72911644 125.68280983 C68.36769651 125.66243508 72.00602925 125.65616814 75.64466095 125.66067696 C77.61539871 125.65945918 79.58610959 125.64332218 81.55677795 125.6267395 C83.32143906 125.63292549 83.32143906 125.63292549 85.12174988 125.63923645 C86.14217471 125.63647107 87.16259954 125.63370569 88.21394634 125.63085651 C91.49981825 126.06622437 93.34429841 127.04146081 96 129 C98.36270192 132.54405288 98.71333497 134.77169086 99 139 C98.02922902 143.50084727 96.56701837 146.08153042 93 149 C90.02338831 149.9922039 88.04004382 150.13621809 84.93171692 150.15821838 C83.88423782 150.1680072 82.83675873 150.17779602 81.75753784 150.18788147 C80.60883209 150.19363693 79.46012634 150.1993924 78.27661133 150.20532227 C77.0667305 150.21522186 75.85684967 150.22512146 74.61030579 150.23532104 C71.29241269 150.26151452 67.97454373 150.2833742 64.65661073 150.30332303 C61.18923494 150.32518984 57.72190288 150.35257513 54.25456238 150.37937927 C47.68856588 150.42929676 41.12254509 150.47423909 34.55650109 150.51740164 C27.08133331 150.56678208 19.60620942 150.62169722 12.13108408 150.67708123 C-3.24590339 150.79088678 -18.62293122 150.89772892 -34 151 C-32.56130511 152.77155667 -31.12076546 154.5416153 -29.67944336 156.31103516 C-28.87744003 157.29689606 -28.07543671 158.28275696 -27.24913025 159.29849243 C-6.53356602 184.18066792 26.91185395 199.88306031 55.75 213.0625 C95.30881893 231.25623841 135.18555204 261.1892823 151.375 302.9375 C155.73895078 314.98605408 157.24182635 326.90917077 157.375 339.6875 C157.38901855 340.62029785 157.40303711 341.5530957 157.41748047 342.51416016 C157.37362685 348.69752083 156.72423713 353.28152236 152.15234375 357.84375 C148.02346335 360.06180553 143.53254563 359.74535195 139 359 C135.875 356.5625 135.875 356.5625 134 354 C133.67 353.67 133.34 353.34 133 353 C132.8415735 350.9291528 132.74875578 348.85321971 132.68359375 346.77734375 C132.62075195 344.88725586 132.62075195 344.88725586 132.55664062 342.95898438 C132.51682404 341.61849264 132.47711186 340.2779978 132.4375 338.9375 C132.39431958 337.59308477 132.35070544 336.2486834 132.30664062 334.90429688 C132.20014642 331.6029766 132.0981354 328.30157764 132 325 C130.93512564 325.00276538 130.93512564 325.00276538 129.84873867 325.00558662 C112.56338123 325.04978313 95.27803818 325.08286508 77.99263668 325.10362434 C69.63349819 325.11393057 61.27439746 325.12797841 52.9152832 325.15087891 C45.62825528 325.17083279 38.34125471 325.18372119 31.05420023 325.18817699 C27.19688027 325.19078098 23.33963853 325.19688789 19.48234367 325.21146011 C15.84871823 325.22507561 12.21520294 325.22921465 8.58155441 325.22621536 C6.61837608 325.22702443 4.65520964 325.23776527 2.69206238 325.24884033 C-11.5945669 325.21553049 -11.5945669 325.21553049 -16.375 320.8125 C-18.37924966 317.34360636 -18.93083968 315.01129855 -19 311 C-17.56081274 306.45519813 -16.26762583 303.32779591 -12 301 C-8.81505037 299.9988312 -5.91264122 299.8765322 -2.5836792 299.87974548 C-1.48434052 299.87837082 -0.38500183 299.87699615 0.74765015 299.87557983 C2.5494725 299.88097275 2.5494725 299.88097275 4.38769531 299.88647461 C6.29051773 299.88625557 6.29051773 299.88625557 8.23178101 299.8860321 C11.70665411 299.88574526 15.18149268 299.89162383 18.65635777 299.89860606 C22.2891936 299.9048583 25.92203022 299.90544488 29.55487061 299.90663147 C36.43252588 299.90973926 43.31016525 299.91794523 50.18781352 299.92798096 C58.01846851 299.93915922 65.84912427 299.94465687 73.67978525 299.94967639 C89.78653281 299.96012829 105.89326437 299.97771706 122 300 C120.56547591 297.90782993 119.12845182 295.81745392 117.68994141 293.72802734 C117.28614761 293.1385582 116.88235382 292.54908905 116.46632385 291.9417572 C113.66076677 287.87237143 110.77171305 284.20642856 107.375 280.625 C106.08722656 279.25214844 106.08722656 279.25214844 104.7734375 277.8515625 C103.85820312 276.91054688 102.94296875 275.96953125 102 275 C101.46721436 274.4438501 100.93442871 273.8877002 100.38549805 273.31469727 C96.21979159 269.03699361 91.82071158 265.28907451 87.0625 261.6875 C86.32668701 261.12844971 85.59087402 260.56939941 84.83276367 259.9934082 C77.50701978 254.50633762 69.86581191 249.66657995 62 245 C60.90945313 244.33742188 59.81890625 243.67484375 58.6953125 242.9921875 C50.67499103 238.24154145 42.3723341 234.25803565 33.9519043 230.27539062 C6.21032119 217.120751 -18.54292227 202.07187481 -41 181 C-41.59683594 180.45601562 -42.19367188 179.91203125 -42.80859375 179.3515625 C-62.52451844 160.68290401 -75.82662461 133.8681725 -77.16015625 106.7421875 C-77.92684724 74.80784102 -62.55768165 48.23140078 -41.36328125 25.421875 C-38.07591907 22.05300797 -34.63510726 18.98574188 -31 16 C-30.14535156 15.28070313 -29.29070312 14.56140625 -28.41015625 13.8203125 C-25.63548643 11.50873624 -22.82574505 9.24873977 -20 7 C-19.15050781 6.29746094 -18.30101562 5.59492188 -17.42578125 4.87109375 C-11.69202276 0.41550434 -7.2771363 -1.42182059 0 0 Z " fill="#000000" transform="translate(216,153)"/>
<path d="M0 0 C3.125 2.4375 3.125 2.4375 5 5 C5.33 5.33 5.66 5.66 6 6 C6.1584265 8.0708472 6.25124422 10.14678029 6.31640625 12.22265625 C6.35830078 13.48271484 6.40019531 14.74277344 6.44335938 16.04101562 C6.48317596 17.38150736 6.52288814 18.7220022 6.5625 20.0625 C6.60568042 21.40691523 6.64929456 22.7513166 6.69335938 24.09570312 C6.79985358 27.3970234 6.9018646 30.69842236 7 34 C7.70991624 33.99815641 8.41983248 33.99631283 9.15126133 33.99441338 C26.43661877 33.95021687 43.72196182 33.91713492 61.00736332 33.89637566 C69.36650181 33.88606943 77.72560254 33.87202159 86.0847168 33.84912109 C93.37174472 33.82916721 100.65874529 33.81627881 107.94579977 33.81182301 C111.80311973 33.80921902 115.66036147 33.80311211 119.51765633 33.78853989 C123.15128177 33.77492439 126.78479706 33.77078535 130.41844559 33.77378464 C132.38162392 33.77297557 134.34479036 33.76223473 136.30793762 33.75115967 C150.5945669 33.78446951 150.5945669 33.78446951 155.375 38.1875 C157.37924966 41.65639364 157.93083968 43.98870145 158 48 C156.56081274 52.54480187 155.26762583 55.67220409 151 58 C147.81505037 59.0011688 144.91264122 59.1234678 141.5836792 59.12025452 C140.48434052 59.12162918 139.38500183 59.12300385 138.25234985 59.12442017 C137.05113495 59.12082489 135.84992004 59.11722961 134.61230469 59.11352539 C133.34375641 59.11367142 132.07520813 59.11381744 130.76821899 59.1139679 C127.29334589 59.11425474 123.81850732 59.10837617 120.34364223 59.10139394 C116.7108064 59.0951417 113.07796978 59.09455512 109.44512939 59.09336853 C102.56747412 59.09026074 95.68983475 59.08205477 88.81218648 59.07201904 C80.98153149 59.06084078 73.15087573 59.05534313 65.32021475 59.05032361 C49.21346719 59.03987171 33.10673563 59.02228294 17 59 C18.43452409 61.09217007 19.87154818 63.18254608 21.31005859 65.27197266 C21.71385239 65.8614418 22.11764618 66.45091095 22.53367615 67.0582428 C25.33923323 71.12762857 28.22828695 74.79357144 31.625 78.375 C32.48351562 79.29023437 33.34203125 80.20546875 34.2265625 81.1484375 C35.14179688 82.08945313 36.05703125 83.03046875 37 84 C37.53278564 84.5561499 38.06557129 85.1122998 38.61450195 85.68530273 C42.78020841 89.96300639 47.17928842 93.71092549 51.9375 97.3125 C52.67331299 97.87155029 53.40912598 98.43060059 54.16723633 99.0065918 C61.49298022 104.49366238 69.13418809 109.33342005 77 114 C78.09054688 114.66257812 79.18109375 115.32515625 80.3046875 116.0078125 C88.32500897 120.75845855 96.6276659 124.74196435 105.0480957 128.72460938 C132.78967881 141.879249 157.54292227 156.92812519 180 178 C180.59683594 178.54398438 181.19367188 179.08796875 181.80859375 179.6484375 C201.52451844 198.31709599 214.82662461 225.1318275 216.16015625 252.2578125 C216.86751213 281.72072284 204.15098126 307.90063252 184.23828125 329.03125 C176.07678754 337.49715828 167.48309801 345.05804884 158 352 C157.01386719 352.72316406 156.02773438 353.44632812 155.01171875 354.19140625 C149.18161627 358.3678183 145.42730024 360.62943222 138 360 C132.31578947 356.94736842 132.31578947 356.94736842 131 353 C130.76171875 350.6953125 130.76171875 350.6953125 130.6875 348.125 C130.65011719 347.28195312 130.61273438 346.43890625 130.57421875 345.5703125 C131.29915106 341.19411564 133.95485224 338.82704514 137.33984375 336.1484375 C138.19707031 335.56320312 139.05429687 334.97796875 139.9375 334.375 C162.81715695 318.16347836 184.30773583 296.3858409 189.84765625 267.90625 C191.54575311 257.65534256 190.37784796 249.06359351 188 239 C187.65749945 237.00154948 187.32270306 235.0017427 187 233 C186.28824018 233.00276538 185.57648035 233.00553076 184.84315205 233.00837994 C167.52512766 233.07463058 150.20713546 233.12427609 132.88901234 233.15543652 C124.5140967 233.17090596 116.13926565 233.19199693 107.7644043 233.22631836 C100.46494337 233.25621838 93.16554371 233.27557444 85.86602324 233.28226548 C82.00089954 233.28617674 78.1359511 233.29537022 74.27088356 233.31719017 C70.63230349 233.33756492 66.99397075 233.34383186 63.35533905 233.33932304 C61.38460129 233.34054082 59.41389041 233.35667782 57.44322205 233.3732605 C56.26678131 233.36913651 55.09034058 233.36501251 53.87825012 233.36076355 C52.85782529 233.36352893 51.83740046 233.36629431 50.78605366 233.36914349 C47.50018175 232.93377563 45.65570159 231.95853919 43 230 C40.63729808 226.45594712 40.28666503 224.22830914 40 220 C40.97077098 215.49915273 42.43298163 212.91846958 46 210 C48.97661169 209.0077961 50.95995618 208.86378191 54.06828308 208.84178162 C55.63950172 208.82709839 55.63950172 208.82709839 57.24246216 208.81211853 C58.39116791 208.80636307 59.53987366 208.8006076 60.72338867 208.79467773 C61.9332695 208.78477814 63.14315033 208.77487854 64.38969421 208.76467896 C67.70758731 208.73848548 71.02545627 208.7166258 74.34338927 208.69667697 C77.81076506 208.67481016 81.27809712 208.64742487 84.74543762 208.62062073 C91.31143412 208.57070324 97.87745491 208.52576091 104.44349891 208.48259836 C111.91866669 208.43321792 119.39379058 208.37830278 126.86891592 208.32291877 C142.24590339 208.20911322 157.62293122 208.10227108 173 208 C171.56130511 206.22844333 170.12076546 204.4583847 168.67944336 202.68896484 C167.87744003 201.70310394 167.07543671 200.71724304 166.24913025 199.70150757 C145.53356602 174.81933208 112.08814605 159.11693969 83.25 145.9375 C43.69118107 127.74376159 3.81444796 97.8107177 -12.375 56.0625 C-16.73895078 44.01394592 -18.24182635 32.09082923 -18.375 19.3125 C-18.38901855 18.37970215 -18.40303711 17.4469043 -18.41748047 16.48583984 C-18.37362685 10.30247917 -17.72423713 5.71847764 -13.15234375 1.15625 C-9.02346335 -1.06180553 -4.53254563 -0.74535195 0 0 Z " fill="#000000" transform="translate(157,0)"/>
<path d="M0 0 C4.02264445 2.12517065 6.31929919 3.78282871 8 8 C8.30078125 10.18359375 8.30078125 10.18359375 8.3125 12.4375 C8.32925781 13.17871094 8.34601563 13.91992188 8.36328125 14.68359375 C7.70200043 18.90014781 5.76266095 21.35839634 2.5390625 24.0703125 C1.09660156 25.08738281 1.09660156 25.08738281 -0.375 26.125 C-1.45797021 26.9109839 -2.53861927 27.70017378 -3.6171875 28.4921875 C-4.1750293 28.90178711 -4.73287109 29.31138672 -5.30761719 29.73339844 C-25.47700104 44.82843067 -45.74473928 66.15938014 -50 92 C-50.49701323 98.20340999 -50.73535834 104.42355983 -50.94726562 110.64257812 C-51.01236328 111.89876953 -51.07746094 113.15496094 -51.14453125 114.44921875 C-51.18940674 115.58705811 -51.23428223 116.72489746 -51.28051758 117.8972168 C-52.19826748 121.8550327 -53.96207905 123.39306949 -57 126 C-57.33 126.33 -57.66 126.66 -58 127 C-63.07779636 127.51970735 -67.53048714 127.80973158 -72.0625 125.3125 C-78.88011426 117.17534749 -76.59920951 103.54696694 -75.80957031 93.6015625 C-74.00108662 77.00780192 -67.45244637 61.64563686 -58 48 C-57.33484375 47.030625 -56.6696875 46.06125 -55.984375 45.0625 C-47.81171189 33.6813099 -38.01077197 22.70336755 -27 14 C-25.96875 13.17757813 -24.9375 12.35515625 -23.875 11.5078125 C-22.73046005 10.6077279 -21.58462103 9.70929279 -20.4375 8.8125 C-19.90697021 8.39572998 -19.37644043 7.97895996 -18.82983398 7.54956055 C-7.57607296 -1.10197425 -7.57607296 -1.10197425 0 0 Z " fill="#000000" transform="translate(215,385)"/>
<path d="M0 0 C3.76145035 0.03902932 5.46514834 0.15554092 8.8125 2 C13.32113665 7.381276 13.10277541 12.84110947 13.0625 19.5625 C13.05686035 20.54105957 13.0512207 21.51961914 13.04541016 22.52783203 C12.58084391 50.74678145 0.8201136 76.30049846 -19.0625 96.3125 C-20.12243673 97.3152165 -21.18516014 98.31499194 -22.25 99.3125 C-23.03117187 100.09367187 -23.81234375 100.87484375 -24.6171875 101.6796875 C-50.19965278 127.26215278 -50.19965278 127.26215278 -61.5625 127.625 C-65.08541599 127.59663514 -66.14358919 127.37900675 -69.25 125.4375 C-72.23907581 122.26160695 -72.47423811 120.2851167 -72.625 116 C-72.67398437 115.05511719 -72.72296875 114.11023438 -72.7734375 113.13671875 C-71.67822114 107.22745438 -65.76139039 104.07682646 -61.1875 100.6875 C-54.47685751 95.62594484 -48.33667764 90.10055276 -42.25 84.3125 C-41.53199219 83.65894531 -40.81398438 83.00539063 -40.07421875 82.33203125 C-31.55573397 74.32567983 -25.09535141 64.49172537 -19.8125 54.125 C-19.49474609 53.50882813 -19.17699219 52.89265625 -18.84960938 52.2578125 C-13.23126712 40.73114903 -12.64501476 29.16507395 -12.25390625 16.5234375 C-12.16302734 14.65945313 -12.16302734 14.65945313 -12.0703125 12.7578125 C-12.03180176 11.63906738 -11.99329102 10.52032227 -11.95361328 9.36767578 C-11.04853967 5.43773436 -9.26176165 3.90262673 -6.25 1.3125 C-4.53310511 -0.40439489 -2.34121863 0.05946946 0 0 Z " fill="#000000" transform="translate(360.25,-0.3125)"/>
</svg>
