<?xml version="1.0" encoding="UTF-8"?>
<svg version="1.1" xmlns="http://www.w3.org/2000/svg" width="512" height="512">
<path d="M0 0 C1.05267563 -0.0071553 2.10535126 -0.01431061 3.18992615 -0.02168274 C4.33959869 -0.02437164 5.48927124 -0.02706055 6.67378235 -0.02983093 C7.88885971 -0.03640213 9.10393707 -0.04297333 10.35583496 -0.04974365 C14.38149768 -0.06947232 18.40712057 -0.08114276 22.43281555 -0.09111023 C23.82190788 -0.0951598 25.21100001 -0.09927678 26.60009193 -0.10346031 C33.12852826 -0.12250296 39.65695336 -0.13673495 46.18541211 -0.14507228 C53.70567236 -0.15483635 61.22563763 -0.18113775 68.745794 -0.22157317 C74.56847489 -0.25180006 80.39107155 -0.26654742 86.21382934 -0.26985329 C89.68671994 -0.27219663 93.15929507 -0.28106249 96.63210106 -0.30631447 C100.51197467 -0.33407127 104.39146472 -0.32974397 108.2714386 -0.32279968 C109.41098999 -0.33560974 110.55054138 -0.3484198 111.72462463 -0.36161804 C121.53711905 -0.29774686 128.77977434 2.39477856 136.00312805 9.08467102 C141.63284095 15.56068063 144.16746642 23.38994422 144.0070343 31.90888977 C143.26442269 39.78882406 140.38500397 46.52205063 134.7960968 52.14717102 C129.32560403 56.48883195 123.93655605 60.14717102 116.7960968 60.14717102 C116.83348309 76.09988324 116.8936614 92.05234271 116.97999954 108.00485611 C117.01958485 115.41411386 117.05208028 122.82326856 117.0670929 130.23262024 C117.08021705 136.70062663 117.10745024 143.1684043 117.15070987 149.63628173 C117.17308667 153.05194757 117.18902212 156.4673339 117.18798065 159.88307953 C117.1998107 178.79705139 118.02515802 197.22042354 125.0460968 215.02217102 C125.49541565 216.18981995 125.49541565 216.18981995 125.95381165 217.38105774 C131.24532015 230.69879641 139.1579524 241.61605287 147.95722961 252.79756165 C151.23600785 256.98701487 154.45043443 261.22548623 157.6710968 265.45967102 C158.34318176 266.34122864 159.01526672 267.22278625 159.7077179 268.13105774 C164.94190687 275.00273037 170.11967042 281.91551358 175.289505 288.83564758 C179.97277804 295.0882333 184.7585387 301.2545763 189.57759094 307.40278625 C194.54585291 313.76715878 199.34339553 320.25015403 204.09126282 326.78022766 C204.90615173 327.897724 204.90615173 327.897724 205.73750305 329.03779602 C206.20873596 329.68780579 206.67996887 330.33781555 207.16548157 331.00752258 C209.28666885 333.79088617 211.5557671 336.45877537 213.7960968 339.14717102 C214.1260968 258.95717102 214.4560968 178.76717102 214.7960968 96.14717102 C211.8260968 95.15717102 208.8560968 94.16717102 205.7960968 93.14717102 C199.05766613 88.78701 194.58358261 81.74315908 192.4210968 74.02217102 C190.87653086 64.44586218 191.83332192 55.88367618 197.6085968 47.83467102 C202.53108943 41.82098544 208.27728072 36.77716017 216.27045631 35.86471558 C219.24137207 35.74341111 222.19891353 35.71897512 225.1723175 35.72724915 C226.29844452 35.7187796 227.42457153 35.71031006 228.58482361 35.70158386 C232.29729087 35.67823829 236.00934301 35.67719126 239.72187805 35.67842102 C242.3110877 35.67131742 244.90029577 35.66361813 247.48950195 35.65534973 C252.91393549 35.64191004 258.33820767 35.64015177 263.76264954 35.64619446 C270.01181124 35.65282847 276.2603817 35.6299892 282.50942355 35.59288073 C288.54454825 35.55835713 294.57936143 35.55185705 300.61459923 35.55596924 C303.17136075 35.55428018 305.72813021 35.54465842 308.28483009 35.52682495 C311.86758855 35.50458625 315.44893713 35.51436458 319.0316925 35.53193665 C320.07877884 35.5186734 321.12586517 35.50541016 322.2046814 35.491745 C331.17219756 35.59347202 337.97551167 38.42109829 344.6710968 44.39717102 C350.67844147 50.88623673 353.1712721 59.17534527 353.0070343 67.91279602 C352.17117495 76.76671361 348.45348865 85.23726182 341.58125305 91.00654602 C337.62717877 93.76979261 334.54971713 95.27760033 329.7960968 96.14717102 C329.80497925 97.08820175 329.81386169 98.02923248 329.82301331 98.9987793 C329.90413162 107.8709886 329.9640777 116.74312258 330.00334549 125.61561871 C330.0242123 130.17699335 330.05251321 134.7380684 330.09785461 139.29927063 C330.14134498 143.7018611 330.16524073 148.10416357 330.17560577 152.50695229 C330.18299145 154.18589117 330.1974141 155.86481446 330.21901703 157.5436306 C330.24809436 159.89709291 330.25205114 162.24936827 330.25019836 164.60298157 C330.27177002 165.64200119 330.27177002 165.64200119 330.29377747 166.70201111 C330.26404754 170.19666541 329.8411145 172.07603281 327.95521545 175.05618286 C325.7960968 177.14717102 325.7960968 177.14717102 322.7960968 178.14717102 C322.4660968 184.08717102 322.1360968 190.02717102 321.7960968 196.14717102 C323.7760968 196.80717102 325.7560968 197.46717102 327.7960968 198.14717102 C329.83252719 200.90825918 330.04683113 203.29144802 330.0505724 206.66356564 C330.05640459 207.56919559 330.06223678 208.47482555 330.06824571 209.40789884 C330.06446639 210.39902648 330.06068706 211.39015411 330.05679321 212.41131592 C330.06061876 213.46728488 330.06444431 214.52325383 330.06838578 215.61122185 C330.0787321 219.16158514 330.0747204 222.71178719 330.070755 226.26216125 C330.07510077 228.80320384 330.08028346 231.34424511 330.08624268 233.88528442 C330.09826819 240.08011091 330.10078143 246.27487766 330.09844241 252.46971356 C330.09665932 257.50908094 330.09840873 262.54843517 330.10266685 267.58780098 C330.10326204 268.30509954 330.10385723 269.02239811 330.10447046 269.76143299 C330.10568224 271.21873235 330.10689637 272.67603171 330.10811283 274.13333107 C330.11899508 287.8081804 330.1168236 301.48300509 330.11072799 315.15785582 C330.10556741 327.64864603 330.11679029 340.13935804 330.13582621 352.63013279 C330.1552375 365.46614044 330.16345426 378.30211117 330.15970296 391.13813359 C330.15779471 398.34011566 330.16024084 405.54203133 330.1744175 412.74400139 C330.18762955 419.52458152 330.18502651 426.30498087 330.17200661 433.08556938 C330.16964645 435.56828871 330.17235529 438.05101908 330.18062973 440.53372574 C330.24481193 461.29652296 329.27222125 479.11755677 314.0695343 494.90107727 C313.31929993 495.64228821 312.56906555 496.38349915 311.7960968 497.14717102 C310.85637024 498.11976868 310.85637024 498.11976868 309.8976593 499.11201477 C298.83608571 509.77686526 284.5653266 512.57109296 269.80415344 512.51069641 C257.1293622 512.26178064 244.4266082 508.27439337 234.9601593 499.43232727 C234.57601868 499.00822571 234.19187805 498.58412415 233.7960968 498.14717102 C230.28602106 499.45180094 227.26182391 501.01036 224.1085968 503.02217102 C212.53934083 510.05984899 201.44232929 512.45528013 188.01954651 512.40786743 C186.86130017 512.41169298 185.70305383 512.41551853 184.50970912 512.41946 C181.31704616 512.42795476 178.12453144 512.42757106 174.93186474 512.4232794 C171.47978714 512.42080297 168.02773608 512.42983778 164.57566833 512.43731689 C157.82072155 512.45004128 151.06581456 512.45186035 144.3108578 512.44951663 C138.81680486 512.4477305 133.32276396 512.44948944 127.82871246 512.45374107 C127.04548268 512.45433626 126.26225289 512.45493145 125.45528887 512.45554468 C123.86390918 512.45675649 122.2725295 512.45797062 120.68114981 512.45918705 C105.76921857 512.47005424 90.85730995 512.46790421 75.94537744 512.46180221 C62.32326562 512.45663584 48.70122537 512.46788255 35.0791277 512.48690043 C21.07226953 512.50630462 7.06544517 512.51453017 -6.94142652 512.51077718 C-14.79726088 512.50886878 -22.65303437 512.51131716 -30.50885773 512.52549171 C-37.19801237 512.53743957 -43.88706869 512.53877255 -50.57622477 512.52670155 C-53.98446021 512.52083615 -57.39251609 512.5196479 -60.80073929 512.53170395 C-64.50713008 512.54220553 -68.21304423 512.53404272 -71.91941833 512.52139282 C-72.98044163 512.52876711 -74.04146493 512.53614139 -75.13464046 512.54373914 C-91.77937612 512.4249308 -106.97802442 507.16668328 -119.02812195 495.45185852 C-131.9291196 481.78652887 -138.50439453 463.88817409 -139.2039032 445.14717102 C-139.2554657 444.16361633 -139.3070282 443.18006165 -139.3601532 442.16670227 C-139.82954854 425.48360942 -136.75239383 408.84253349 -131.2039032 393.14717102 C-130.95656433 392.44640442 -130.70922546 391.74563782 -130.45439148 391.02363586 C-124.69323514 375.12892016 -115.9519122 361.91222435 -105.2664032 348.91670227 C-102.16957158 345.14096499 -99.23810096 341.25591054 -96.3289032 337.33467102 C-91.40541504 330.71396063 -86.39078308 324.1705995 -81.29008484 317.68525696 C-78.56924443 314.22106099 -75.89057736 310.74740747 -73.34062195 307.15498352 C-72.9018573 306.54807678 -72.46309265 305.94117004 -72.0110321 305.31587219 C-70.85376273 303.70618268 -69.71739128 302.08152515 -68.58280945 300.45576477 C-65.50454285 297.46848142 -63.42951549 297.26845725 -59.2039032 297.14717102 C-58.2139032 297.47717102 -57.2239032 297.80717102 -56.2039032 298.14717102 C-55.94995789 297.59158508 -55.69601257 297.03599915 -55.43437195 296.46357727 C-53.52582203 292.87065632 -51.00495248 289.73574371 -48.56718445 286.48701477 C-48.11730164 285.71486633 -47.66741882 284.9427179 -47.2039032 284.14717102 C-47.6989032 282.66217102 -47.6989032 282.66217102 -48.2039032 281.14717102 C-48.90782033 277.3929463 -48.87514472 275.33524708 -46.98124695 271.98310852 C-45.28112621 269.62909519 -43.52230222 267.33371914 -41.71611023 265.06025696 C-39.19601605 261.87209777 -36.72956354 258.64302625 -34.26054382 255.41523743 C-32.88113365 253.61342261 -31.49599794 251.81597197 -30.10429382 250.02363586 C-8.37978817 221.8062 -1.76178382 194.1114285 -1.69779229 159.08180237 C-1.68829348 155.59310868 -1.66208277 152.10453738 -1.63778687 148.61592102 C-1.59443002 142.03619192 -1.56569527 135.45648699 -1.54246348 128.87665939 C-1.51524464 121.37454559 -1.47134486 113.87255682 -1.42617476 106.37053299 C-1.33377092 90.96281034 -1.26188971 75.55506403 -1.2039032 60.14717102 C-2.30927429 60.00094299 -3.41464539 59.85471497 -4.55351257 59.70405579 C-12.14831972 58.54543118 -17.91658407 54.35729609 -22.6960907 48.44404602 C-27.32212628 41.39713172 -29.45245568 33.5137598 -28.2039032 25.14717102 C-25.92734091 15.5290321 -21.29844122 8.62307018 -13.0164032 3.20967102 C-8.71354531 0.62445091 -4.99240414 0.02334774 0 0 Z " fill="#020102" transform="translate(149.2039031982422,-0.1471710205078125)"/>
<path d="M0 0 C1.20269531 -0.00773437 2.40539062 -0.01546875 3.64453125 -0.0234375 C17.34963783 0.00632386 28.62383339 3.02297702 41.125 8.25 C42.27742188 8.70761719 43.42984375 9.16523438 44.6171875 9.63671875 C54.05154356 13.94665839 59.05807243 20.70150317 64.63880539 29.12928772 C66.07144934 31.24829319 66.07144934 31.24829319 67.68037796 33.05677795 C72.12322673 38.27874273 72.98733792 42.09208211 72.86621094 48.84375 C72.87733665 50.23074097 72.87733665 50.23074097 72.88868713 51.64575195 C72.9064917 54.68112295 72.88279329 57.71469211 72.859375 60.75 C72.86555374 62.87175511 72.87465328 64.99350354 72.88653564 67.11523438 C72.91122716 72.6886747 72.9020535 78.26151437 72.88397217 83.83496094 C72.86053871 92.75434059 72.88782694 101.6736817 72.91669464 110.59301758 C72.92179213 113.69949811 72.91198661 116.8056541 72.89984131 119.91210938 C72.90002998 121.82682297 72.90052261 123.74153658 72.90136719 125.65625 C72.8941011 126.51259033 72.88683502 127.36893066 72.87934875 128.2512207 C72.90499441 136.55647477 75.01237786 143.39584203 78.41796875 150.953125 C79.23578305 153.6098919 79.25809856 154.72272026 78.125 157.25 C70.2464425 164.89908495 56.99004001 168.36108291 46.22006226 168.38422108 C44.76980416 168.39090784 44.76980416 168.39090784 43.29024792 168.39772969 C42.235887 168.39754533 41.18152609 168.39736097 40.09521484 168.39717102 C38.96897107 168.40084771 37.8427273 168.4045244 36.68235493 168.4083125 C32.90021118 168.41934472 29.11809492 168.42319243 25.3359375 168.42700195 C22.627261 168.43273609 19.91858861 168.4399012 17.20991516 168.44691467 C9.07542152 168.46665498 0.94092668 168.47674264 -7.19358492 168.48564246 C-11.02825787 168.49002974 -14.86292945 168.49539545 -18.69760132 168.50063133 C-31.4520794 168.51764191 -44.20655663 168.53213452 -56.96104431 168.53938007 C-60.26911419 168.54128984 -63.57718406 168.54321019 -66.88525391 168.54516602 C-67.70741665 168.54564976 -68.5295794 168.5461335 -69.37665617 168.5466319 C-82.6854103 168.5549264 -95.99407438 168.58025427 -109.30278921 168.61274669 C-122.97955216 168.64586426 -136.65626942 168.66383311 -150.33307266 168.66702431 C-158.00679358 168.66918517 -165.68038321 168.67787133 -173.35406494 168.70348549 C-179.89144706 168.72525688 -186.42866599 168.73321147 -192.96608025 168.72351871 C-196.29746691 168.71899228 -199.62824603 168.72297107 -202.95963097 168.74028015 C-221.71703647 168.83225623 -237.45435378 168.4630834 -252.125 155.21875 C-264.32153829 142.46782361 -267.07995905 126.6087893 -267.1875 109.625 C-267.19313965 108.80330322 -267.1987793 107.98160645 -267.20458984 107.13500977 C-267.11898431 99.7460915 -266.0273956 92.5390506 -264.875 85.25 C-264.12855225 85.21559814 -263.38210449 85.18119629 -262.61303711 85.14575195 C-236.35811748 83.85806104 -210.06406631 81.15049127 -184.875 73.25 C-184.26654236 73.06115234 -183.65808472 72.87230469 -183.03118896 72.67773438 C-162.01398072 66.14811628 -141.72720103 58.82543752 -121.875 49.25 C-120.84487793 48.755 -119.81475586 48.26 -118.75341797 47.75 C-103.42912832 40.3375897 -88.50014393 32.23435364 -73.60839844 23.99609375 C-57.49621651 15.11570972 -40.61200839 7.29168389 -22.875 2.25 C-22.23739746 2.06453613 -21.59979492 1.87907227 -20.94287109 1.68798828 C-14.00079442 -0.11500334 -7.13553724 -0.04559449 0 0 Z " fill="#21A5FC" transform="translate(292.875,328.75)"/>
<path d="M0 0 C28.38 0 56.76 0 86 0 C86.03867187 13.40367188 86.03867187 13.40367188 86.078125 27.078125 C86.10653313 33.50060139 86.1374115 39.92302918 86.1718235 46.34547234 C86.21594442 54.64063404 86.25446125 62.9356895 86.27099609 71.23095703 C86.28411778 77.80443699 86.311345 84.37769179 86.35461307 90.9510448 C86.37699521 94.42260098 86.39292498 97.89388195 86.39188385 101.36551666 C86.39229062 121.12196554 87.57725652 139.72047246 94.75 158.3125 C95.09869141 159.23216553 95.44738281 160.15183105 95.80664062 161.09936523 C101.90487155 176.80230986 110.53066294 189.07929244 120.89208984 202.29052734 C124.28165373 206.64741639 127.57642488 211.07407444 130.875 215.5 C134.8999994 220.88426488 138.94463192 226.24890514 143.0625 231.5625 C149.53117274 239.92470976 155.75302118 248.47166893 162 257 C158.99732463 258.50133768 156.99627159 257.35298821 153.75 256.5625 C134.0597355 252.45452637 112.99738187 253.55126743 94 260 C93.01845947 260.31300049 93.01845947 260.31300049 92.01708984 260.63232422 C84.94706341 262.90231738 78.46178707 265.69228212 71.9765625 269.33203125 C55.85363813 278.19393092 55.85363813 278.19393092 50.60742188 277.83740234 C46.34373984 276.49298926 42.99434359 273.98506179 39.55419922 271.19335938 C27.31792591 261.79799275 5.98774812 258.89297245 -8.98828125 258.796875 C-10.09271072 258.78628555 -10.09271072 258.78628555 -11.2194519 258.77548218 C-33.7706405 258.59761071 -33.7706405 258.59761071 -56 262 C-57.55775146 262.35384766 -57.55775146 262.35384766 -59.14697266 262.71484375 C-71.68149362 265.4584167 -71.68149362 265.4584167 -84 269 C-82.67422779 266.1441279 -81.17747537 263.81935959 -79.1796875 261.390625 C-78.64472656 260.71773438 -78.10976562 260.04484375 -77.55859375 259.3515625 C-76.44072421 257.95617083 -75.31052513 256.57056343 -74.16796875 255.1953125 C-71.44636256 251.72905376 -69.62511318 249.1704588 -69.5078125 244.671875 C-69.73733448 240.9181532 -69.73733448 240.9181532 -72 238 C-63.79333423 224.56779548 -63.79333423 224.56779548 -59.5078125 223.2109375 C-57.1875 223.375 -57.1875 223.375 -55.10546875 223.8984375 C-52.84679559 224.2023154 -52.84679559 224.2023154 -50.65625 222.59765625 C-47.05408974 219.07495541 -44.23387651 215.15571678 -41.3125 211.0625 C-40.06775353 209.34017134 -38.82165419 207.61881962 -37.57421875 205.8984375 C-36.6622876 204.63918457 -36.6622876 204.63918457 -35.73193359 203.35449219 C-33.82851446 200.76687249 -31.85683072 198.24524077 -29.85498047 195.73364258 C-16.55202565 179.01121049 -8.44103712 159.42487972 -3.75 138.6875 C-3.58685303 137.97134521 -3.42370605 137.25519043 -3.25561523 136.51733398 C-2.07715949 131.04400599 -1.46582472 125.57615341 -1 120 C-0.17274414 119.9906543 0.65451172 119.98130859 1.50683594 119.97167969 C5.25516415 119.91799681 9.00224162 119.8343429 12.75 119.75 C14.70292969 119.72873047 14.70292969 119.72873047 16.6953125 119.70703125 C18.57089844 119.65869141 18.57089844 119.65869141 20.484375 119.609375 C21.63647461 119.58842773 22.78857422 119.56748047 23.97558594 119.54589844 C27.60114132 118.89149564 28.80711166 117.91459843 31 115 C31.44147319 111.9096877 31.66500325 109.9872168 29.88745117 107.34838867 C27.09295445 105.35200976 24.76864685 105.56263421 21.36328125 105.48828125 C20.06455078 105.45283203 18.76582031 105.41738281 17.42773438 105.38085938 C16.05599483 105.3577595 14.6842499 105.3349771 13.3125 105.3125 C11.92900393 105.27932458 10.54553871 105.24483469 9.16210938 105.20898438 C5.77503067 105.1263727 2.38752754 105.06151428 -1 105 C-1 96.75 -1 88.5 -1 80 C1.96226562 79.96132812 1.96226562 79.96132812 4.984375 79.921875 C7.57293901 79.86560187 10.16147982 79.80825437 12.75 79.75 C14.70292969 79.72873047 14.70292969 79.72873047 16.6953125 79.70703125 C18.57089844 79.65869141 18.57089844 79.65869141 20.484375 79.609375 C21.63647461 79.58842773 22.78857422 79.56748047 23.97558594 79.54589844 C27.60114132 78.89149564 28.80711166 77.91459843 31 75 C31.44147319 71.9096877 31.66500325 69.9872168 29.88745117 67.34838867 C27.09295445 65.35200976 24.76864685 65.56263421 21.36328125 65.48828125 C20.06455078 65.45283203 18.76582031 65.41738281 17.42773438 65.38085938 C16.05599483 65.3577595 14.6842499 65.3349771 13.3125 65.3125 C11.92900393 65.27932458 10.54553871 65.24483469 9.16210938 65.20898438 C5.77503067 65.1263727 2.38752754 65.06151428 -1 65 C-1 56.75 -1 48.5 -1 40 C0.97484375 39.97421875 2.9496875 39.9484375 4.984375 39.921875 C7.57293901 39.86560187 10.16147982 39.80825437 12.75 39.75 C14.70292969 39.72873047 14.70292969 39.72873047 16.6953125 39.70703125 C18.57089844 39.65869141 18.57089844 39.65869141 20.484375 39.609375 C22.21252441 39.5779541 22.21252441 39.5779541 23.97558594 39.54589844 C27.60114132 38.89149564 28.80711166 37.91459843 31 35 C31.44237452 31.90337837 31.67059766 29.98343663 29.8737793 27.34838867 C27.13888831 25.38033617 24.92521821 25.56391896 21.58203125 25.48828125 C20.32841797 25.45283203 19.07480469 25.41738281 17.78320312 25.38085938 C16.47287109 25.35830078 15.16253906 25.33574219 13.8125 25.3125 C12.47717987 25.27932334 11.14189168 25.24483334 9.80664062 25.20898438 C6.53806175 25.12638491 3.26904356 25.06151996 0 25 C0 16.75 0 8.5 0 0 Z " fill="#F7F5F6" transform="translate(164,60)"/>
<path d="M0 0 C0.73992187 0.42023438 1.47984375 0.84046875 2.2421875 1.2734375 C2.98726563 1.69882812 3.73234375 2.12421875 4.5 2.5625 C16.19749791 9.14234257 28.24576862 8.82969051 41.27148438 7.48730469 C42.60487854 7.35083527 42.60487854 7.35083527 43.96520996 7.21160889 C44.63669067 7.14177795 45.30817139 7.07194702 46 7 C46.09352793 32.23482738 46.16402072 57.46962869 46.20724869 82.70459461 C46.22785554 94.42218133 46.25594035 106.13966023 46.30175781 117.85717773 C46.34168292 128.07265267 46.36744645 138.2880495 46.37635398 148.5036003 C46.38155909 153.91042007 46.39375403 159.31701641 46.42292023 164.72376442 C46.4501789 169.81843707 46.45842389 174.91279538 46.45243073 180.00753403 C46.45352629 181.8718849 46.46141761 183.73624688 46.4768219 185.60053444 C46.60125895 201.44476404 44.29667302 212.04071314 33.19140625 223.9375 C24.41021034 232.40834179 13.25102124 235.34358683 1.37890625 235.2109375 C-9.76709412 234.51511782 -19.88156015 229.02313927 -27.47265625 220.9140625 C-33.92477837 212.82828286 -37.47092849 203.63297188 -37.38095093 193.34475708 C-37.3856309 192.51037168 -37.39031087 191.67598629 -37.39513266 190.81631649 C-37.40703106 188.04030239 -37.39764596 185.26478667 -37.38818359 182.48876953 C-37.3922514 180.49085707 -37.39759445 178.49294686 -37.40411377 176.49504089 C-37.41776294 171.08433951 -37.41249999 165.67381017 -37.40297651 160.26310587 C-37.39537385 154.6012517 -37.40242663 148.93941213 -37.40713501 143.27755737 C-37.4125881 133.77680823 -37.40540983 124.27612913 -37.39111328 114.77539062 C-37.37475947 103.78027795 -37.38009689 92.78533193 -37.3965925 81.79022324 C-37.41018648 72.35230234 -37.41213812 62.91443172 -37.40427649 53.47650421 C-37.39959209 47.83821176 -37.39899671 42.19999781 -37.40888596 36.56171036 C-37.41752397 31.26751415 -37.41159195 25.97353409 -37.39420319 20.67936134 C-37.39022256 18.73222908 -37.39139912 16.78507874 -37.39799118 14.83795357 C-37.40613409 12.18950029 -37.39597407 9.54174905 -37.38095093 6.89334106 C-37.38764309 6.1147612 -37.39433526 5.33618134 -37.40123022 4.53400815 C-37.37752342 2.39407539 -37.37752342 2.39407539 -37 -1 C-27.44457106 -7.37028596 -9.54953863 -5.46191324 0 0 Z " fill="#EA5367" transform="translate(417,262)"/>
<path d="M0 0 C27.39 0 54.78 0 83 0 C83.25 37.75 83.25 37.75 83.29785156 49.66308594 C83.33107781 53.19170872 83.33107781 53.19170872 83.36956787 56.72027588 C83.38416746 58.29004929 83.39095279 59.85990734 83.39154053 61.42974854 C83.39395685 63.81017719 83.42128109 66.18915808 83.45410156 68.56933594 C83.44907749 69.26693905 83.44405342 69.96454216 83.43887711 70.68328476 C83.51066018 74.00567715 83.79730039 75.73634647 85.84661865 78.4019165 C87.99923441 80.17275914 87.99923441 80.17275914 91 81 C91 87.6 91 94.2 91 101 C89.35 101.66 87.7 102.32 86 103 C83.82910347 106.25634479 83.73708988 107.24643282 83.68115234 111.0222168 C83.66128265 112.04304855 83.64141296 113.06388031 83.62094116 114.11564636 C83.60938995 115.21572525 83.59783875 116.31580414 83.5859375 117.44921875 C83.56657135 118.5769722 83.5472052 119.70472565 83.5272522 120.86665344 C83.46740693 124.47352503 83.42105078 128.08042844 83.375 131.6875 C83.33682482 134.1308734 83.29777336 136.57423328 83.2578125 139.01757812 C83.1617013 145.01159884 83.07666822 151.00570079 83 157 C81.28463608 157.50068546 79.56665371 157.99240415 77.84765625 158.48046875 C76.89125244 158.75528076 75.93484863 159.03009277 74.94946289 159.31323242 C70.24632456 160.40833449 65.79161852 160.37236918 61 160 C60.22398437 159.94199219 59.44796875 159.88398438 58.6484375 159.82421875 C52.07866007 158.91236001 46.57642276 156.0161756 40.79614258 152.91992188 C32.81596788 148.67440942 25.8958674 147.69864784 16.9375 147.8125 C15.48633789 147.8134668 15.48633789 147.8134668 14.00585938 147.81445312 C9.12294681 147.84453267 4.87452621 148.18757896 0 149 C0 139.43 0 129.86 0 120 C13.8125 119.6875 13.8125 119.6875 18.15942383 119.61206055 C19.28888428 119.57894775 20.41834473 119.54583496 21.58203125 119.51171875 C22.73936768 119.48553467 23.8967041 119.45935059 25.08911133 119.43237305 C27.97557015 119.22546394 27.97557015 119.22546394 29.8737793 117.68676758 C31.8010121 114.80030509 31.41766805 112.34134443 31 109 C27.85005762 105.74791514 25.10773126 105.59216347 20.703125 105.48828125 C19.49785156 105.45283203 18.29257812 105.41738281 17.05078125 105.38085938 C15.79652344 105.35830078 14.54226563 105.33574219 13.25 105.3125 C11.98027344 105.27833984 10.71054687 105.24417969 9.40234375 105.20898438 C6.26854001 105.12651586 3.13428376 105.06158146 0 105 C0 96.75 0 88.5 0 80 C1.90265625 79.96261719 3.8053125 79.92523438 5.765625 79.88671875 C8.2604366 79.82106581 10.75522739 79.75461825 13.25 79.6875 C14.50425781 79.66494141 15.75851562 79.64238281 17.05078125 79.61914062 C18.25605469 79.58369141 19.46132813 79.54824219 20.703125 79.51171875 C22.36843262 79.47244263 22.36843262 79.47244263 24.06738281 79.43237305 C27.30291978 78.95533875 28.73254179 78.33540083 31 76 C31.66666667 72.5 31.66666667 72.5 31 69 C27.84540189 65.75087681 25.11054731 65.59222989 20.703125 65.48828125 C19.49785156 65.45283203 18.29257812 65.41738281 17.05078125 65.38085938 C15.79652344 65.35830078 14.54226563 65.33574219 13.25 65.3125 C11.98027344 65.27833984 10.71054687 65.24417969 9.40234375 65.20898438 C6.26854001 65.12651586 3.13428376 65.06158146 0 65 C0 56.75 0 48.5 0 40 C1.98644531 39.96261719 3.97289062 39.92523438 6.01953125 39.88671875 C7.94574613 39.83804184 9.87195995 39.78926192 11.7980957 39.73754883 C13.7929063 39.68798681 15.78807257 39.65348867 17.78320312 39.61914062 C19.03681641 39.58369141 20.29042969 39.54824219 21.58203125 39.51171875 C22.73936768 39.48553467 23.8967041 39.45935059 25.08911133 39.43237305 C27.97557015 39.22546394 27.97557015 39.22546394 29.8737793 37.68676758 C31.8010121 34.80030509 31.41766805 32.34134443 31 29 C27.85005762 25.74791514 25.10773126 25.59216347 20.703125 25.48828125 C19.49785156 25.45283203 18.29257812 25.41738281 17.05078125 25.38085938 C15.79652344 25.35830078 14.54226563 25.33574219 13.25 25.3125 C11.98027344 25.27833984 10.71054687 25.24417969 9.40234375 25.20898438 C6.26854001 25.12651586 3.13428376 25.06158146 0 25 C0 16.75 0 8.5 0 0 Z " fill="#F7F5F7" transform="translate(380,96)"/>
<path d="M0 0 C0 0.66 0 1.32 0 2 C-8.32489873 6.34966 -16.65943972 10.68045395 -25 15 C-25.78665039 15.40911621 -26.57330078 15.81823242 -27.38378906 16.23974609 C-31.88481944 18.5746962 -36.41796201 20.82816696 -41 23 C-41.7832666 23.37157227 -42.5665332 23.74314453 -43.37353516 24.12597656 C-55.64428366 29.86813283 -68.15831775 34.60121928 -81 38.875 C-81.68593231 39.10402008 -82.37186462 39.33304016 -83.07858276 39.56900024 C-101.95662292 45.83904781 -120.837356 50.40898004 -140.625 52.6875 C-141.74487305 52.81906494 -142.86474609 52.95062988 -144.01855469 53.08618164 C-151.70562315 53.92347074 -159.27044658 54.15026595 -167 54 C-163.48762818 42.01661379 -157.98847879 31.61535488 -150.22265625 21.87890625 C-147.96682613 19.07092346 -147.96682613 19.07092346 -146.24609375 16.08984375 C-140.56944329 6.85734961 -132.72003997 3.81215695 -123 0 C-122.04996094 -0.39703125 -121.09992188 -0.7940625 -120.12109375 -1.203125 C-86.20608354 -14.57805861 -32.19247537 -21.46165024 0 0 Z " fill="#9FD2FD" transform="translate(200,345)"/>
<path d="M0 0 C7.59 0 15.18 0 23 0 C23.0093457 3.7424707 23.01869141 7.48494141 23.02832031 11.34082031 C23.06224754 23.77397781 23.11768651 36.20696382 23.18390274 48.63998795 C23.22349267 56.17031398 23.25598581 63.70053855 23.27099609 71.23095703 C23.28411778 77.80443699 23.311345 84.37769179 23.35461307 90.9510448 C23.37699521 94.42260098 23.39292498 97.89388195 23.39188385 101.36551666 C23.39229062 121.12196554 24.57725652 139.72047246 31.75 158.3125 C32.09869141 159.23216553 32.44738281 160.15183105 32.80664062 161.09936523 C38.90487155 176.80230986 47.53066294 189.07929244 57.89208984 202.29052734 C61.28165373 206.64741639 64.57642488 211.07407444 67.875 215.5 C71.8999994 220.88426488 75.94463192 226.24890514 80.0625 231.5625 C86.53117274 239.92470976 92.75302118 248.47166893 99 257 C95.92499873 258.53750063 93.63400291 257.36918051 90.3125 256.625 C79.65263941 254.39623434 68.85425912 254.25823093 58 254 C58 253.67 58 253.34 58 253 C62.95 253 67.9 253 73 253 C65.51335948 242.73715844 57.94131618 232.56180551 50.1105957 222.55859375 C45.8791946 217.14769771 41.71235229 211.69410656 37.61767578 206.17895508 C34.85368389 202.45713968 32.05183901 198.77168324 29.19921875 195.1171875 C21.49989348 185.18702964 14.96004178 175.56109242 10 164 C9.52304688 162.90558594 9.04609375 161.81117188 8.5546875 160.68359375 C5.13793999 152.34632064 2.97847141 143.76734389 1 135 C0.8210447 134.21635983 0.64208941 133.43271967 0.45771122 132.62533283 C-0.02625135 129.84942793 -0.12297628 127.28044517 -0.12025452 124.46342468 C-0.12231651 122.81235466 -0.12231651 122.81235466 -0.12442017 121.12792969 C-0.12082489 119.93031006 -0.11722961 118.73269043 -0.11352539 117.4987793 C-0.11367142 116.23008499 -0.11381744 114.96139069 -0.1139679 113.6542511 C-0.11425437 110.18356926 -0.10838179 106.71292209 -0.10139394 103.2422483 C-0.09513553 99.61208762 -0.09455463 95.98192611 -0.09336853 92.35176086 C-0.09026255 85.48122207 -0.08205904 78.61069922 -0.07201904 71.74016744 C-0.06083514 63.91674427 -0.05534171 56.09332032 -0.05032361 48.26989114 C-0.03987582 32.17991784 -0.02208873 16.08996158 0 0 Z " fill="#DCD9EA" transform="translate(227,60)"/>
<path d="M0 0 C0.09352793 25.23482738 0.16402072 50.46962869 0.20724869 75.70459461 C0.22785554 87.42218133 0.25594035 99.13966023 0.30175781 110.85717773 C0.34168292 121.07265267 0.36744645 131.2880495 0.37635398 141.5036003 C0.38155909 146.91042007 0.39375403 152.31701641 0.42292023 157.72376442 C0.4501789 162.81843707 0.45842389 167.91279538 0.45243073 173.00753403 C0.45352629 174.8718849 0.46141761 176.73624688 0.4768219 178.60053444 C0.60125895 194.44476404 -1.70332698 205.04071314 -12.80859375 216.9375 C-20.3277572 224.19091339 -29.6901433 227.48450717 -40 228 C-37.48917747 225.48917747 -34.97916578 222.97967393 -32.4375 220.5 C-28.46293775 216.42352589 -25.44488731 212.33595499 -22.875 207.25 C-22.37742187 206.28578125 -21.87984375 205.3215625 -21.3671875 204.328125 C-18.04547768 196.24213424 -17.71675026 188.44219281 -17.77294922 179.77905273 C-17.77265717 178.58780289 -17.77236511 177.39655304 -17.77206421 176.16920471 C-17.77321189 172.93010096 -17.78318412 169.6911741 -17.79721212 166.45210528 C-17.80978608 163.05686903 -17.8108952 159.66162863 -17.81326294 156.26637268 C-17.81945825 149.84926613 -17.83584243 143.4322284 -17.85596192 137.01515204 C-17.8783819 129.70433036 -17.88932963 122.39350524 -17.89935279 115.08265769 C-17.92021058 100.0550669 -17.95534829 85.02754036 -18 70 C-18.62543701 70.95302002 -19.25087402 71.90604004 -19.89526367 72.88793945 C-23.92395408 78.84475614 -29.05431851 82.91629555 -36 85 C-44.06010219 86.11773374 -50.33232814 84.67986509 -57 80 C-63.74943412 74.15303259 -66.28406942 67.8524184 -67.5625 59.1875 C-67.25466696 52.50886142 -63.61583639 45.69887882 -59.03125 40.96875 C-52.37553712 35.74657528 -45.68900172 34.41542805 -37.328125 34.55859375 C-31.19465696 35.37207014 -26.37287336 38.24657148 -22.34375 42.921875 C-21.16962579 44.57384045 -20.0771788 46.28324628 -19 48 C-18.01 48.495 -18.01 48.495 -17 49 C-17 33.49 -17 17.98 -17 2 C-4 0 -4 0 0 0 Z " fill="#E4374E" transform="translate(463,269)"/>
<path d="M0 0 C8.09472929 5.69375026 13.23630584 13.89876178 15.4296875 23.49609375 C16.5795246 36.491927 14.99813348 47.20435812 6.421875 57.4921875 C-1.48587152 65.44645018 -11.02419603 69.54251124 -22.1328125 69.87109375 C-33.29489583 69.74279394 -41.42136367 65.66380459 -49.375 57.953125 C-57.68504635 48.65237918 -60.19520702 39.1160659 -59.9375 26.83203125 C-58.7815136 16.32977179 -53.21528281 8.48578089 -45.5703125 1.49609375 C-31.64383239 -9.58118297 -14.96868083 -8.7582707 0 0 Z " fill="#010304" transform="translate(306.5703125,399.50390625)"/>
<path d="M0 0 C6.12851558 0.98494 11.47071935 2.89504087 17.125 5.375 C17.79337891 5.66705322 18.46175781 5.95910645 19.15039062 6.26000977 C21.11714649 7.14141674 23.06006708 8.06117071 25 9 C25.60610107 9.27908203 26.21220215 9.55816406 26.83666992 9.84570312 C31.97634112 12.43919943 34.79653827 16.09546381 38.0625 20.75 C38.55298828 21.42804688 39.04347656 22.10609375 39.54882812 22.8046875 C40.48159299 24.0941338 41.40896347 25.38751795 42.32836914 26.68652344 C43.89835984 28.93927509 43.89835984 28.93927509 45.449687 30.63864517 C49.92670774 35.94477096 50.86395336 39.7520369 50.74121094 46.59375 C50.74862808 47.51841064 50.75604523 48.44307129 50.76368713 49.39575195 C50.7814917 52.43112295 50.75779329 55.46469211 50.734375 58.5 C50.74055374 60.62175511 50.74965328 62.74350354 50.76153564 64.86523438 C50.78622716 70.4386747 50.7770535 76.01151437 50.75897217 81.58496094 C50.73553871 90.50434059 50.76282694 99.4236817 50.79169464 108.34301758 C50.79679213 111.44949811 50.78698661 114.5556541 50.77484131 117.66210938 C50.77502998 119.57682297 50.77552261 121.49153658 50.77636719 123.40625 C50.7691011 124.26259033 50.76183502 125.11893066 50.75434875 126.0012207 C50.77999441 134.30647477 52.88737786 141.14584203 56.29296875 148.703125 C57.11078305 151.3598919 57.13309856 152.47272026 56 155 C47.56565711 163.18868242 33.78525347 166.14970435 22.38671875 166.09765625 C21.13955078 166.09443359 19.89238281 166.09121094 18.60742188 166.08789062 C17.31384766 166.07951172 16.02027344 166.07113281 14.6875 166.0625 C12.71813477 166.05573242 12.71813477 166.05573242 10.70898438 166.04882812 C7.4726099 166.03705949 4.23632822 166.0206176 1 166 C2.28062485 164.2925002 3.61767557 162.62626404 5 161 C5.66 161 6.32 161 7 161 C7.39251953 160.16275391 7.39251953 160.16275391 7.79296875 159.30859375 C9.12974808 156.75184105 10.6932218 154.4501275 12.3125 152.0625 C23.64660742 134.3662117 26.42966971 113.27831123 26.375 92.6875 C26.37478851 91.94732635 26.37457703 91.20715271 26.37435913 90.44454956 C26.33622536 76.98405168 24.97326734 64.15127206 22 51 C21.81808105 50.15453613 21.63616211 49.30907227 21.44873047 48.43798828 C18.14204783 33.32890128 12.97645176 18.3136281 3.4453125 5.9453125 C2.02763186 4.03719098 0.99476609 2.15371687 0 0 Z " fill="#0591F9" transform="translate(315,331)"/>
<path d="M0 0 C0.98550339 -0.00571014 1.97100677 -0.01142029 2.9863739 -0.01730347 C4.07157318 -0.01842133 5.15677246 -0.01953918 6.27485657 -0.02069092 C7.98481056 -0.02813828 7.98481056 -0.02813828 9.72930908 -0.03573608 C13.51573787 -0.05038851 17.30212474 -0.05716558 21.08857727 -0.06268311 C23.71453859 -0.06843293 26.34049989 -0.07419068 28.96646118 -0.07995605 C33.77494094 -0.08953219 38.58341164 -0.09542571 43.39189976 -0.09845281 C50.46162737 -0.10292801 57.53116111 -0.1204487 64.60082978 -0.1494534 C70.72827055 -0.17371669 76.8556316 -0.18139927 82.98311806 -0.18312836 C85.58700934 -0.18615546 88.1908998 -0.19418589 90.79475975 -0.20731354 C94.440618 -0.22437916 98.08600576 -0.22249192 101.73188782 -0.21600342 C102.80696594 -0.2252182 103.88204407 -0.23443298 104.98970032 -0.243927 C110.88214846 -0.21109801 115.14962266 0.2401674 120.32685852 3.14044189 C124.55200646 7.69915414 125.70399783 10.6728828 125.59638977 16.75762939 C125.15555066 20.65490266 123.88681778 23.20426918 121.32685852 26.14044189 C115.26757981 30.59596946 109.06451452 30.71389263 101.789505 30.65802002 C100.09286713 30.66853394 100.09286713 30.66853394 98.36195374 30.67926025 C94.64036679 30.69679906 90.91954633 30.68523204 87.19795227 30.67169189 C84.60298517 30.67438778 82.00801906 30.678271 79.41305542 30.68328857 C73.9819531 30.68917794 68.5511366 30.68102199 63.12007141 30.66192627 C56.8544154 30.64014957 50.58927994 30.64722113 44.32363647 30.66923189 C38.27728021 30.68961632 32.23117724 30.68740179 26.18478584 30.67570496 C23.61997975 30.67303971 21.05516033 30.67630026 18.4903698 30.68562317 C14.90482912 30.69579785 11.32028415 30.68027332 7.7348175 30.65802002 C6.15036583 30.67016541 6.15036583 30.67016541 4.53390503 30.68255615 C-1.75145283 30.61040026 -5.54159704 29.84494413 -10.67314148 26.14044189 C-14.27463033 22.17880416 -14.97606372 18.53267746 -14.88798523 13.19903564 C-14.41121174 8.63067872 -12.44751262 5.83926463 -9.11064148 2.82794189 C-5.73709475 0.49240954 -4.05315323 0.01403194 0 0 Z " fill="#A0D3FE" transform="translate(151.6731414794922,14.85955810546875)"/>
<path d="M0 0 C1.05437759 -0.00700928 2.10875519 -0.01401855 3.19508362 -0.02124023 C6.67264311 -0.03881332 10.14938567 -0.02719923 13.62695312 -0.01367188 C16.04781246 -0.01636697 18.46867074 -0.02024953 20.88952637 -0.02526855 C25.96014728 -0.0311627 31.03048612 -0.02260291 36.10107422 -0.00390625 C42.59787195 0.01888275 49.09400868 0.00575929 55.59078217 -0.01819611 C60.58881605 -0.03265603 65.58669344 -0.02804709 70.58473206 -0.01768494 C72.98010842 -0.01501821 75.37549904 -0.01828546 77.77085876 -0.02760315 C81.11975698 -0.03777141 84.46758747 -0.02226223 87.81640625 0 C88.80463882 -0.00809692 89.7928714 -0.01619385 90.81105042 -0.02453613 C96.52238561 0.04573599 99.90576901 0.65042289 104.40820312 4.51757812 C108.04553174 8.63350261 109.06237237 11.85030498 108.79101562 17.20507812 C108.15322067 21.05788027 106.94652868 24.51773883 104.40820312 27.51757812 C98.9545394 31.07302901 94.02782365 30.96195138 87.74047852 30.95336914 C86.67795364 30.96344498 85.61542877 30.97352081 84.52070618 30.98390198 C81.01564964 31.01235057 77.51102411 31.01825674 74.00585938 31.02148438 C71.56497522 31.03112644 69.1240928 31.04121899 66.68321228 31.05174255 C61.56977315 31.06969536 56.456486 31.07526432 51.34301758 31.07348633 C44.79457883 31.07318127 38.24711457 31.11416459 31.6989069 31.16580296 C26.65880363 31.19917441 21.61893589 31.20524368 16.57873344 31.20365715 C14.16461256 31.20719477 11.75048542 31.22045044 9.33647346 31.24365425 C5.95872981 31.27308639 2.58310077 31.26441267 -0.79467773 31.24633789 C-1.78866577 31.26319641 -2.78265381 31.28005493 -3.8067627 31.29742432 C-9.77074802 31.21642388 -12.99501996 30.23766494 -17.29975224 26.03028774 C-20.72912523 22.01522096 -21.04028539 17.84508357 -20.90429688 12.72851562 C-20.23900323 8.02156307 -17.5855438 5.37111058 -14.10534668 2.38195801 C-9.30519467 -0.16512609 -5.35444361 -0.04387077 0 0 Z " fill="#A0D3FE" transform="translate(377.591796875,50.482421875)"/>
<path d="M0 0 C27.39 0 54.78 0 83 0 C83.25 37.75 83.25 37.75 83.29785156 49.66308594 C83.33107781 53.19170872 83.33107781 53.19170872 83.36956787 56.72027588 C83.38416746 58.29004929 83.39095279 59.85990734 83.39154053 61.42974854 C83.39395685 63.81017719 83.42128109 66.18915808 83.45410156 68.56933594 C83.44907749 69.26693905 83.44405342 69.96454216 83.43887711 70.68328476 C83.51066018 74.00567715 83.79730039 75.73634647 85.84661865 78.4019165 C87.99923441 80.17275914 87.99923441 80.17275914 91 81 C91 87.6 91 94.2 91 101 C89.35 101.66 87.7 102.32 86 103 C83.82910347 106.25634479 83.73708988 107.24643282 83.68115234 111.0222168 C83.66128265 112.04304855 83.64141296 113.06388031 83.62094116 114.11564636 C83.60938995 115.21572525 83.59783875 116.31580414 83.5859375 117.44921875 C83.56657135 118.5769722 83.5472052 119.70472565 83.5272522 120.86665344 C83.46740693 124.47352503 83.42105078 128.08042844 83.375 131.6875 C83.33682482 134.1308734 83.29777336 136.57423328 83.2578125 139.01757812 C83.1617013 145.01159884 83.07666822 151.00570079 83 157 C81.29456816 157.50980881 79.58547682 158.00738268 77.875 158.5 C76.44800781 158.91765625 76.44800781 158.91765625 74.9921875 159.34375 C72 160 72 160 66 160 C66 107.53 66 55.06 66 1 C44.22 1 22.44 1 0 1 C0 0.67 0 0.34 0 0 Z " fill="#DCD9EB" transform="translate(380,96)"/>
<path d="M0 0 C6.45837386 4.37144235 11.82783754 10.43003469 13.9375 18 C15.19850309 27.57332957 13.53740621 35.08166128 7.9375 43 C5.48808822 45.50384316 2.98422886 47.29071314 -0.0625 49 C-1.114375 49.61875 -2.16625 50.2375 -3.25 50.875 C-10.71022941 53.07637917 -18.26448643 53.24154507 -25.4375 50 C-31.93492236 46.24945538 -37.34100879 40.66499085 -39.62109375 33.39453125 C-41.11879188 25.26985026 -41.40482849 17.12416878 -36.75390625 10.03515625 C-27.71008438 -0.84667099 -13.67894985 -7.01666339 0 0 Z " fill="#030304" transform="translate(220.0625,234)"/>
<path d="M0 0 C6.3900942 3.51413741 10.13408455 7.56757766 12.8046875 14.328125 C14.91757962 21.91957809 15.08635615 30.00748625 11.1875 37 C6.91790783 43.12243406 1.14818537 48.06525281 -6.3125 49.5 C-16.08320677 50.38572979 -21.71090633 48.77421088 -29.5625 43.1875 C-35.32412771 37.55681837 -37.43875745 31.71077099 -37.5625 23.75 C-37.49754517 17.0840101 -36.18013987 12.63763499 -32.75 6.875 C-23.4334873 -2.20262776 -12.05310048 -5.54562852 0 0 Z " fill="#010304" transform="translate(125.3125,424.5)"/>
<path d="M0 0 C6.30699638 4.3277276 10.08446164 10.40619192 12.5625 17.5625 C13.77930928 25.18356864 11.92496899 31.28223064 7.5625 37.5625 C1.92166633 43.84058267 -4.19613265 47.59395951 -12.75 48.0625 C-20.75203309 47.79905858 -26.88739919 44.56470211 -32.375 38.8125 C-36.69063934 33.39759404 -39.23387062 26.82397569 -38.91015625 19.80078125 C-37.24061374 11.89460062 -33.20466545 5.21492625 -26.5625 0.6484375 C-18.23014922 -3.60963882 -8.37430523 -4.57356155 0 0 Z " fill="#040202" transform="translate(434.4375,306.4375)"/>
<path d="M0 0 C5.53158638 3.13193689 10.85550653 8.5040196 12.875 14.5625 C13.72613734 23.23194178 13.18707041 30.42648562 7.875 37.5625 C3.02452462 42.2472416 -2.66530239 44.83949425 -9.4375 44.9375 C-15.98469836 44.77931266 -20.33492602 43.20369652 -25.1015625 38.69140625 C-30.98038017 32.29244628 -32.61459326 27.24373559 -32.43359375 18.56640625 C-31.80315408 12.42959475 -29.30142955 8.38507249 -24.8125 4.25 C-17.44511447 -1.47845443 -8.83828201 -3.78535458 0 0 Z " fill="#9ED1FB" transform="translate(294.125,409.4375)"/>
<path d="M0 0 C2.6881249 -0.08164159 5.373723 -0.14079668 8.0625 -0.1875 C8.81466797 -0.21263672 9.56683594 -0.23777344 10.34179688 -0.26367188 C15.67348765 -0.33291461 19.2770521 0.48029834 24 3 C28.22514794 7.55871225 29.37713931 10.53244091 29.26953125 16.6171875 C28.82864393 20.51488703 27.55943617 23.06307264 25 26 C18.908192 30.49906564 12.66842025 30.55287847 5.3515625 30.45410156 C4.20922653 30.45468567 3.06689056 30.45526978 1.88993835 30.45587158 C-1.86535606 30.45309702 -5.61984516 30.42203296 -9.375 30.390625 C-11.98673062 30.38316042 -14.59846685 30.37746852 -17.21020508 30.37347412 C-23.36891279 30.36107819 -29.52733398 30.32830306 -35.68591595 30.28807616 C-42.70164685 30.24325245 -49.71739197 30.2213449 -56.73323059 30.20129442 C-71.15563435 30.15956693 -85.57781316 30.08928137 -100 30 C-100 29.67 -100 29.34 -100 29 C-66.67 28.67 -33.34 28.34 1 28 C4.5635608 20.8728784 4.84403406 15.81842074 4 8 C2.96857182 4.92804073 1.76026485 2.75041383 0 0 Z " fill="#80B2F4" transform="translate(248,15)"/>
<path d="M0 0 C14.10814476 -0.09352161 28.21624133 -0.16375132 42.32463264 -0.20724869 C48.8757108 -0.22812505 55.42658074 -0.25644436 61.97753906 -0.30175781 C68.29934613 -0.34521266 74.6209529 -0.36913673 80.9428978 -0.37950897 C83.35505197 -0.3869009 85.76719515 -0.40133548 88.17926407 -0.42292023 C91.55741332 -0.45194837 94.93473441 -0.4559561 98.31298828 -0.45410156 C99.31064713 -0.46848267 100.30830597 -0.48286377 101.3361969 -0.49768066 C107.08044002 -0.46354846 110.47587751 0.0976584 115 4 C118.63732862 8.11592449 119.65416925 11.33272686 119.3828125 16.6875 C118.52312901 21.88069006 116.62103626 25.70317099 112.5 29 C107.33952498 30.47442144 102.32944306 30.23283975 97 30 C97.309375 29.236875 97.61875 28.47375 97.9375 27.6875 C99.67394612 23.29531275 100.18959918 19.91386403 100.25 15.1875 C100.27578125 13.98480469 100.3015625 12.78210938 100.328125 11.54296875 C100.16210413 7.41714497 100.16210413 7.41714497 97 2 C64.99 1.67 32.98 1.34 0 1 C0 0.67 0 0.34 0 0 Z " fill="#7EB0F0" transform="translate(367,51)"/>
<path d="M0 0 C3.39488422 2.05107588 4.80323081 3.70484621 7 7 C7.45412106 12.5402769 7.28294372 16.29444733 4 21 C-0.32518976 23.94899302 -3.81962079 24.6475474 -9 24 C-13.03019601 21.87083984 -15.30220108 20.21362823 -17 16 C-17.65528607 12.20623855 -17.86351149 8.5472585 -15.94921875 5.1171875 C-11.3161256 -0.54092626 -6.97305345 -0.8126078 0 0 Z " fill="#9ED0FA" transform="translate(212,247)"/>
<path d="M0 0 C3.0625 1.9375 3.0625 1.9375 5 5 C5.99791452 10.02256153 5.82077829 13.70264076 3.0625 18.0625 C-0.93928488 20.59424145 -4.28559 21.29946343 -9 21 C-12.01017347 19.78312136 -13.43871825 18.94415609 -15.09375 16.16015625 C-16.66555806 12.41356203 -16.87505836 8.96510818 -16 5 C-12.07101245 -1.13904305 -6.67524195 -2.32073832 0 0 Z " fill="#9DCFF9" transform="translate(119,438)"/>
<path d="M0 0 C3.64051176 0.81120099 5.09653944 2.45526886 7.15625 5.48046875 C8.51477611 9.87570027 8.56996666 11.66835826 6.46875 15.79296875 C3.40372448 19.35502543 1.83247865 20.26648211 -2.78125 20.85546875 C-6.62840622 20.3843884 -8.12680891 19.19740984 -10.84375 16.48046875 C-12.88015233 13.79612022 -12.84369332 12.47735136 -12.78125 9.04296875 C-10.91596225 1.9548753 -7.0478515 -0.43461751 0 0 Z " fill="#9BCDF6" transform="translate(423.84375,318.51953125)"/>
<path d="M0 0 C3.0099077 2.29014716 4.69783903 3.79135614 5.625 7.5 C4.69783903 11.20864386 3.0099077 12.70985284 0 15 C-3.68455227 15.6767545 -5.24316508 15.49791771 -8.375 13.4375 C-10.62340519 10.06489221 -10.56783945 7.97487617 -10 4 C-7.27238925 -0.09141613 -4.79563536 -0.88083098 0 0 Z " fill="#01060A" transform="translate(233,381)"/>
<path d="M0 0 C2.375 1.5625 2.375 1.5625 4 4 C4.56783945 7.97487617 4.62340519 10.06489221 2.375 13.4375 C-0.71685231 15.47161336 -2.36367425 15.60605429 -6 15 C-8.375 13.4375 -8.375 13.4375 -10 11 C-10.56783945 7.02512383 -10.62340519 4.93510779 -8.375 1.5625 C-5.28314769 -0.47161336 -3.63632575 -0.60605429 0 0 Z " fill="#060202" transform="translate(413,385)"/>
<path d="M0 0 C1.875 1.125 1.875 1.125 3 3 C3.49573337 6.89504791 3.58016848 9.09493717 1.4375 12.4375 C-1.90506283 14.58016848 -4.10495209 14.49573337 -8 14 C-9.9375 13 -9.9375 13 -11 11 C-11.39302445 7.90493248 -11.62908496 5.95551234 -11 3 C-7.56705737 -1.13972494 -5.05326616 -1.64780418 0 0 Z " fill="#060202" transform="translate(430,443)"/>
<path d="M0 0 C2.375 1.5625 2.375 1.5625 4 4 C4.5625 7.5 4.5625 7.5 4 11 C1.9375 13.5 1.9375 13.5 -1 15 C-4.6875 14.9375 -4.6875 14.9375 -8 14 C-10.48038907 10.2794164 -10.46337203 8.40203429 -10 4 C-7.26646839 -0.10029741 -4.80388991 -0.80064832 0 0 Z " fill="#000406" transform="translate(172,405)"/>
</svg>
