<?xml version="1.0" standalone="no"?>
<!DOCTYPE svg PUBLIC "-//W3C//DTD SVG 20010904//EN"
 "http://www.w3.org/TR/2001/REC-SVG-20010904/DTD/svg10.dtd">
<svg version="1.0" xmlns="http://www.w3.org/2000/svg"
 width="300.000000pt" height="300.000000pt" viewBox="0 0 300.000000 300.000000"
 preserveAspectRatio="xMidYMid meet">
<metadata>
Created by potrace 1.10, written by Peter Selinger 2001-2011
</metadata>
<g transform="translate(0.000000,300.000000) scale(0.100000,-0.100000)"
fill="#000000" stroke="none">
<path d="M1225 2974 c-385 -69 -748 -308 -970 -639 -148 -222 -253 -537 -243
-730 l3 -60 18 80 c83 366 112 450 210 616 197 332 519 575 888 669 46 12 124
28 172 36 48 8 102 21 120 28 31 14 30 14 -43 14 -41 0 -111 -6 -155 -14z"/>
<path d="M1575 2975 c17 -7 82 -22 146 -34 162 -29 278 -64 399 -122 439 -209
733 -595 819 -1077 12 -63 26 -132 33 -155 l13 -42 3 60 c7 137 -55 379 -143
556 -151 302 -382 533 -683 684 -172 86 -402 146 -551 144 -64 -1 -65 -1 -36
-14z"/>
<path d="M1390 2860 c-512 -42 -963 -376 -1155 -853 -63 -157 -86 -271 -92
-459 -8 -246 27 -421 126 -632 121 -259 366 -509 626 -639 322 -160 692 -186
1035 -71 459 154 804 543 907 1024 25 119 26 420 0 537 -40 185 -100 328 -204
486 -272 412 -754 647 -1243 607z m336 -55 c478 -84 874 -426 1029 -888 47
-142 65 -255 65 -417 0 -162 -18 -275 -65 -417 -155 -462 -551 -804 -1029
-888 -115 -20 -335 -20 -451 1 -479 82 -875 424 -1030 887 -19 56 -41 142 -50
191 -20 115 -20 337 0 452 95 545 528 979 1075 1078 106 19 347 20 456 1z"/>
<path d="M1350 2643 c-268 -42 -480 -149 -665 -337 -109 -110 -165 -186 -225
-312 -140 -290 -146 -647 -17 -950 112 -265 364 -509 632 -613 161 -63 236
-76 425 -76 189 0 264 13 425 76 281 109 535 363 644 644 63 161 76 236 76
425 0 189 -13 264 -76 425 -55 143 -141 270 -263 390 -182 180 -368 277 -613
320 -77 14 -279 18 -343 8z m390 -58 c350 -76 665 -342 791 -669 65 -168 73
-214 72 -416 0 -203 -9 -258 -72 -415 -220 -548 -828 -824 -1396 -634 -347
116 -619 413 -716 784 -21 78 -24 112 -24 265 0 151 4 187 24 264 84 321 295
585 578 726 102 50 211 86 315 105 103 18 322 13 428 -10z"/>
<path d="M1345 2506 c-421 -66 -756 -392 -846 -821 -16 -77 -16 -293 0 -370
85 -408 387 -720 786 -811 110 -26 320 -26 430 0 393 90 695 397 781 794 22
103 22 301 0 404 -116 535 -619 886 -1151 804z m368 -52 c361 -81 642 -359
738 -730 29 -113 32 -320 6 -429 -91 -380 -377 -666 -752 -751 -116 -27 -311
-24 -429 5 -318 77 -572 303 -694 616 -58 148 -74 380 -38 540 93 413 432 717
856 769 63 8 239 -4 313 -20z"/>
<path d="M1404 2270 c-76 -25 -153 -93 -186 -165 -32 -70 -32 -180 0 -250 29
-63 83 -119 147 -153 43 -23 62 -27 135 -27 73 0 92 4 135 27 111 59 170 155
170 278 0 62 -5 86 -28 133 -68 138 -226 205 -373 157z m211 -54 c55 -25 109
-80 133 -135 8 -20 15 -66 16 -102 1 -141 -98 -252 -238 -266 -187 -19 -335
159 -282 341 45 153 224 231 371 162z"/>
<path d="M1440 2139 c-62 -25 -110 -94 -110 -159 0 -111 106 -196 210 -167
133 36 174 196 74 289 -49 46 -116 60 -174 37z m157 -73 c27 -30 33 -44 33
-82 0 -64 -29 -108 -85 -130 -42 -16 -48 -16 -90 0 -84 33 -114 139 -58 206
35 42 58 51 117 46 42 -3 55 -9 83 -40z"/>
<path d="M820 1875 l0 -85 88 0 87 0 0 85 0 85 -87 0 -88 0 0 -85z m125 0 c0
-40 0 -40 -40 -40 -36 0 -40 2 -43 28 -6 47 4 59 45 55 37 -3 38 -4 38 -43z"/>
<path d="M2070 1678 l0 -88 90 0 91 0 -3 86 -3 86 -88 1 -87 2 0 -87z m125 -3
c0 -40 0 -40 -40 -40 -36 0 -40 2 -43 28 -6 47 4 59 45 55 37 -3 38 -4 38 -43z"/>
<path d="M965 1481 c-128 -35 -205 -131 -205 -256 0 -172 162 -298 323 -251
73 21 127 63 160 124 51 95 46 186 -16 278 -52 78 -177 128 -262 105z m177
-77 c125 -87 125 -271 0 -358 -57 -41 -158 -49 -218 -18 -166 85 -166 314 1
394 63 29 161 22 217 -18z"/>
<path d="M975 1340 c-53 -22 -89 -90 -74 -142 32 -111 153 -133 216 -39 28 42
29 86 3 128 -31 52 -93 75 -145 53z m100 -55 c52 -51 16 -145 -55 -145 -40 0
-90 47 -90 85 0 16 12 38 29 56 38 37 82 39 116 4z"/>
<path d="M1620 1328 l0 -88 85 0 85 0 0 88 0 87 -85 0 -85 0 0 -87z m125 -3
c0 -40 0 -40 -40 -40 -36 0 -40 2 -43 28 -6 47 4 59 45 55 37 -3 38 -4 38 -43z"/>
<path d="M1750 890 l0 -90 90 0 90 0 0 90 0 90 -90 0 -90 0 0 -90z m129 36 c7
-8 11 -27 9 -43 -3 -25 -7 -28 -45 -31 l-43 -3 0 39 c0 21 3 42 7 45 12 12 60
7 72 -7z"/>
<path d="M11 1389 c-2 -159 57 -376 154 -567 147 -288 369 -510 657 -657 191
-96 406 -155 567 -155 94 1 61 15 -104 46 -304 56 -539 166 -751 351 -259 226
-425 534 -484 903 -7 41 -18 90 -26 110 -13 35 -13 35 -13 -31z"/>
<path d="M2973 1420 c-7 -19 -21 -88 -33 -153 -83 -475 -365 -859 -789 -1071
-126 -64 -269 -110 -434 -140 -167 -31 -200 -45 -106 -46 151 0 379 60 551
145 301 151 532 382 683 684 88 177 150 419 143 556 l-3 60 -12 -35z"/>
</g>
</svg>
