<?xml version="1.0" standalone="no"?>
<!DOCTYPE svg PUBLIC "-//W3C//DTD SVG 20010904//EN"
 "http://www.w3.org/TR/2001/REC-SVG-20010904/DTD/svg10.dtd">
<svg version="1.0" xmlns="http://www.w3.org/2000/svg"
 width="512.000000pt" height="512.000000pt" viewBox="0 0 512.000000 512.000000"
 preserveAspectRatio="xMidYMid meet">

<g transform="translate(0.000000,512.000000) scale(0.100000,-0.100000)"
fill="white" stroke="none">
<path d="M2822 5097 c-29 -31 -29 -77 1 -105 18 -17 36 -22 75 -22 l52 0 0
-160 0 -160 -70 0 c-139 0 -160 -30 -160 -227 0 -119 3 -142 20 -170 10 -17
28 -37 40 -43 19 -10 21 -19 18 -93 l-3 -82 -225 -6 c-245 -6 -344 -21 -521
-79 -536 -176 -956 -641 -1079 -1197 -116 -524 40 -1078 411 -1468 98 -101
242 -219 342 -277 l47 -28 -24 -39 c-14 -21 -90 -138 -170 -260 l-145 -221
-281 0 c-380 0 -370 6 -370 -230 0 -161 10 -192 65 -216 51 -21 3379 -21 3430
0 55 24 65 55 65 216 0 235 8 230 -355 230 l-265 0 0 160 0 160 59 0 c52 0 62
3 80 26 29 36 26 60 -9 95 l-29 30 -489 -3 c-466 -3 -491 -4 -511 -22 -27 -25
-28 -79 -1 -106 15 -15 33 -20 75 -20 l55 0 0 -160 0 -160 -155 0 -155 0 0
390 0 390 723 0 c680 0 724 1 756 18 58 31 71 69 71 210 0 136 -10 175 -55
210 -27 22 -33 22 -411 22 l-383 0 -20 -26 c-34 -43 -26 -86 20 -109 23 -12
89 -15 364 -15 l335 0 0 -80 0 -80 -700 0 -700 0 0 79 0 80 211 3 c208 3 211
3 230 27 26 31 24 73 -3 99 -23 20 -31 21 -473 24 -399 4 -456 6 -505 22 -242
79 -394 282 -394 526 0 197 106 379 275 473 113 62 148 69 417 74 l242 6 0
-108 c0 -151 24 -191 123 -209 l37 -7 0 -185 c0 -282 -6 -277 317 -272 l223 3
31 31 c20 21 32 44 36 72 l5 40 189 4 c171 3 190 5 216 24 49 36 63 78 63 186
l0 97 38 7 c95 18 112 52 112 231 0 119 -3 142 -20 170 -22 36 -40 48 -92 57
l-38 7 0 178 c0 165 -2 180 -21 205 -26 33 -79 36 -109 6 -19 -19 -20 -33 -20
-205 l0 -185 -390 0 -390 0 0 159 0 158 60 22 c76 28 166 109 202 183 75 153
47 330 -72 449 -43 43 -141 99 -174 99 -13 0 -16 15 -16 84 l0 84 116 4 c108
3 117 5 135 27 25 30 24 76 -1 101 -18 18 -33 20 -175 20 l-155 0 0 80 0 80
470 0 471 0 -3 -77 -3 -78 -172 -3 -172 -2 -20 -27 c-24 -29 -25 -42 -10 -76
17 -38 50 -47 179 -47 l120 0 0 -290 c0 -277 1 -291 20 -310 30 -30 83 -27
109 6 20 26 21 38 21 315 l0 289 31 28 c37 33 49 79 49 197 0 113 -11 161 -44
194 -23 23 -37 27 -109 31 l-82 5 -3 158 -3 157 55 0 c70 0 100 22 100 75 0
27 -6 43 -23 56 -22 18 -49 19 -515 19 l-493 0 -21 -23z m748 -287 l0 -160
-235 0 -235 0 0 160 0 160 235 0 235 0 0 -160z m-1043 -992 c-30 -57 -32 -68
-32 -167 0 -94 3 -112 27 -163 47 -100 135 -179 236 -208 l42 -13 0 -158 0
-157 -327 -5 c-364 -5 -398 -10 -528 -73 -181 -88 -318 -256 -371 -454 -23
-87 -23 -253 0 -340 53 -198 192 -369 371 -455 113 -54 172 -66 363 -72 l172
-6 0 -114 0 -115 -35 21 c-89 52 -210 65 -314 32 -89 -28 -159 -85 -221 -181
-29 -44 -55 -80 -59 -80 -13 0 -131 77 -206 136 -160 123 -312 309 -404 493
-270 536 -190 1173 203 1633 254 297 675 502 1043 507 l72 1 -32 -62z m438 43
c109 -50 163 -165 130 -276 -31 -107 -114 -169 -225 -169 -136 0 -230 94 -230
229 0 96 51 177 135 216 52 24 138 24 190 0z m915 -1146 l0 -85 -545 0 -545 0
0 85 0 85 545 0 545 0 0 -85z m-620 -390 l0 -155 -155 0 -155 0 0 155 0 155
155 0 155 0 0 -155z m468 78 l-3 -78 -155 0 -155 0 -3 78 -3 77 161 0 161 0
-3 -77z m-1390 -1179 c49 -20 100 -70 123 -119 17 -36 19 -69 19 -342 l0 -303
-435 0 -434 0 181 278 c236 362 274 417 301 443 58 56 169 75 245 43z m1232
-604 l0 -160 -235 0 -235 0 0 160 0 160 235 0 235 0 0 -160z m620 -390 l0 -80
-1630 0 -1630 0 0 80 0 80 1630 0 1630 0 0 -80z"/>
<path d="M2375 3248 c-50 -27 -60 -80 -22 -116 33 -31 80 -29 106 4 34 43 26
86 -20 109 -33 18 -38 18 -64 3z"/>
<path d="M2820 3700 c-30 -30 -27 -83 6 -109 34 -27 57 -26 90 2 53 46 23 127
-47 127 -16 0 -38 -9 -49 -20z"/>
<path d="M2200 1060 c-33 -33 -30 -75 6 -107 31 -28 54 -29 88 -2 52 41 23
129 -44 129 -17 0 -39 -9 -50 -20z"/>
</g>
</svg>
