<?xml version="1.0" encoding="UTF-8"?>
<svg version="1.1" xmlns="http://www.w3.org/2000/svg" width="512" height="512">
<path d="M0 0 C0.94488785 -0.00705963 1.8897757 -0.01411926 2.86329651 -0.02139282 C41.91562467 -0.247035 41.91562467 -0.247035 58.76953125 3.203125 C59.7661377 3.39648438 60.76274414 3.58984375 61.78955078 3.7890625 C110.19101182 13.35276024 154.38512896 35.77050265 189.76953125 70.203125 C190.77330811 71.16822998 190.77330811 71.16822998 191.79736328 72.15283203 C200.73444332 80.76720099 209.13659789 89.47627109 216.49560547 99.48486328 C217.79203791 101.23348182 219.12241843 102.95141303 220.4609375 104.66796875 C228.32520366 114.8826848 234.71064045 125.84037758 240.76953125 137.203125 C241.43299561 138.44376709 241.43299561 138.44376709 242.10986328 139.70947266 C253.62657967 161.61261762 261.29758965 185.90372389 265.76953125 210.203125 C265.9303418 211.00379395 266.09115234 211.80446289 266.25683594 212.62939453 C271.74897535 240.70724953 271.50349817 274.19290435 265.76953125 302.203125 C265.57617188 303.19973145 265.3828125 304.19633789 265.18359375 305.22314453 C257.06481252 346.31194555 239.6953801 383.40611994 213.76953125 416.203125 C212.95742188 417.24082031 212.1453125 418.27851563 211.30859375 419.34765625 C198.63941514 434.91435994 184.08154161 449.48099025 167.76953125 461.203125 C166.59964669 462.0668777 165.43038875 462.93147969 164.26171875 463.796875 C143.63570695 478.94020242 121.02655998 491.0223415 96.76953125 499.203125 C95.5470166 499.61618896 95.5470166 499.61618896 94.29980469 500.03759766 C84.52895448 503.27568006 74.64734388 505.80797973 64.58203125 507.953125 C63.65737061 508.15188232 62.73270996 508.35063965 61.7800293 508.55541992 C45.57341948 511.84811527 29.63916105 512.57842778 13.14453125 512.515625 C11.61717346 512.51239227 11.61717346 512.51239227 10.05895996 512.50909424 C-4.56294299 512.45939896 -18.86180807 512.15373742 -33.23046875 509.203125 C-34.24302734 509.00444824 -35.25558594 508.80577148 -36.29882812 508.60107422 C-77.39146924 500.38377705 -114.32683292 482.94295303 -147.23046875 457.203125 C-147.76961914 456.78401855 -148.30876953 456.36491211 -148.86425781 455.93310547 C-165.1043318 443.17008625 -180.17509218 427.97886011 -192.23046875 411.203125 C-193.09422145 410.03324044 -193.95882344 408.8639825 -194.82421875 407.6953125 C-209.96754617 387.0693007 -222.04968525 364.46015373 -230.23046875 340.203125 C-230.64353271 338.98061035 -230.64353271 338.98061035 -231.06494141 337.73339844 C-234.30302381 327.96254823 -236.83532348 318.08093763 -238.98046875 308.015625 C-239.17922607 307.09096436 -239.3779834 306.16630371 -239.58276367 305.21362305 C-242.87545902 289.00701323 -243.60577153 273.0727548 -243.54296875 256.578125 C-243.5408136 255.55988647 -243.53865845 254.54164795 -243.53643799 253.49255371 C-243.48673484 238.8683366 -243.17254863 224.57507862 -240.23046875 210.203125 C-239.94042969 208.70821533 -239.94042969 208.70821533 -239.64453125 207.18310547 C-232.01587656 168.57481372 -216.30304558 132.42145621 -192.23046875 101.203125 C-191.26560547 99.95015625 -191.26560547 99.95015625 -190.28125 98.671875 C-176.19691174 80.74132256 -159.85363505 63.45372011 -141.23046875 50.203125 C-140.61284668 49.75710937 -139.99522461 49.31109375 -139.35888672 48.8515625 C-99.20602152 19.97940435 -49.95191371 0.24935871 0 0 Z M-147.37280273 97.11108398 C-153.44557214 103.12704047 -159.0306746 109.40896888 -164.23046875 116.203125 C-164.66069336 116.76225586 -165.09091797 117.32138672 -165.53417969 117.89746094 C-172.46486984 126.95310364 -178.59913899 136.29240546 -184.23046875 146.203125 C-184.56643066 146.77933594 -184.90239258 147.35554688 -185.24853516 147.94921875 C-201.69265079 176.23534257 -212.15598742 211.45161596 -212.46875 244.2578125 C-212.47854385 245.1085434 -212.48833771 245.95927429 -212.49842834 246.83578491 C-212.67312591 265.96293971 -212.48870468 284.45586864 -208.23046875 303.203125 C-208.01616211 304.14945801 -207.80185547 305.09579102 -207.58105469 306.07080078 C-195.959207 355.52709148 -167.81245228 402.14438027 -127.23046875 433.203125 C-126.67133789 433.63334961 -126.11220703 434.06357422 -125.53613281 434.50683594 C-116.48049011 441.43752609 -107.14118829 447.57179524 -97.23046875 453.203125 C-96.65425781 453.53908691 -96.07804687 453.87504883 -95.484375 454.22119141 C-46.88005432 482.47727466 14.27906347 488.8433033 68.35717773 475.18481445 C115.62554876 462.49210699 159.81653706 435.34031252 189.76953125 396.203125 C190.19975586 395.64399414 190.62998047 395.08486328 191.07324219 394.50878906 C198.00393234 385.45314636 204.13820149 376.11384454 209.76953125 366.203125 C210.10549316 365.62691406 210.44145508 365.05070312 210.78759766 364.45703125 C227.44512923 335.80380288 237.68003838 300.48078149 238.0078125 267.26953125 C238.01760635 266.44245667 238.02740021 265.61538208 238.03749084 264.76324463 C238.64383161 200.23228718 217.12313553 142.60808 171.86157227 96.06079102 C165.84561578 89.98802161 159.56368737 84.40291915 152.76953125 79.203125 C152.21040039 78.77290039 151.65126953 78.34267578 151.07519531 77.89941406 C142.02165142 70.97033022 132.68598629 64.82114301 122.76953125 59.203125 C122.17736816 58.8618457 121.58520508 58.52056641 120.97509766 58.16894531 C98.69744555 45.3952024 74.00351744 37.49561598 48.76953125 33.203125 C47.50882812 32.98785156 46.248125 32.77257813 44.94921875 32.55078125 C-25.93665868 21.87895135 -96.50605262 47.64937142 -147.37280273 97.11108398 Z " fill="#000000" transform="translate(243.23046875,-0.203125)"/>
<path d="M0 0 C1.10584946 0.00323273 1.10584946 0.00323273 2.23403931 0.00653076 C50.95508166 0.23363789 95.9314853 18.13626091 132.375 50.3125 C133.21933594 51.034375 134.06367188 51.75625 134.93359375 52.5 C139.88554629 56.77554756 144.17234099 61.31014475 148.375 66.3125 C149.19742187 67.23546875 150.01984375 68.1584375 150.8671875 69.109375 C186.78886725 109.70158469 199.59278227 161.27714119 197.375 214.3125 C194.63589044 257.19351373 175.545427 297.406056 147.375 329.3125 C146.653125 330.15683594 145.93125 331.00117188 145.1875 331.87109375 C140.91195244 336.82304629 136.37735525 341.10984099 131.375 345.3125 C130.45203125 346.13492187 129.5290625 346.95734375 128.578125 347.8046875 C88.0021536 383.71199733 36.39884159 396.55944297 -16.625 394.3125 C-23.73856765 393.8418213 -30.65537869 392.79090452 -37.625 391.3125 C-38.57487793 391.11382324 -39.52475586 390.91514648 -40.50341797 390.71044922 C-74.9097072 383.2936244 -105.29789708 367.55688696 -131.625 344.3125 C-132.89150391 343.2296875 -132.89150391 343.2296875 -134.18359375 342.125 C-139.13554629 337.84945244 -143.42234099 333.31485525 -147.625 328.3125 C-148.44742188 327.38953125 -149.26984375 326.4665625 -150.1171875 325.515625 C-186.03886725 284.92341531 -198.84278227 233.34785881 -196.625 180.3125 C-193.88865914 137.47483051 -174.82594366 97.1590337 -146.625 65.3125 C-145.82964844 64.3946875 -145.03429687 63.476875 -144.21484375 62.53125 C-139.65992102 57.34348209 -134.95962686 52.68671941 -129.625 48.3125 C-129.12822754 47.89274902 -128.63145508 47.47299805 -128.11962891 47.04052734 C-91.96579757 16.51416461 -47.31833524 -0.25173265 0 0 Z M-71.625 47.3125 C-72.26131348 47.62445313 -72.89762695 47.93640625 -73.55322266 48.2578125 C-105.55028858 64.14734713 -131.33683572 89.59826163 -147.625 121.3125 C-147.97546387 121.98361816 -148.32592773 122.65473633 -148.68701172 123.34619141 C-168.56375262 161.78921956 -170.89103539 207.26035619 -158.2890625 248.30078125 C-155.94639286 255.5652698 -152.99828171 262.47203745 -149.625 269.3125 C-149.31304687 269.94881348 -149.00109375 270.58512695 -148.6796875 271.24072266 C-132.90983471 302.99678293 -107.23440698 329.25959701 -75.625 345.3125 C-75.00947266 345.62912598 -74.39394531 345.94575195 -73.75976562 346.27197266 C-34.12993646 366.43433261 11.88808783 368.70661726 53.92822266 355.14941406 C60.28212693 352.97607702 66.35674096 350.28032316 72.375 347.3125 C73.01131348 347.00054687 73.64762695 346.68859375 74.30322266 346.3671875 C106.05928293 330.59733471 132.32209701 304.92190698 148.375 273.3125 C148.69162598 272.69697266 149.00825195 272.08144531 149.33447266 271.44726562 C169.49683261 231.81743646 171.76911726 185.79941217 158.21191406 143.75927734 C156.03857702 137.40537307 153.34282316 131.33075904 150.375 125.3125 C150.06304687 124.67618652 149.75109375 124.03987305 149.4296875 123.38427734 C133.57828499 91.46399881 108.01893003 65.56455451 76.375 49.3125 C75.70388184 48.96203613 75.03276367 48.61157227 74.34130859 48.25048828 C29.41506356 25.02163835 -26.38883847 25.00489794 -71.625 47.3125 Z " fill="#000000" transform="translate(255.625,58.6875)"/>
<path d="M0 0 C10.08115523 8.45871931 17.69883314 21.05019716 18.95263672 34.33447266 C19.05263959 36.5609048 19.07905591 38.77143099 19.0625 41 C19.05512817 42.18239258 19.05512817 42.18239258 19.04760742 43.38867188 C18.92165046 49.68781198 18.0787192 55.29499189 15.75 61.1875 C15.42128906 62.02410156 15.09257812 62.86070312 14.75390625 63.72265625 C8.82893248 76.98721691 -2.72736785 87.04103029 -16.15234375 92.18359375 C-29.85680148 96.62501322 -44.05096441 96.08761238 -57.25 90.1875 C-70.19937625 83.41370944 -80.22939675 73.31931225 -85.0625 59.375 C-89.45672748 45.18031364 -88.51695225 29.69181488 -81.859375 16.4140625 C-73.648919 2.02415804 -62.26926468 -6.34245369 -46.25 -10.8125 C-29.47909407 -14.16241378 -13.53555076 -10.28782547 0 0 Z M-52.83984375 29.08984375 C-56.70761307 34.84328454 -56.99892892 40.43765965 -56.25 47.1875 C-54.47996276 53.37733083 -50.63327002 57.76853955 -45.25 61.1875 C-39.30586227 64.16500226 -33.68608705 65.03129006 -27.25 63.1875 C-20.90007936 60.47773533 -16.78712736 56.03783521 -13.25 50.1875 C-11.30341411 44.34774232 -11.22492121 37.6217082 -13.75 31.9375 C-16.90907824 26.49313111 -21.60900791 22.45297538 -27.25 19.75 C-38.19380375 17.6980368 -45.70062388 20.60041682 -52.83984375 29.08984375 Z " fill="#000000" transform="translate(290.25,132.8125)"/>
<path d="M0 0 C10.09261691 8.25219853 15.80608762 17.72701322 17.9921875 30.62890625 C19.00687674 44.24915792 15.75788131 56.24234977 6.9296875 66.69140625 C-1.59919912 75.76468988 -11.24032857 80.96738515 -23.68359375 81.90625 C-37.87084757 82.26271366 -49.56322661 78.38929367 -60.08984375 68.703125 C-70.1015702 57.87577928 -72.82320942 46.33547288 -72.34765625 32.0390625 C-71.6402295 20.25952601 -66.28790623 10.71346593 -57.875 2.5625 C-41.32764166 -11.16765576 -17.62634257 -12.8807888 0 0 Z M-39.3828125 28.75390625 C-41.80136245 33.03287924 -42.00830095 36.83552128 -41.0078125 41.62890625 C-38.5921114 45.88365722 -35.53447842 48.75306998 -31.0078125 50.62890625 C-25.76892257 51.11398865 -22.44001949 50.48521742 -18.0078125 47.62890625 C-14.17896383 44.11050476 -13.2528682 40.87185818 -12.91015625 35.83984375 C-13.11857106 31.12133249 -15.13952684 28.43207048 -18.5078125 25.31640625 C-26.53762427 19.89628331 -32.80338054 22.86704608 -39.3828125 28.75390625 Z " fill="#000000" transform="translate(201.0078125,266.37109375)"/>
<path d="M0 0 C10.23 0 20.46 0 31 0 C31 10.23 31 20.46 31 31 C20.77 31 10.54 31 0 31 C0 20.77 0 10.54 0 0 Z " fill="#000000" transform="translate(299,344)"/>
<path d="M0 0 C10.23 0 20.46 0 31 0 C31 10.23 31 20.46 31 31 C20.77 31 10.54 31 0 31 C0 20.77 0 10.54 0 0 Z " fill="#000000" transform="translate(139,176)"/>
<path d="M0 0 C4.929375 -0.020625 9.85875 -0.04125 14.9375 -0.0625 C17.2731604 -0.07615601 17.2731604 -0.07615601 19.65600586 -0.09008789 C21.47950562 -0.09383423 21.47950562 -0.09383423 23.33984375 -0.09765625 C24.59144287 -0.10289307 25.84304199 -0.10812988 27.13256836 -0.11352539 C30 0 30 0 31 1 C31.08783542 3.21855264 31.10694609 5.43988496 31.09765625 7.66015625 C31.09515869 8.87582275 31.09266113 10.09148926 31.09008789 11.34399414 C31.08098389 12.90110107 31.07187988 14.45820801 31.0625 16.0625 C31.041875 20.991875 31.02125 25.92125 31 31 C20.77 31 10.54 31 0 31 C0 20.77 0 10.54 0 0 Z " fill="#000000" transform="translate(353,210)"/>
<path d="M0 0 C4.929375 -0.020625 9.85875 -0.04125 14.9375 -0.0625 C17.2731604 -0.07615601 17.2731604 -0.07615601 19.65600586 -0.09008789 C21.47950562 -0.09383423 21.47950562 -0.09383423 23.33984375 -0.09765625 C24.59144287 -0.10289307 25.84304199 -0.10812988 27.13256836 -0.11352539 C30 0 30 0 31 1 C31.10003289 3.13353174 31.13081048 5.27037542 31.1328125 7.40625 C31.13410156 8.70691406 31.13539063 10.00757813 31.13671875 11.34765625 C31.13357666 12.36883545 31.13357666 12.36883545 31.13037109 13.41064453 C31.1250224 15.49128515 31.1303168 17.57170989 31.13671875 19.65234375 C31.13542969 20.95300781 31.13414062 22.25367188 31.1328125 23.59375 C31.13168457 24.79708984 31.13055664 26.00042969 31.12939453 27.24023438 C31 30 31 30 30 31 C27.78144736 31.08783542 25.56011504 31.10694609 23.33984375 31.09765625 C22.12417725 31.09515869 20.90851074 31.09266113 19.65600586 31.09008789 C18.09889893 31.08098389 16.54179199 31.07187988 14.9375 31.0625 C10.008125 31.041875 5.07875 31.02125 0 31 C0 20.77 0 10.54 0 0 Z " fill="#000000" transform="translate(276,270)"/>
</svg>
