<?xml version="1.0" standalone="no"?>
<!DOCTYPE svg PUBLIC "-//W3C//DTD SVG 20010904//EN"
 "http://www.w3.org/TR/2001/REC-SVG-20010904/DTD/svg10.dtd">
<svg version="1.0" xmlns="http://www.w3.org/2000/svg"
 width="512.000000pt" height="512.000000pt" viewBox="0 0 512.000000 512.000000"
 preserveAspectRatio="xMidYMid meet">

<g transform="translate(0.000000,512.000000) scale(0.100000,-0.100000)"
fill="#42A5F5" stroke="none">
<path d="M1040 5109 c-443 -51 -807 -266 -955 -564 -60 -120 -78 -196 -79
-325 0 -313 187 -577 533 -750 89 -44 278 -106 391 -127 144 -26 431 -24 567
6 458 97 770 337 874 671 34 107 34 292 1 400 -57 185 -181 342 -367 467 -257
173 -635 260 -965 222z m290 -299 c189 -24 359 -80 493 -164 82 -50 194 -161
224 -221 130 -255 13 -520 -297 -675 -287 -143 -625 -167 -934 -65 -176 57
-282 121 -383 228 -138 148 -168 329 -81 500 39 78 150 190 238 241 216 126
498 185 740 156z"/>
<path d="M762 4370 c-61 -50 -112 -95 -112 -100 0 -16 98 -88 163 -119 122
-58 214 -76 392 -75 131 1 175 5 240 22 105 29 212 82 270 135 l47 42 -116 92
-115 92 -55 -28 c-30 -16 -90 -37 -132 -47 -142 -31 -349 -4 -435 57 -15 10
-29 19 -31 19 -2 0 -54 -41 -116 -90z"/>
<path d="M3012 5110 c-121 -26 -213 -98 -265 -208 -30 -62 -32 -74 -32 -172 1
-83 6 -119 24 -170 73 -211 266 -404 473 -474 179 -60 343 -31 455 80 65 65
96 140 101 243 6 107 -9 174 -63 286 -89 185 -253 331 -440 394 -72 23 -193
34 -253 21z m214 -330 c123 -60 243 -224 246 -335 1 -66 -25 -91 -93 -88 -156
4 -354 198 -367 359 -4 47 -1 55 23 80 24 24 31 26 78 20 29 -3 79 -19 113
-36z"/>
<path d="M4146 3790 c-620 -78 -1240 -571 -1501 -1195 -217 -518 -139 -973
211 -1235 363 -272 959 -188 1490 210 255 191 460 441 604 735 124 252 165
416 164 650 -1 167 -18 254 -74 374 -80 171 -234 321 -408 398 -123 54 -335
82 -486 63z m291 -316 c131 -34 255 -129 316 -241 39 -72 67 -192 67 -284 0
-329 -234 -779 -546 -1051 -276 -241 -634 -398 -901 -398 -258 1 -454 137
-526 365 -31 99 -30 274 2 400 123 477 501 918 962 1121 236 104 449 134 626
88z"/>
<path d="M3979 3011 c-20 -61 -85 -183 -137 -257 -125 -177 -357 -357 -533
-413 l-37 -12 28 -102 c15 -56 33 -121 39 -144 l11 -42 53 16 c80 23 238 105
329 170 106 75 269 236 345 339 33 44 81 123 108 175 47 91 98 219 90 227 -2
2 -67 21 -144 41 l-140 38 -12 -36z"/>
<path d="M740 2594 c-14 -2 -52 -9 -85 -15 -229 -41 -457 -213 -560 -422 -58
-118 -85 -224 -92 -362 -21 -443 257 -997 680 -1351 183 -154 419 -290 630
-363 283 -99 588 -101 801 -7 177 79 334 235 413 414 135 305 69 742 -173
1148 -284 477 -784 845 -1275 939 -84 16 -291 28 -339 19z m344 -329 c273 -69
511 -210 736 -435 132 -131 221 -248 298 -390 215 -394 238 -730 64 -945 -213
-264 -629 -256 -1083 20 -239 146 -432 337 -580 575 -224 362 -279 725 -145
955 79 133 209 219 375 245 82 13 231 2 335 -25z"/>
<path d="M987 1810 c-75 -20 -139 -39 -141 -41 -8 -8 43 -139 89 -228 155
-301 465 -574 767 -677 l68 -23 11 42 c68 250 68 248 51 253 -137 43 -279 132
-407 255 -138 133 -211 242 -291 435 -9 21 -9 21 -147 -16z"/>
<path d="M4035 884 c-235 -51 -409 -218 -423 -402 -19 -268 244 -476 598 -474
263 1 467 107 557 290 35 70 38 83 37 158 0 72 -4 90 -34 150 -60 122 -177
215 -335 264 -93 30 -298 37 -400 14z m321 -305 c52 -16 79 -32 111 -64 24
-23 43 -49 43 -57 0 -32 -47 -84 -101 -110 -148 -74 -383 -49 -469 49 -50 56
-36 101 47 150 64 37 124 52 219 52 57 1 103 -6 150 -20z"/>
</g>
</svg>
