<?xml version="1.0" standalone="no"?>
<!DOCTYPE svg PUBLIC "-//W3C//DTD SVG 20010904//EN"
 "http://www.w3.org/TR/2001/REC-SVG-20010904/DTD/svg10.dtd">
<svg version="1.0" xmlns="http://www.w3.org/2000/svg"
 width="512.000000pt" height="512.000000pt" viewBox="0 0 512.000000 512.000000"
 preserveAspectRatio="xMidYMid meet">

<g transform="translate(0.000000,512.000000) scale(0.100000,-0.100000)"
fill="white" stroke="none">
<path d="M2135 5095 l-25 -24 0 -351 0 -350 -52 0 c-83 0 -128 -17 -179 -69
-92 -91 -93 -211 -4 -311 79 -89 79 -89 85 -333 5 -215 5 -219 29 -238 32 -26
67 -24 96 6 25 24 25 25 25 222 0 265 -13 316 -112 430 -44 52 -48 84 -13 118
l24 25 551 0 551 0 24 -25 c35 -34 31 -66 -13 -118 -99 -114 -112 -165 -112
-430 0 -197 0 -198 25 -222 29 -30 64 -32 96 -6 24 19 24 23 29 238 6 243 5
240 83 332 90 105 89 218 -3 312 -50 52 -93 69 -177 69 l-53 0 0 350 0 351
-25 24 -24 25 -401 0 -401 0 -24 -25z m725 -425 l0 -300 -300 0 -300 0 0 300
0 300 300 0 300 0 0 -300z"/>
<path d="M1985 3225 l-25 -24 0 -257 0 -257 -228 -231 c-160 -163 -246 -258
-290 -324 -67 -98 -137 -236 -171 -337 l-20 -60 -193 -3 -193 -2 -129 129
-128 128 10 50 c21 96 -21 190 -105 240 -39 23 -60 28 -113 28 -87 0 -147 -34
-191 -108 -27 -47 -30 -59 -27 -123 3 -57 8 -79 30 -112 51 -77 169 -121 249
-93 l33 11 141 -139 c77 -77 153 -145 168 -151 16 -6 111 -10 222 -10 l195 0
-5 -27 c-2 -16 -7 -49 -10 -75 l-6 -48 -378 0 -377 0 -34 52 c-50 75 -103 101
-197 96 -91 -4 -144 -37 -185 -117 -37 -71 -37 -131 0 -202 41 -80 94 -113
185 -117 92 -4 148 22 192 90 l30 47 382 0 382 1 5 -33 c3 -17 7 -50 8 -72 l3
-40 -217 -5 -218 -5 -143 -143 -143 -142 -33 11 c-80 28 -198 -16 -249 -93
-24 -37 -27 -51 -27 -122 0 -73 3 -85 29 -124 66 -97 198 -128 299 -69 84 50
126 144 105 240 l-10 50 123 123 124 124 200 0 200 0 18 -58 c68 -214 229
-448 413 -601 516 -428 1234 -428 1748 0 187 156 346 388 412 601 l18 58 200
0 201 0 124 -124 123 -123 -10 -50 c-21 -96 21 -190 105 -240 39 -23 60 -28
113 -28 87 0 147 34 191 108 27 47 30 59 27 124 -3 60 -8 78 -33 115 -54 77
-171 118 -251 88 -27 -11 -33 -5 -171 132 l-143 143 -218 5 -217 5 3 40 c1 22
5 55 8 73 l5 32 382 -1 382 0 30 -47 c44 -68 100 -94 192 -90 91 4 144 37 185
117 37 71 37 131 0 202 -41 80 -94 113 -185 117 -94 5 -147 -21 -197 -96 l-34
-52 -377 0 -378 0 -6 48 c-3 26 -8 59 -10 75 l-4 27 194 0 c111 0 206 4 222
10 15 6 91 74 169 151 135 134 141 140 168 129 80 -30 197 11 251 88 25 37 30
55 33 115 3 65 0 77 -27 124 -44 74 -104 108 -191 108 -53 0 -74 -5 -113 -28
-84 -50 -126 -144 -105 -240 l10 -50 -128 -128 -129 -129 -194 2 -193 3 -24
69 c-13 38 -41 107 -63 153 -76 157 -151 253 -393 499 l-228 231 0 257 0 257
-25 24 c-13 14 -36 25 -50 25 -14 0 -37 -11 -50 -25 l-25 -24 0 -287 0 -286
243 -247 c190 -193 258 -269 310 -348 149 -224 219 -475 203 -737 -31 -552
-421 -1004 -968 -1122 -104 -23 -351 -25 -453 -5 -171 34 -375 122 -500 216
-147 111 -274 259 -355 416 -175 340 -185 717 -29 1067 66 147 150 253 406
513 l243 247 0 286 0 287 -25 24 c-13 14 -36 25 -50 25 -14 0 -37 -11 -50 -25z
m-1551 -1076 c34 -16 47 -57 31 -96 -31 -73 -135 -49 -135 32 0 24 7 39 26 54
31 24 43 26 78 10z m4330 -10 c19 -15 26 -30 26 -54 0 -81 -104 -105 -135 -32
-31 75 45 136 109 86z m-4484 -731 c43 -47 10 -118 -55 -118 -22 0 -41 8 -55
22 -43 47 -10 118 55 118 22 0 41 -8 55 -22z m4670 0 c43 -47 10 -118 -55
-118 -22 0 -41 8 -55 22 -43 47 -10 118 55 118 22 0 41 -8 55 -22z m-4515
-704 c26 -10 44 -62 33 -94 -9 -26 -44 -50 -72 -50 -7 0 -25 9 -40 21 -67 53
-2 154 79 123z m4333 -14 c32 -30 30 -82 -4 -109 -31 -24 -43 -26 -78 -10 -46
21 -51 94 -9 127 25 18 66 15 91 -8z"/>
<path d="M1938 2233 c-112 -112 -221 -230 -249 -271 -67 -97 -125 -222 -156
-340 -23 -86 -26 -116 -26 -262 0 -146 3 -176 25 -261 51 -191 140 -343 282
-485 142 -142 294 -231 485 -282 85 -22 115 -25 261 -25 146 0 176 3 261 25
191 51 343 140 485 282 142 142 228 289 280 482 25 89 27 116 27 264 0 146 -3
176 -26 262 -31 118 -89 243 -156 340 -64 92 -439 468 -467 468 -11 0 -47 -21
-80 -46 -124 -98 -263 -138 -395 -116 -94 16 -158 45 -243 109 -38 29 -79 53
-90 53 -13 0 -92 -72 -218 -197z m365 -67 c86 -38 155 -51 267 -50 126 2 232
32 327 93 l61 39 169 -171 c118 -121 180 -193 209 -242 161 -277 176 -590 40
-870 -44 -91 -109 -186 -164 -238 l-30 -28 -58 37 c-80 52 -211 107 -319 135
-130 34 -360 34 -490 0 -108 -28 -239 -83 -319 -135 l-58 -37 -30 28 c-55 52
-120 147 -164 238 -139 287 -119 621 52 888 28 44 109 136 207 234 l160 162
44 -30 c24 -17 67 -41 96 -53z m482 -1445 c84 -22 265 -105 265 -122 0 -16
-178 -97 -265 -121 -114 -30 -335 -31 -450 0 -82 22 -265 106 -265 121 0 12
144 85 208 106 152 49 353 55 507 16z"/>
</g>
</svg>
